<?xml version="1.0" standalone="no"?>
<!DOCTYPE svg PUBLIC "-//W3C//DTD SVG 1.1//EN" "http://www.w3.org/Graphics/SVG/1.1/DTD/svg11.dtd" >
<svg>
<metadata>
Created by FontForge 20090914 at Thu Feb  2 15:00:35 2017
 By www-data
Copyright (c) 2016 by CWS
</metadata>
<defs>
<font id="CWSiconFont-Regular" horiz-adv-x="916" >
  <font-face 
    font-family="CWSiconFont"
    font-weight="400"
    font-stretch="normal"
    units-per-em="1000"
    panose-1="0 0 0 0 0 0 0 0 0 0"
    ascent="800"
    descent="-200"
    x-height="702.997"
    cap-height="703"
    bbox="-160 -380.998 1542 956.003"
    underline-thickness="50"
    underline-position="-50"
    unicode-range="U+000D-U+2122"
  />
<missing-glyph horiz-adv-x="248" 
 />
    <glyph glyph-name=".notdef" horiz-adv-x="248" 
 />
    <glyph glyph-name="NULL" horiz-adv-x="0" 
 />
    <glyph glyph-name="NULL" horiz-adv-x="0" 
 />
    <glyph glyph-name="nonmarkingreturn" unicode="&#xd;" horiz-adv-x="0" 
 />
    <glyph glyph-name="space" unicode=" " horiz-adv-x="248" 
 />
    <glyph glyph-name="exclam" unicode="!" horiz-adv-x="533" 
d="M218 609l129 3.00488c5.33301 -3.33301 8 -6 8 -8v-2l-4 -123l-2 -24h148c2.66699 -2.66699 4 -5.33398 4 -8.00098c0 -9.33301 0.166992 -27.333 0.5 -54s0.833008 -63 1.5 -109h-11l-141 -4c0 -32 -2 -86.333 -6 -163c-3.33301 -2.66699 -6.66602 -4 -9.99902 -4
c-26.667 2.66699 -58.334 4.66699 -95.001 6c-35.333 1.33301 -53 4.66602 -53 9.99902c-0.666992 19.333 -1.16699 35.166 -1.5 47.499s-0.5 20.833 -0.5 25.5s0.166992 13.5 0.5 26.5s0.833008 30.167 1.5 51.5c-86.667 -0.666992 -138.667 -3.33398 -156 -8.00098
c0 1.33301 -0.333008 2 -1 2c1.33301 57.333 2.5 100.666 3.5 129.999s1.5 45 1.5 47v6c0 2.66699 49 3 147 1c1.33301 35.333 2.33301 64.333 3 87s1 39.667 1 51c0 8.66699 10.667 13 32 13z" />
    <glyph glyph-name="quotedbl" unicode="&#x22;" horiz-adv-x="515" 
d="M497 455c2.66699 -2.66699 4 -5.33301 4 -8c0 -9.33301 0.166992 -27.333 0.5 -54s0.833008 -63 1.5 -109h-11c-146.667 0 -258.167 -1.33301 -334.5 -4s-118.5 -4.66699 -126.5 -6c0 1.33301 -0.333008 2 -1 2c1.33301 56.667 2.5 99.5 3.5 128.5s1.5 44.5 1.5 46.5v6
c0 2.66699 154 2 462 -2z" />
    <glyph glyph-name="numbersign" unicode="#" horiz-adv-x="680" 
d="M174 431l-15.5 -18.999l-15.5 -19c-10 -14 -18.667 -27.667 -26 -41c-1.33301 -1.33301 -2 -2.66602 -2 -3.99902c-3.33301 -5.33301 -7.33301 -8 -12 -8c-2.66699 0 -4.66699 0.333008 -6 1l-3 3c-0.666992 0.666992 -1.66699 2.33398 -3 5.00098
c-1.33301 4 -2.33301 7.33301 -3 10v1c-1.33301 3.33301 -2 6.33301 -2 9c0 2 1.33301 4 4 6c2.66699 2.66699 5.33398 4 8.00098 4l2 -1c1.33301 -1.33301 2 -2.66602 2 -3.99902l2 -4c0.666992 -4 2 -6 4 -6c0.666992 1.33301 1.66699 2.66602 3 3.99902
s3.66602 4.66602 6.99902 9.99902c2.66699 4.66699 5.16699 8.66699 7.5 12s4.5 6.66602 6.5 9.99902c6.66699 10 11 16 13 18c3.33301 4.66699 6 7.66699 8 9c1.33301 1.33301 4 2.66602 8 3.99902s8 2 12 2zM103 336.001c-3.33301 0 -5.66602 0.336914 -6.99902 1.00391
s-3.33301 2.33398 -6 5.00098c-1.33301 0.666992 -2.33301 2.66699 -3 6c-0.666992 1.33301 -1.66699 4.66602 -3 9.99902v1c-1.33301 3.33301 -2 5.66602 -2 6.99902v3c0 3.33301 2 6.66602 6 9.99902c2.66699 2 6 3 10 3c2.66699 0 4.33398 -0.333008 5.00098 -1
s1.66699 -2.33398 3 -5.00098c0 -0.666992 0.666992 -2.33398 2 -5.00098v-1c0.666992 1.33301 1.5 2.66602 2.5 3.99902s2.16699 3.33301 3.5 6l8.5 12c2.33301 3.33301 4.5 6.66602 6.5 9.99902c6.66699 10 11 16.333 13 19c1.33301 2 2.66602 3.66699 3.99902 5l4 4
c4 2.66699 7.33301 4.33398 10 5.00098c1.33301 0.666992 3.16602 1 5.49902 1s4.83301 0.333008 7.5 1h3l3 -7l-2 -2c-5.33301 -6 -10.5 -12.167 -15.5 -18.5l-15.5 -19.5l-13.5 -19.5c-4.33301 -6.33301 -8.5 -13.166 -12.5 -20.499l-2 -4c-2 -4 -4.5 -6.66699 -7.5 -8
s-5.5 -2 -7.5 -2v0zM98 375.005c-2 0 -3.99512 -1.00391 -5.99512 -3.00391c-1.33301 -0.666992 -2 -1.66699 -2 -3v-2c0 -2 0.333008 -4 1 -6l1 -1c0.666992 -4 1.66699 -7 3 -9c0 -2 0.666992 -3.66699 2 -5l2 -2h4c1.33301 0 2.66602 0.166992 3.99902 0.5
s2.66602 2.16602 3.99902 5.49902l2 4l13.5 21l13.5 20l12.5 16.5c4.33301 5.66699 9.16602 11.167 14.499 16.5c-2.66699 0 -4.33398 -0.333008 -5.00098 -1c-2 -0.666992 -4.33301 -1.66699 -7 -3c-1.33301 -1.33301 -2.5 -2.66602 -3.5 -3.99902
s-2.16699 -2.66602 -3.5 -3.99902l-5 -7.5c-2 -3 -4.66699 -6.5 -8 -10.5c-2 -3.33301 -4.16699 -6.66602 -6.5 -9.99902s-4.83301 -7.33301 -7.5 -12c-5.33301 -7.33301 -8.5 -11.833 -9.5 -13.5s-2.16699 -2.5 -3.5 -2.5c-2.66699 0 -5.33398 3 -8.00098 9
c0 0.666992 -0.166992 1.33398 -0.5 2.00098s-0.5 1.33398 -0.5 2.00098l-1 2v0zM654.005 501.001v-624c0 -18 -6.16699 -33.167 -18.5 -45.5s-27.5 -18.5 -45.5 -18.5h-500c-18 0 -33.167 6.16699 -45.5 18.5s-18.5 27.5 -18.5 45.5v736c0 18 6.16699 33.167 18.5 45.5
s27.5 18.5 45.5 18.5h384zM480.005 691.001l-389.999 -0.000976562c-21.333 0 -39.666 -7.66699 -54.999 -23s-23 -33.666 -23 -54.999v-736c0 -21.333 7.66699 -39.666 23 -54.999s33.666 -23 54.999 -23h500c21.333 0 39.666 7.66699 54.999 23s23 33.666 23 54.999v630z
M590.006 -213l-500.001 0.000976562c-25.333 0 -46.666 8.66699 -63.999 26s-26 38.666 -26 63.999v736c0 25.333 8.66699 46.666 26 63.999s38.666 26 63.999 26h395l195 -191v-635c0 -25.333 -8.66699 -46.666 -26 -63.999s-38.666 -26 -63.999 -26v0zM469.005 666.001
h-379c-14.667 0 -27.167 -5.16699 -37.5 -15.5s-15.5 -22.833 -15.5 -37.5v-736c0 -14.667 5.16699 -27.167 15.5 -37.5s22.833 -15.5 37.5 -15.5h500c14.667 0 27.167 5.16699 37.5 15.5s15.5 22.833 15.5 37.5v619zM668.005 507.001l-187.999 183.999h-14v-120
c0 -21.333 7.66699 -39.666 23 -54.999s33.666 -23 54.999 -23h124v14zM680.006 481l-136.001 0.000976562c-25.333 0 -46.666 8.66699 -63.999 26s-26 38.666 -26 63.999v132h31l195 -191v-31zM477.005 677.001v-105.999c0 -18.667 6.5 -34.334 19.5 -47.001
s28.833 -19 47.5 -19h110zM567.005 359.002h-347c-5.33301 0 -9.83301 1.83301 -13.5 5.5s-5.5 8.16699 -5.5 13.5s1.83301 10 5.5 14s8.16699 6 13.5 6h347c5.33301 0 10 -2 14 -6s6 -8.66699 6 -14s-2 -9.83301 -6 -13.5s-8.66699 -5.5 -14 -5.5v0zM174.005 272.002
c-5.33301 -6 -10.5 -12.1641 -15.5 -18.4971l-15.5 -19.5l-13.5 -20l-12.5 -20c-1.33301 -1.33301 -2 -3 -2 -5c-3.33301 -5.33301 -7.33301 -8 -12 -8c-2.66699 0 -4.66699 0.333008 -6 1l-3 3l-1.5 3l-1.5 3c-1.33301 2 -2.33301 5 -3 9v1
c-1.33301 3.33301 -2 6.33301 -2 9s1.33301 5 4 7s5.33398 3 8.00098 3l2 -1c1.33301 -1.33301 2 -2.66602 2 -3.99902l2 -4c0.666992 -4 2 -6 4 -6c0.666992 1.33301 1.66699 2.66602 3 3.99902s3.66602 4.66602 6.99902 9.99902c2.66699 4.66699 5.16699 8.66699 7.5 12
s4.5 6.66602 6.5 9.99902c6.66699 10 11 16.333 13 19l4 4l4 4c1.33301 1.33301 4 2.66602 8 3.99902s8 2 12 2zM103.005 177.005c-1.33301 0 -2.49902 0.170898 -3.49902 0.503906s-2.16699 0.5 -3.5 0.5c-1.33301 0.666992 -3.33301 2.33398 -6 5.00098l-3 6
c-0.666992 1.33301 -1.66699 4.66602 -3 9.99902v1c-1.33301 3.33301 -2 5.66602 -2 6.99902v3c0 3.33301 2 6.66602 6 9.99902c4 2.66699 7.33301 4 10 4c2 0 3.66699 -0.666992 5 -2c0.666992 -0.666992 1.66699 -2.33398 3 -5.00098
c0 -0.666992 0.666992 -2.33398 2 -5.00098v-1c0.666992 1.33301 1.5 2.66602 2.5 3.99902s2.16699 3.33301 3.5 6l8.5 12c2.33301 3.33301 4.5 6.66602 6.5 9.99902c6.66699 10 11 16.333 13 19c1.33301 2 2.66602 3.66699 3.99902 5l4 4
c4 2.66699 7.33301 4.33398 10 5.00098c4 1.33301 8.33301 2 13 2h3l3 -7l-2 -2c-5.33301 -6 -10.5 -12.167 -15.5 -18.5s-10.167 -12.5 -15.5 -18.5l-13.5 -20l-12.5 -20c0 -1.33301 -0.666992 -2.66602 -2 -3.99902c-2 -4.66699 -4.5 -7.66699 -7.5 -9s-5.5 -2 -7.5 -2v0z
M98.0059 216.009c-2 0 -3.99805 -0.999023 -5.99805 -2.99902c-1.33301 -0.666992 -2 -1.66699 -2 -3v-2c0 -2 0.333008 -4 1 -6l1 -1c0.666992 -4 1.66699 -7 3 -9c0 -1.33301 0.666992 -2.66602 2 -3.99902c0 -1.33301 0.666992 -2 2 -2c0.666992 -0.666992 2 -1 4 -1
c2.66699 0 5.33398 2 8.00098 6l2 4l13.5 21l13.5 20l12.5 16.5c4.33301 5.66699 9.16602 11.167 14.499 16.5c-2.66699 0 -4.33398 -0.333008 -5.00098 -1c-1.33301 0 -2.5 -0.333008 -3.5 -1s-2.16699 -1.33398 -3.5 -2.00098c-2.66699 -2.66699 -5 -5.33398 -7 -8.00098
c-2 -2 -6.33301 -8 -13 -18c-2 -3.33301 -4.16699 -6.66602 -6.5 -9.99902s-4.83301 -7.33301 -7.5 -12c-5.33301 -7.33301 -8.5 -11.833 -9.5 -13.5s-2.16699 -2.5 -3.5 -2.5c-2.66699 0 -5.33398 3 -8.00098 9c0 1.33301 -0.166992 2.16602 -0.5 2.49902
s-0.5 0.833008 -0.5 1.5l-1 2v0zM567.008 200.01h-347c-5.33301 0 -9.83301 1.83301 -13.5 5.5s-5.5 8.16699 -5.5 13.5s1.83301 10 5.5 14s8.16699 6 13.5 6h347c5.33301 0 10 -2 14 -6s6 -8.66699 6 -14s-2 -9.83301 -6 -13.5s-8.66699 -5.5 -14 -5.5v0zM174.008 113.01
c-5.33301 -6 -10.5 -12.1621 -15.5 -18.4951l-15.5 -19.5l-13.5 -20l-12.5 -20c-1.33301 -1.33301 -2 -3 -2 -5c-3.33301 -5.33301 -7.33301 -8 -12 -8c-2.66699 0 -4.66699 0.333008 -6 1l-3 3l-3 6c-1.33301 2 -2.33301 5 -3 9v1c-1.33301 3.33301 -2 6.33301 -2 9
s1.33301 5 4 7s5.33398 3 8.00098 3c1.33301 0 2 -0.333008 2 -1c1.33301 -1.33301 2 -2.33301 2 -3c0.666992 -0.666992 1 -1.33398 1 -2.00098s0.333008 -1.66699 1 -3c0.666992 -4 2 -6 4 -6c0.666992 1.33301 1.66699 2.66602 3 3.99902
s3.66602 4.66602 6.99902 9.99902c2.66699 4.66699 5.16699 8.66699 7.5 12s4.5 6.66602 6.5 9.99902c6.66699 10 11 16.333 13 19l4 4l4 4c1.33301 1.33301 4 2.66602 8 3.99902s8 2 12 2zM103.008 18.0146c-2 0 -4.33105 0.665039 -6.99805 1.99805
c-1.33301 0 -3.33301 1.33301 -6 4l-3 6c-1.33301 4 -2.33301 7.33301 -3 10v1c-1.33301 3.33301 -2 5.66602 -2 6.99902v3c0 3.33301 2 6.66602 6 9.99902c4 2.66699 7.33301 4 10 4c2 0 3.66699 -0.666992 5 -2c0.666992 -0.666992 1.66699 -2.33398 3 -5.00098
c0 -1.33301 0.666992 -2.66602 2 -3.99902v-1c0.666992 0.666992 2.66699 3.66699 6 9c3.33301 4.66699 6.16602 8.83398 8.49902 12.501l6.5 10.5c3.33301 4 6 7.5 8 10.5l5 7.5c1.33301 2 2.66602 3.66699 3.99902 5l4 4c4 2.66699 7.33301 4.33398 10 5.00098
c4 1.33301 8.33301 2 13 2h3l3 -7l-2 -2c-10.667 -11.333 -21 -23.666 -31 -36.999l-13.5 -20l-12.5 -20c0 -1.33301 -0.666992 -2.66602 -2 -3.99902c-2 -4.66699 -4.5 -7.66699 -7.5 -9s-5.5 -2 -7.5 -2v0zM98.0098 57.0127
c-1.33301 0 -3.33496 -0.669922 -6.00195 -2.00293c-1.33301 -1.33301 -2 -2.66602 -2 -3.99902v-2c0 -2 0.333008 -4 1 -6l1 -1c0.666992 -4 1.66699 -7 3 -9c0 -1.33301 0.666992 -2.66602 2 -3.99902c0 -1.33301 0.666992 -2 2 -2c0.666992 -0.666992 2 -1 4 -1
c2.66699 0 5.33398 2 8.00098 6c1.33301 2.66699 2 4.33398 2 5.00098l13.5 20l13.5 20c7.33301 10.667 16.333 22 27 34c-1.33301 -0.666992 -3 -1 -5 -1c-3.33301 -1.33301 -5.66602 -2.66602 -6.99902 -3.99902c-2.66699 -2.66699 -5 -5.33398 -7 -8.00098
c-2 -2 -6.33301 -8 -13 -18c-2 -3.33301 -4.16699 -6.66602 -6.5 -9.99902s-4.83301 -7.33301 -7.5 -12c-5.33301 -7.33301 -8.5 -11.833 -9.5 -13.5s-2.16699 -2.5 -3.5 -2.5c-2 0 -3.5 1 -4.5 3s-2.16699 4 -3.5 6c0 1.33301 -0.166992 2.16602 -0.5 2.49902
s-0.5 0.833008 -0.5 1.5l-1 2v0zM567.008 41.0098h-347c-5.33301 0 -9.83301 1.83301 -13.5 5.5s-5.5 8.16699 -5.5 13.5s1.83301 10 5.5 14s8.16699 6 13.5 6h347c5.33301 0 10 -2 14 -6s6 -8.66699 6 -14s-2 -9.83301 -6 -13.5s-8.66699 -5.5 -14 -5.5v0z" />
    <glyph glyph-name="dollar" unicode="$" horiz-adv-x="1364" 
d="M1134 582l-65 -124l-66 -124l-56 89l-498 -313l56 -89l-140 -6l-140 -5l65 124l66 124l54 -86l498 313l-54 86l140 5zM1234 589c0 17.333 -6 31.833 -18 43.5s-26.333 17.5 -43 17.5h-981c-17.333 0 -32 -5.83301 -44 -17.5s-18 -26.167 -18 -43.5v-592
c0 -17.333 6 -31.833 18 -43.5s26.667 -17.5 44 -17.5h981c16.667 0 31 5.83301 43 17.5s18 26.167 18 43.5v592zM879 -174c8.66699 0 13 4.33301 13 13s-4.33301 13 -13 13h-406c-8.66699 0 -13 -4.33301 -13 -13s4.33301 -13 13 -13h406v0zM1364 -117v-14
c0 -22.667 -7.66699 -42 -23 -58s-34 -24 -56 -24h-1206c-22 0 -40.667 8 -56 24s-23 35.333 -23 58v14h78v747c0 20 7 37.167 21 51.5s31 21.5 51 21.5h1064c20 0 37.167 -7 51.5 -21s21.5 -31.333 21.5 -52l2 -747h75z" />
    <glyph glyph-name="percent" unicode="%" horiz-adv-x="1364" 
d="M1234 589c0 17.333 -6 31.833 -18 43.5s-26.333 17.5 -43 17.5h-981c-17.333 0 -32 -5.83301 -44 -17.5s-18 -26.167 -18 -43.5v-592c0 -17.333 6 -31.833 18 -43.5s26.667 -17.5 44 -17.5h981c16.667 0 31 5.83301 43 17.5s18 26.167 18 43.5v592zM879 -174
c8.66699 0 13 4.33301 13 13s-4.33301 13 -13 13h-406c-8.66699 0 -13 -4.33301 -13 -13s4.33301 -13 13 -13h406v0zM1364 -117v-14c0 -22.667 -7.66699 -42 -23 -58s-34 -24 -56 -24h-1206c-22 0 -40.667 8 -56 24s-23 35.333 -23 58v14h78v747c0 20 7 37.167 21 51.5
s31 21.5 51 21.5h1064c20 0 37.167 -7 51.5 -21s21.5 -31.333 21.5 -52l2 -747h75z" />
    <glyph glyph-name="ampersand" unicode="&#x26;" horiz-adv-x="1186" 
d="M1185 96l-28 49l-29 -49h57zM1166 105h-19v-202h19v202zM57 96l-29 49l-28 -49h57zM38 104h-19v-201h19v201zM1073 604c0 14.667 -5.16699 27.167 -15.5 37.5s-22.833 15.5 -37.5 15.5h-853c-14.667 0 -27.167 -5.16699 -37.5 -15.5s-15.5 -22.833 -15.5 -37.5v-515
c0 -14.667 5.16699 -27.167 15.5 -37.5s22.833 -15.5 37.5 -15.5h853c14.667 0 27.167 5.16699 37.5 15.5s15.5 22.833 15.5 37.5v515zM1061 703c16 0 29.667 -5.83301 41 -17.5s17 -26.167 17 -43.5v-591c0 -16.667 -5.66699 -31 -17 -43s-25 -18 -41 -18h-935
c-16 0 -29.667 6 -41 18s-17 26.333 -17 43v591c0 17.333 5.66699 31.833 17 43.5s25 17.5 41 17.5h935v0zM764 -179c8 0 12 3.66699 12 11c0 8 -4 12 -12 12h-352c-8 0 -12 -4 -12 -12c0 -7.33301 4 -11 12 -11h352v0zM1186 -129l-0.000976562 -13
c0 -19.333 -6.66699 -36 -20 -50s-29.333 -21 -48 -21h-1049c-19.333 0 -35.666 7 -48.999 21s-20 30.667 -20 50v13h66h1051h69zM754.999 367c10 -6.66699 23.3379 -22.9941 40.0049 -48.9941c9.33301 -14 16 -25.667 20 -35c2 -16 2.16699 -30.667 0.5 -44
s-4.83398 -25.666 -9.50098 -36.999l24 -37c-10 -16.667 -26 -32.334 -48 -47.001c-24 -14.667 -47 -23 -69 -25l-35 53c-12.667 7.33301 -25.334 15.166 -38.001 23.499s-24.5 16.5 -35.5 24.5s-20.5 15.5 -28.5 22.5s-13.333 12.833 -16 17.5c-2 4 -3.66699 9.33301 -5 16
c-1.33301 5.33301 -2 12.666 -2 21.999s1 21 3 35l-54 89l-7 12c-12 18 -19.833 32.167 -23.5 42.5s-0.833984 18.5 8.49902 24.5c9.33301 5.33301 17.5 4.66602 24.5 -2.00098s16.5 -17.667 28.5 -33l62 -80c0.666992 0 1 -0.333008 1 -1l21 -32
c1.33301 -2 2.66602 -2.33301 3.99902 -1c2 1.33301 2.33301 2.66602 1 3.99902l-19 29l10 6c18 11.333 34 12 48 2l19 -30c1.33301 -2 2.66602 -2.33301 3.99902 -1c2 1.33301 2.33301 2.66602 1 3.99902l-19 29l4 3c18.667 11.333 35.334 8.66602 50.001 -8.00098l15 -23
c1.33301 -2 2.66602 -2.33301 3.99902 -1c2 1.33301 2.33301 2.66602 1 3.99902l-16 24h1c9.33301 6.66699 19.333 6.33398 30 -0.999023zM508.004 595.006c22 0 42.667 -4.16699 62 -12.5s36.166 -19.666 50.499 -33.999s25.666 -31 33.999 -50s12.5 -39.5 12.5 -61.5
s-4.16699 -42.5 -12.5 -61.5s-19.666 -35.667 -33.999 -50s-31.166 -25.666 -50.499 -33.999s-40 -12.5 -62 -12.5s-42.5 4.16699 -61.5 12.5s-35.667 19.666 -50 33.999s-25.666 31 -33.999 50s-12.5 39.5 -12.5 61.5s4.16699 42.5 12.5 61.5s19.666 35.667 33.999 50
s31 25.666 50 33.999s39.5 12.5 61.5 12.5zM508.004 274.006c22.667 0 43.834 4.33301 63.501 13s36.834 20.334 51.501 35.001s26.334 31.834 35.001 51.501s13 40.834 13 63.501s-4.33301 43.834 -13 63.501s-20.334 36.834 -35.001 51.501s-31.834 26.334 -51.501 35.001
s-40.834 13 -63.501 13c-22 0 -42.833 -4.33301 -62.5 -13s-36.834 -20.334 -51.501 -35.001s-26.334 -31.834 -35.001 -51.501s-13 -40.834 -13 -63.501s4.33301 -43.834 13 -63.501s20.334 -36.834 35.001 -51.501s31.834 -26.334 51.501 -35.001s40.5 -13 62.5 -13z
M508.004 557.006c16.667 0 32.334 -3.16699 47.001 -9.5s27.334 -15 38.001 -26s19.167 -23.667 25.5 -38s9.5 -29.833 9.5 -46.5s-3.16699 -32.167 -9.5 -46.5s-14.833 -27 -25.5 -38s-23.334 -19.667 -38.001 -26s-30.334 -9.5 -47.001 -9.5s-32.167 3.16699 -46.5 9.5
s-26.833 15 -37.5 26s-19.167 23.667 -25.5 38s-9.5 29.833 -9.5 46.5s3.16699 32.167 9.5 46.5s14.833 27 25.5 38s23.167 19.667 37.5 26s29.833 9.5 46.5 9.5zM508.004 313.006c17.333 0 33.5 3.16699 48.5 9.5s28.167 15.166 39.5 26.499s20.333 24.5 27 39.5
s10 31.167 10 48.5c0 16.667 -3.33301 32.667 -10 48s-15.667 28.5 -27 39.5s-24.5 19.833 -39.5 26.5s-31.167 10 -48.5 10s-33.5 -3.33301 -48.5 -10s-28 -15.5 -39 -26.5s-19.833 -24.167 -26.5 -39.5s-10 -31.333 -10 -48c0 -17.333 3.33301 -33.5 10 -48.5
s15.5 -28.167 26.5 -39.5s24 -20.166 39 -26.499s31.167 -9.5 48.5 -9.5zM508.004 522.006c12 0 23.167 -2.16699 33.5 -6.5s19.333 -10.333 27 -18s13.834 -16.667 18.501 -27s7 -21.5 7 -33.5s-2.33301 -23.167 -7 -33.5s-10.834 -19.333 -18.501 -27
s-16.667 -13.667 -27 -18s-21.5 -6.5 -33.5 -6.5c-23.333 0 -43.333 8.33301 -60 25s-25 36.667 -25 60s8.33301 43.333 25 60s36.667 25 60 25zM508.004 347.006c25.333 0 46.666 8.66699 63.999 26s26 38.666 26 63.999c0 24.667 -8.66699 45.834 -26 63.501
s-38.666 26.5 -63.999 26.5c-24.667 0 -45.667 -8.83301 -63 -26.5s-26 -38.834 -26 -63.501c0 -25.333 8.66699 -46.666 26 -63.999s38.333 -26 63 -26z" />
    <glyph glyph-name="quotesingle" unicode="'" horiz-adv-x="1021" 
d="M1021 517h-1017v118h1017v-118zM1020 185h-1017v119h1017v-119zM402 123h-245v246h245v-246zM1017 -139h-1017v118h1017v-118zM889 -212h-245v246h245v-246zM656 457h-246v246h246v-246zM407 -213h-246v246h246v-246z" />
    <glyph glyph-name="parenleft" unicode="(" horiz-adv-x="1423" 
d="M791 -121l-633 732h243l390 -425l390 425h242z" />
    <glyph glyph-name="parenright" unicode=")" horiz-adv-x="530" 
d="M530 245l-530 -458v176l308 282l-308 282v176z" />
    <glyph glyph-name="asterisk" unicode="*" horiz-adv-x="992" 
d="M933 69c3.33301 0 6.33301 -1.5 9 -4.5s4 -6.16699 4 -9.5c0 -9.33301 -4.33301 -14 -13 -14c-9.33301 0 -14 4.66699 -14 14c0 3.33301 1.33301 6.5 4 9.5s6 4.5 10 4.5zM933 41c3.33301 0 6.5 1.33301 9.5 4s4.5 6 4.5 10c0 3.33301 -1.5 6.5 -4.5 9.5
s-6.16699 4.5 -9.5 4.5c-4 0 -7.33301 -1.5 -10 -4.5s-4 -6.16699 -4 -9.5c0 -9.33301 4.66699 -14 14 -14zM933 41c8.66699 0 13 4.66699 13 14c0 3.33301 -1.33301 6.5 -4 9.5s-5.66699 4.5 -9 4.5c-4 0 -7.33301 -1.5 -10 -4.5s-4 -6.16699 -4 -9.5
c0 -9.33301 4.66699 -14 14 -14zM45 92h901v563h-901v-563zM958 703c9.33301 0 17.166 -3.16699 23.499 -9.5s9.5 -14.166 9.5 -23.499v-623c0 -9.33301 -3.16699 -17.166 -9.5 -23.499s-14.166 -9.5 -23.499 -9.5h-925c-9.33301 0 -17.166 3.16699 -23.499 9.5
s-9.5 14.166 -9.5 23.499v623c0 9.33301 3.16699 17.166 9.5 23.499s14.166 9.5 23.499 9.5h925v0zM534 75v-93.999c22 -2.66699 43.333 -8 64 -16c17.333 -7.33301 35.666 -17.5 54.999 -30.5s36.333 -30.167 51 -51.5h-424c8.66699 20.667 21.834 37.167 39.501 49.5
s35.5 22.166 53.5 29.499c21.333 8 44 13.667 68 17v96h93zM928 -212.999l-55.0039 0.000976562c-2 0 -3.66699 0.333008 -5 1c-3.33301 1.33301 -4.66602 3.66602 -3.99902 6.99902c0.666992 8.66699 3.33398 16.334 8.00098 23.001c4 5.33301 10.333 10.333 19 15
s21 6.66699 37 6c16 0.666992 28.333 -1.33301 37 -6s15 -9.66699 19 -15c4.66699 -6.66699 7.33398 -14.334 8.00098 -23.001c0.666992 -2.66699 -0.666016 -5 -3.99902 -7c-2 -0.666992 -3.66699 -1 -5 -1h-55v0zM350.996 -178.998c0 -2 -0.666992 -3 -2 -3h-194
c-1.33301 0 -2 1 -2 3v11c0 1.33301 0.666992 2 2 2h194c1.33301 0 2 -0.666992 2 -2v-11zM801.996 -178.998c0 -2 -0.666992 -3 -2 -3h-35c-1.33301 0 -2 1 -2 3v11c0 1.33301 0.666992 2 2 2h35c1.33301 0 2 -0.666992 2 -2v-11zM756.996 -178.998
c0 -2 -0.666992 -3 -2 -3h-35c-1.33301 0 -2 1 -2 3v11c0 1.33301 0.666992 2 2 2h35c1.33301 0 2 -0.666992 2 -2v-11zM711.996 -178.998c0 -2 -1.33301 -3 -4 -3h-55c-2 0 -3 1 -3 3v11c0 1.33301 1 2 3 2h55c2.66699 0 4 -0.666992 4 -2v-11zM633.996 -178.998
c0 -2 -0.666992 -3 -2 -3h-35c-1.33301 0 -2 1 -2 3v11c0 1.33301 0.666992 2 2 2h35c1.33301 0 2 -0.666992 2 -2v-11zM588.996 -178.998c0 -2 -1 -3 -3 -3h-34c-2 0 -3 1 -3 3v11c0 1.33301 1 2 3 2h34c2 0 3 -0.666992 3 -2v-11zM542.996 -178.998
c0 -2 -0.666992 -3 -2 -3h-35c-1.33301 0 -2 1 -2 3v11c0 1.33301 0.666992 2 2 2h35c1.33301 0 2 -0.666992 2 -2v-11zM486.996 -178.998c0 -2 -0.666992 -3 -2 -3h-35c-1.33301 0 -2 1 -2 3v11c0 1.33301 0.666992 2 2 2h35c1.33301 0 2 -0.666992 2 -2v-11z
M441.996 -178.998c0 -2 -0.666992 -3 -2 -3h-35c-1.33301 0 -2 1 -2 3v11c0 1.33301 0.666992 2 2 2h35c1.33301 0 2 -0.666992 2 -2v-11zM396.996 -178.998c0 -2 -1 -3 -3 -3h-34c-2 0 -3 1 -3 3v11c0 1.33301 1 2 3 2h34c2 0 3 -0.666992 3 -2v-11zM146.996 -178.998
c0 -2 -1 -3 -3 -3h-34c-2 0 -3 1 -3 3v11c0 1.33301 1 2 3 2h34c2 0 3 -0.666992 3 -2v-11zM100.996 -178.998c0 -2 -0.666992 -3 -2 -3h-35c-1.33301 0 -2 1 -2 3v11c0 1.33301 0.666992 2 2 2h35c1.33301 0 2 -0.666992 2 -2v-11zM55.9961 -178.998
c0 -2 -0.666992 -3 -2 -3h-35c-1.33301 0 -2 1 -2 3v11c0 1.33301 0.666992 2 2 2h35c1.33301 0 2 -0.666992 2 -2v-11zM813.996 -186.998c0 5.33301 -4.33301 8 -13 8h-788c-8.66699 0 -13 -2.66699 -13 -8v-15c0 -5.33301 4.33301 -8 13 -8h788c8.66699 0 13 2.66699 13 8
v15z" />
    <glyph glyph-name="plus" unicode="+" horiz-adv-x="604" 
d="M253 -135c-48 2.66699 -90.333 13.334 -127 32.001c-16 8 -31.5 18.167 -46.5 30.5s-28.5 27.5 -40.5 45.5s-21.5 39.167 -28.5 63.5s-10.5 52.5 -10.5 84.5c31.333 -3.33301 61.333 -9.33301 90 -18c24.667 -7.33301 49.667 -17.833 75 -31.5s46 -31.834 62 -54.501z
M317 -67c47.333 -4 90.665 0.667969 129.998 14.001c16.667 6 33.334 13.833 50.001 23.5s32.167 22.5 46.5 38.5s26.833 35.5 37.5 58.5s18.334 50.5 23.001 82.5c-32 1.33301 -62.667 -0.333984 -92 -5.00098c-25.333 -4 -51.5 -11 -78.5 -21s-49.833 -24.667 -68.5 -44z
M260.999 -212.999c-2 6.66699 -3.99902 16.168 -5.99902 28.501s-2.66699 26.666 -2 42.999s3.5 34.833 8.5 55.5s13.167 42.667 24.5 66c10 23.333 16.667 47 20 71c3.33301 20.667 3.16602 43.167 -0.500977 67.5s-14.167 47.5 -31.5 69.5zM311 703.002
c19.333 0 37 -4.5 53 -13.5s28.667 -21.167 38 -36.5c8 2 15.667 3 23 3c14 0 27.667 -2.66699 41 -8s25.333 -13.333 36 -24c13.333 -13.333 22.5 -29 27.5 -47s5.5 -35.667 1.5 -53c15.333 -9.33301 27.5 -22 36.5 -38s13.5 -33.667 13.5 -53s-4.5 -37 -13.5 -53
s-21.167 -29 -36.5 -39c4 -17.333 3.5 -34.833 -1.5 -52.5s-14.167 -33.167 -27.5 -46.5c-10.667 -11.333 -22.667 -19.5 -36 -24.5s-27 -7.5 -41 -7.5c-4 0 -7.83301 0.166992 -11.5 0.5s-7.5 0.833008 -11.5 1.5c-9.33301 -15.333 -22 -27.5 -38 -36.5
s-33.667 -13.5 -53 -13.5s-37 4.5 -53 13.5s-29 21.167 -39 36.5c-3.33301 -0.666992 -7 -1.16699 -11 -1.5s-8 -0.5 -12 -0.5c-13.333 0 -26.666 2.5 -39.999 7.5s-25.333 13.167 -36 24.5c-14 13.333 -23.333 28.833 -28 46.5s-5.33398 35.167 -2.00098 52.5
c-15.333 10 -27.5 23 -36.5 39s-13.5 33.667 -13.5 53s4.5 37 13.5 53s21.167 28.667 36.5 38c-3.33301 17.333 -2.66602 35 2.00098 53s14 33.667 28 47c10.667 10.667 22.667 18.667 36 24s26.666 8 39.999 8c8 0 15.667 -1 23 -3c10 15.333 23 27.5 39 36.5
s33.667 13.5 53 13.5zM311 666.002c-26 0 -46.332 -11.0029 -60.999 -33.0029l-13 -21l-25 5c-2.66699 0.666992 -5.16699 1.16699 -7.5 1.5s-5.16602 0.5 -8.49902 0.5c-19.333 0 -36 -7 -50 -21c-8.66699 -9.33301 -14.834 -19.666 -18.501 -30.999s-4.16699 -23 -1.5 -35
l6 -25l-22 -14c-10 -6.66699 -18 -15.334 -24 -26.001s-9 -22 -9 -34c0 -12.667 3 -24.167 9 -34.5s14 -19.166 24 -26.499l22 -13l-6 -25c-2.66699 -12 -2.16699 -23.833 1.5 -35.5s9.83398 -21.834 18.501 -30.501c12.667 -14 29.334 -21 50.001 -21
c7.33301 0 12.666 0.333008 15.999 1l25 6l13 -22c14.667 -21.333 35 -32 61 -32c12 0 23.333 2.83301 34 8.5s19.334 13.5 26.001 23.5l14 22l25 -6c3.33301 -0.666992 8.33301 -1 15 -1c20 0 37 7 51 21c8.66699 8.66699 14.667 18.834 18 30.501
s3.66602 23.5 0.999023 35.5l-5 25l21 13c22 14.667 33 35 33 61c0 12 -2.83301 23.333 -8.5 34s-13.834 19.334 -24.501 26.001l-21 14l5 25c5.33301 25.333 -1 47.333 -19 66c-15.333 14 -32.333 21 -51 21c-3.33301 0 -8.33301 -0.666992 -15 -2l-25 -5l-14 21
c-6.66699 10.667 -15.334 18.834 -26.001 24.501s-22 8.5 -34 8.5zM311.001 541.999c14.667 0 28.667 -2.83301 42 -8.5s25 -13.5 35 -23.5s17.833 -21.667 23.5 -35s8.5 -27.333 8.5 -42c0 -15.333 -2.83301 -29.5 -8.5 -42.5s-13.5 -24.5 -23.5 -34.5
s-21.667 -17.833 -35 -23.5s-27.333 -8.5 -42 -8.5c-15.333 0 -29.5 2.83301 -42.5 8.5s-24.5 13.5 -34.5 23.5s-17.833 21.5 -23.5 34.5s-8.5 27.167 -8.5 42.5c0 14.667 2.83301 28.667 8.5 42s13.5 25 23.5 35s21.5 17.833 34.5 23.5s27.167 8.5 42.5 8.5z
M311.001 503.999c-20 0 -37 -7 -51 -21s-21 -30.667 -21 -50c0 -20 7 -37 21 -51s31 -21 51 -21c19.333 0 36 7 50 21s21 31 21 51c0 19.333 -7 36 -21 50s-30.667 21 -50 21z" />
    <glyph glyph-name="comma" unicode="," 
d="M646 108c14 0 26 -5 36 -15s15 -22 15 -36s-5 -26 -15 -36s-22 -15 -36 -15s-26 5 -36 15s-15 22 -15 36s5 26 15 36s22 15 36 15zM646 328c37.333 0 72.333 -7.16699 105 -21.5s61.334 -33.666 86.001 -57.999s44 -53 58 -86s21 -68.167 21 -105.5s-7 -72.333 -21 -105
s-33.333 -61.334 -58 -86.001s-53.334 -44 -86.001 -58s-67.667 -21 -105 -21s-72.5 7 -105.5 21s-61.833 33.333 -86.5 58s-44 53.334 -58 86.001s-21 67.667 -21 105s7 72.5 21 105.5s33.333 61.667 58 86s53.5 43.666 86.5 57.999s68.167 21.5 105.5 21.5zM646 303
c-34 0 -66 -6.5 -96 -19.5s-56 -30.5 -78 -52.5s-39.5 -48 -52.5 -78s-19.5 -62 -19.5 -96s6.5 -65.833 19.5 -95.5s30.5 -55.5 52.5 -77.5s48 -39.5 78 -52.5s62 -19.5 96 -19.5s65.833 6.5 95.5 19.5s55.5 30.5 77.5 52.5s39.5 47.833 52.5 77.5s19.5 61.5 19.5 95.5
s-6.5 66 -19.5 96s-30.5 56 -52.5 78s-47.833 39.5 -77.5 52.5s-61.5 19.5 -95.5 19.5zM646 -201c35.333 0 68.666 6.83301 99.999 20.5s58.666 32.167 81.999 55.5s41.833 50.666 55.5 81.999s20.5 64.666 20.5 99.999c0 36 -6.83301 69.667 -20.5 101
s-32.167 58.666 -55.5 81.999s-50.666 41.666 -81.999 54.999s-64.666 20 -99.999 20c-36 0 -69.667 -6.66699 -101 -20s-58.666 -31.666 -81.999 -54.999s-41.666 -50.666 -54.999 -81.999s-20 -65 -20 -101c0 -35.333 6.66699 -68.666 20 -99.999
s31.666 -58.666 54.999 -81.999s50.666 -41.833 81.999 -55.5s65 -20.5 101 -20.5zM638 648c16 -2.66699 29.833 -10.667 41.5 -24s17.5 -28.333 17.5 -45v-668c0 -16.667 -5.83301 -31.667 -17.5 -45s-25.5 -21.333 -41.5 -24l-2 -1h-1l-440 -54v916l440 -54h1l2 -1v0z
M228 673l-33 -886l-195 62v792l195 62zM25 622v-754l170 -48v850z" />
    <glyph glyph-name="hyphen" unicode="-" horiz-adv-x="1092" 
d="M923 -11c9.33301 0 17 -3.16699 23 -9.5s9 -13.833 9 -22.5c0 -9.33301 -3 -17 -9 -23s-13.667 -9 -23 -9s-17 3 -23 9s-9 13.667 -9 23c0 8.66699 3 16.167 9 22.5s13.667 9.5 23 9.5zM923 126c23.333 0 45.166 -4.5 65.499 -13.5s38.166 -21.167 53.499 -36.5
s27.5 -33.166 36.5 -53.499s13.5 -42.166 13.5 -65.499s-4.5 -45.333 -13.5 -66s-21.167 -38.667 -36.5 -54s-33.166 -27.5 -53.499 -36.5s-42.166 -13.5 -65.499 -13.5s-45.333 4.5 -66 13.5s-38.667 21.167 -54 36.5s-27.5 33.333 -36.5 54s-13.5 42.667 -13.5 66
s4.5 45.166 13.5 65.499s21.167 38.166 36.5 53.499s33.333 27.5 54 36.5s42.667 13.5 66 13.5zM923 111c-21.333 0 -41.333 -4.16699 -60 -12.5s-35 -19.5 -49 -33.5s-25 -30.333 -33 -49s-12 -38.334 -12 -59.001c0 -21.333 4 -41.333 12 -60s19 -35 33 -49
s30.333 -25 49 -33s38.667 -12 60 -12s41.333 4 60 12s35 19 49 33s25 30.333 33 49s12 38.667 12 60c0 20.667 -4 40.334 -12 59.001s-19 35 -33 49s-30.333 25.167 -49 33.5s-38.667 12.5 -60 12.5zM923 -205c22 0 42.833 4.16699 62.5 12.5s36.834 19.833 51.501 34.5
s26.334 31.834 35.001 51.501s13 40.834 13 63.501c0 22 -4.33301 42.833 -13 62.5s-20.334 36.834 -35.001 51.501s-31.834 26.167 -51.501 34.5s-40.5 12.5 -62.5 12.5s-42.833 -4.16699 -62.5 -12.5s-36.834 -19.833 -51.501 -34.5s-26.334 -31.834 -35.001 -51.501
s-13 -40.5 -13 -62.5c0 -22.667 4.33301 -43.834 13 -63.501s20.334 -36.834 35.001 -51.501s31.834 -26.167 51.501 -34.5s40.5 -12.5 62.5 -12.5zM918 327c10 -1.33301 18.667 -6.16699 26 -14.5s11 -17.833 11 -28.5v-419c0 -10.667 -3.66699 -20.167 -11 -28.5
s-16 -13.5 -26 -15.5h-1h-1l-276 -34v574l276 -34h1h1v0zM661 341.999l-21 -555l-122 39v497l122 38zM533 310.999v-473l107 -30v533zM496 -26.001h-433.001c-17.333 0 -32.166 6.5 -44.499 19.5s-18.5 28.5 -18.5 46.5v11h62v594c0 16 5.66699 29.667 17 41s25 17 41 17
h846c16 0 29.5 -5.66699 40.5 -17s16.5 -25 16.5 -41l2 -527c-12.667 8.66699 -27.334 15.667 -44.001 21v3v470c0 13.333 -4.66699 24.833 -14 34.5s-20.666 14.5 -33.999 14.5h-781c-13.333 0 -24.666 -4.83301 -33.999 -14.5s-14 -21.167 -14 -34.5v-470
c0 -13.333 4.66699 -24.833 14 -34.5s20.666 -14.5 33.999 -14.5h344v-67h-120c-6.66699 0 -10 -3.33301 -10 -10c0 -7.33301 3.33301 -11 10 -11h120v-31z" />
    <glyph glyph-name="period" unicode="." horiz-adv-x="1421" 
d="M1395 529c0 8.66699 -4 13 -12 13h-266c-8 0 -12 -4.33301 -12 -13v-27c0 -8.66699 4 -13 12 -13h266c8 0 12 4.33301 12 13v27zM1249 19c8.66699 0 16 2.83301 22 8.5s9 12.834 9 21.501s-3 16 -9 22s-13.333 9 -22 9s-16 -3 -22 -9s-9 -13.333 -9 -22
s3 -15.834 9 -21.501s13.333 -8.5 22 -8.5zM1394 645c7.33301 0 13.666 -2.66699 18.999 -8s8 -11.666 8 -18.999v-698c0 -7.33301 -2.66699 -13.5 -8 -18.5s-11.666 -7.5 -18.999 -7.5h-285c-7.33301 0 -13.666 2.5 -18.999 7.5s-8 11.167 -8 18.5v698
c0 7.33301 2.66699 13.666 8 18.999s11.666 8 18.999 8h285v0zM1252 -213h-75.002c-2.66699 0 -5 0.333008 -7 1c-4 1.33301 -5.66699 4.33301 -5 9c0.666992 12 4.33398 22.333 11.001 31c5.33301 7.33301 13.833 14.166 25.5 20.499s28.5 9.16602 50.5 8.49902h-1
c21.333 0.666992 37.833 -2.16602 49.5 -8.49902s20.167 -13.166 25.5 -20.499c6.66699 -8.66699 10.334 -19 11.001 -31c0.666992 -4.66699 -1 -7.66699 -5 -9c-2 -0.666992 -4.33301 -1 -7 -1h-74h1zM473.998 -167c0 -2.66699 -1.33301 -4 -4 -4h-261
c-2 0 -3 1.33301 -3 4v14c0 2.66699 1 4 3 4h261c2.66699 0 4 -1.33301 4 -4v-14zM1082 -168c0 -2 -1 -3 -3 -3h-47c-2 0 -3 1 -3 3v15c0 2.66699 1 4 3 4h47c2 0 3 -1.33301 3 -4v-15zM1021 -168c0 -2 -1.33301 -3 -4 -3h-46c-2 0 -3 1 -3 3v15c0 2.66699 1 4 3 4h46
c2.66699 0 4 -1.33301 4 -4v-15zM958.998 -168c0 -2 -1.33301 -3 -4 -3h-74c-3.33301 0 -5 1 -5 3v15c0 2.66699 1.66699 4 5 4h74c2.66699 0 4 -1.33301 4 -4v-15zM854.998 -168c0 -2 -1.33301 -3 -4 -3h-46c-2 0 -3 1 -3 3v15c0 2.66699 1 4 3 4h46
c2.66699 0 4 -1.33301 4 -4v-15zM792.998 -168c0 -2 -1 -3 -3 -3h-47c-2 0 -3 1 -3 3v15c0 2.66699 1 4 3 4h47c2 0 3 -1.33301 3 -4v-15zM731.998 -168c0 -2 -1 -3 -3 -3h-47c-2 0 -3 1 -3 3v15c0 2.66699 1 4 3 4h47c2 0 3 -1.33301 3 -4v-15zM656.998 -168
c0 -2 -1 -3 -3 -3h-47c-2 0 -3 1 -3 3v15c0 2.66699 1 4 3 4h47c2 0 3 -1.33301 3 -4v-15zM595.998 -168c0 -2 -1 -3 -3 -3h-47c-2 0 -3 1 -3 3v15c0 2.66699 1 4 3 4h47c2 0 3 -1.33301 3 -4v-15zM534.998 -168c0 -2 -1 -3 -3 -3h-47c-2 0 -3 1 -3 3v15c0 2.66699 1 4 3 4
h47c2 0 3 -1.33301 3 -4v-15zM197.998 -168c0 -2 -1 -3 -3 -3h-47c-2 0 -3 1 -3 3v15c0 2.66699 1 4 3 4h47c2 0 3 -1.33301 3 -4v-15zM136.998 -168c0 -2 -1 -3 -3 -3h-47c-2 0 -3 1 -3 3v15c0 2.66699 1 4 3 4h47c2 0 3 -1.33301 3 -4v-15zM75.998 -168c0 -2 -1 -3 -3 -3
h-47c-2 0 -3 1 -3 3v15c0 2.66699 1 4 3 4h47c2 0 3 -1.33301 3 -4v-15zM1098 -178c0 3.33301 -1.66699 6 -5 8s-7.66602 3 -12.999 3h-1063c-4.66699 0 -8.66699 -1 -12 -3s-5 -4.66699 -5 -8v-20c0 -3.33301 1.66699 -6 5 -8s7.33301 -3 12 -3h1063
c5.33301 0 9.66602 1 12.999 3s5 4.66699 5 8v20zM979.998 77c4 0 7.33301 -1.5 10 -4.5s4 -6.16699 4 -9.5c0 -9.33301 -4.66699 -14 -14 -14c-8.66699 0 -13 4.66699 -13 14c0 3.33301 1.33301 6.5 4 9.5s5.66699 4.5 9 4.5zM979.998 49c9.33301 0 14 4.66699 14 14
s-4.66699 14 -14 14c-8.66699 0 -13 -4.66699 -13 -14s4.33301 -14 13 -14zM979.998 49c9.33301 0 14 4.66699 14 14c0 3.33301 -1.33301 6.5 -4 9.5s-6 4.5 -10 4.5c-3.33301 0 -6.33301 -1.5 -9 -4.5s-4 -6.16699 -4 -9.5c0 -9.33301 4.33301 -14 13 -14zM103.998 100h890
v555h-890v-555zM1006 703c9.33301 0 17 -3 23 -9s9 -13.667 9 -23v-616c0 -9.33301 -3 -17 -9 -23s-13.667 -9 -23 -9h-914c-9.33301 0 -17 3 -23 9s-9 13.667 -9 23v616c0 9.33301 3 17 9 23s13.667 9 23 9h914v0zM585.998 83v-93
c21.333 -3.33301 42.333 -8.66602 63 -15.999c17.333 -6.66699 35.833 -16.334 55.5 -29.001s36.5 -29.667 50.5 -51h-419c8.66699 20 21.667 36 39 48s35 21.667 53 29c20.667 7.33301 43 13 67 17v95h91z" />
    <glyph glyph-name="slash" unicode="/" horiz-adv-x="386" 
d="M357 668c0 4.66699 -1.50098 8.33301 -4.50098 11s-6.5 4 -10.5 4h-327c-10 0 -15 -5 -15 -15v-34c0 -4 1.33301 -7.5 4 -10.5s6.33398 -4.5 11.001 -4.5h327c4 0 7.5 1.5 10.5 4.5s4.5 6.5 4.5 10.5v34zM176.999 40.999c10.667 0 19.667 3.5 27 10.5s11 15.833 11 26.5
s-3.66699 19.667 -11 27s-16.333 11 -27 11c-10 0 -18.667 -3.66699 -26 -11s-11 -16.333 -11 -27s3.66699 -19.5 11 -26.5s16 -10.5 26 -10.5zM354.999 809.999c9.33301 0 17.166 -3.16699 23.499 -9.5s9.5 -14.166 9.5 -23.499v-857
c0 -9.33301 -3.16699 -17.166 -9.5 -23.499s-14.166 -9.5 -23.499 -9.5h-350c-9.33301 0 -17.333 3.16699 -24 9.5s-10 14.166 -10 23.499v857c0 9.33301 3.33301 17.166 10 23.499s14.667 9.5 24 9.5h350v0z" />
    <glyph glyph-name="zero" unicode="0" 
d="M866 703c14 0 25.833 -4.83301 35.5 -14.5s14.5 -21.5 14.5 -35.5v-662c0 -13.333 -4.83301 -24.833 -14.5 -34.5s-21.5 -14.5 -35.5 -14.5h-590l-154 -155v155h-72c-14 0 -25.833 4.83301 -35.5 14.5s-14.5 21.167 -14.5 34.5v662c-0 14 4.83301 25.833 14.5 35.5
s21.5 14.5 35.5 14.5h816v0zM866 653h-816v-662h72h49v-49v-35l70 70l15 14h20h590v662v0z" />
    <glyph glyph-name="one" unicode="1" horiz-adv-x="923" 
d="M462 703c34 0 66.167 -6.5 96.5 -19.5s56.666 -30.833 78.999 -53.5s40 -49 53 -79s19.5 -62.333 19.5 -97c0 -34 -6.5 -66.167 -19.5 -96.5s-30.667 -56.666 -53 -78.999s-48.666 -40 -78.999 -53s-62.5 -19.5 -96.5 -19.5c-34.667 0 -67.167 6.5 -97.5 19.5
s-56.666 30.667 -78.999 53s-40 48.666 -53 78.999s-19.5 62.5 -19.5 96.5c0 34.667 6.5 67 19.5 97s30.667 56.333 53 79s48.666 40.5 78.999 53.5s62.833 19.5 97.5 19.5zM462 660c-28.667 0 -55.5 -5.33301 -80.5 -16s-46.833 -25.334 -65.5 -44.001
s-33.334 -40.5 -44.001 -65.5s-16 -51.833 -16 -80.5c0 -28 5.33301 -54.5 16 -79.5s25.334 -46.833 44.001 -65.5s40.5 -33.334 65.5 -44.001s51.833 -16 80.5 -16c28 0 54.5 5.33301 79.5 16s46.833 25.334 65.5 44.001s33.334 40.5 44.001 65.5s16 51.5 16 79.5
c0 28.667 -5.33301 55.5 -16 80.5s-25.334 46.833 -44.001 65.5s-40.5 33.334 -65.5 44.001s-51.5 16 -79.5 16zM462 160c66.667 0 125.002 -7.16699 175.002 -21.5s91.833 -30.333 125.5 -48s59 -34 76 -49s26.167 -23.167 27.5 -24.5
c10.667 -11.333 19.5 -24.333 26.5 -39s12.667 -29.5 17 -44.5s7.5 -29.5 9.5 -43.5s3.33301 -26.333 4 -37c1.33301 -18 -4.33398 -33.333 -17.001 -46c-11.333 -13.333 -26.333 -20 -45 -20h-799c-18.667 0 -33.667 6.66699 -45 20c-12.667 12.667 -18.334 28 -17.001 46
c0.666992 10.667 2 23 4 37s5.16699 28.5 9.5 43.5s10 29.833 17 44.5s15.833 27.667 26.5 39c1.33301 1.33301 10.5 9.5 27.5 24.5s42.333 31.333 76 49s75.5 33.667 125.5 48s108.667 21.5 176 21.5zM462.002 116c-18 0 -37.998 -0.832031 -59.998 -2.49902
s-45.167 -4.83398 -69.5 -9.50098s-49.333 -11.167 -75 -19.5s-51.167 -19.166 -76.5 -32.499c-31.333 -16 -54.5 -30.667 -69.5 -44s-22.833 -20.333 -23.5 -21c-12 -13.333 -21.833 -31.833 -29.5 -55.5s-12.834 -50.834 -15.501 -81.501
c0 -4.66699 1.66699 -9.33398 5 -14.001c5.33301 -4 10 -6 14 -6h799c4 0 8.66699 2 14 6c3.33301 4.66699 5 9.33398 5 14.001c-2.66699 30.667 -7.83398 58 -15.501 82s-17.5 42.667 -29.5 56c-0.666992 0 -8.5 6.66699 -23.5 20s-38.167 28 -69.5 44
c-28 14.667 -65.333 29 -112 43s-102.667 21 -168 21z" />
    <glyph glyph-name="two" unicode="2" horiz-adv-x="1364" 
d="M1234 589c0 17.333 -6 31.833 -18 43.5s-26.333 17.5 -43 17.5h-981c-17.333 0 -32 -5.83301 -44 -17.5s-18 -26.167 -18 -43.5v-592c0 -17.333 6 -31.833 18 -43.5s26.667 -17.5 44 -17.5h981c16.667 0 31 5.83301 43 17.5s18 26.167 18 43.5v592zM879 -174
c8.66699 0 13 4.33301 13 13s-4.33301 13 -13 13h-406c-8.66699 0 -13 -4.33301 -13 -13s4.33301 -13 13 -13h406v0zM1364 -117v-14c0 -22.667 -7.66699 -42 -23 -58s-34 -24 -56 -24h-1206c-22 0 -40.667 8 -56 24s-23 35.333 -23 58v14h78v747c0 20 7 37.167 21 51.5
s31 21.5 51 21.5h1064c20 0 37.167 -7 51.5 -21s21.5 -31.333 21.5 -52l2 -747h75z" />
    <glyph glyph-name="three" unicode="3" horiz-adv-x="966" 
d="M922 507l-717.996 -0.99707c1.33301 -8.66699 2.5 -15.834 3.5 -21.501s3.16699 -15.834 6.5 -30.501h697l-55 -301c-0.666992 -1.33301 -2.16699 -3 -4.5 -5s-4.5 -3 -6.5 -3h-572c1.33301 -4 2.16602 -7.16699 2.49902 -9.5s0.666016 -4.5 0.999023 -6.5
s0.666016 -4.16699 0.999023 -6.5l1.5 -10.5c0 -0.666992 0.5 -3.83398 1.5 -9.50098s1.83301 -9.16699 2.5 -10.5l562 1c14.667 0 28 5 40 15s19.333 22 22 36l57 311c3.33301 14.667 0.666016 27 -8.00098 37s-20 15 -34 15zM286.004 -46.9971h586h-586zM872.004 -69.9971
h-586v46h586v-46zM872.004 -212.997c-13.333 0 -25.666 2.5 -36.999 7.5s-21.333 11.667 -30 20s-15.5 18.166 -20.5 29.499s-7.5 23.666 -7.5 36.999s2.5 25.833 7.5 37.5s11.833 21.667 20.5 30s18.667 15 30 20s23.666 7.5 36.999 7.5c12.667 0 24.834 -2.5 36.501 -7.5
s21.667 -11.667 30 -20s15 -18.333 20 -30s7.5 -24.167 7.5 -37.5s-2.5 -25.666 -7.5 -36.999s-11.667 -21.166 -20 -29.499s-18.333 -15 -30 -20s-23.834 -7.5 -36.501 -7.5v0zM872.004 -69.9971c-13.333 0 -24.833 -4.83301 -34.5 -14.5s-14.5 -21.167 -14.5 -34.5
s4.83301 -24.666 14.5 -33.999s21.167 -14 34.5 -14s24.666 4.66699 33.999 14s14 20.666 14 33.999s-4.66699 24.833 -14 34.5s-20.666 14.5 -33.999 14.5v0zM872.004 -212.997c-13.333 0 -25.666 2.5 -36.999 7.5s-21.333 11.667 -30 20s-15.5 18.166 -20.5 29.499
s-7.5 23.666 -7.5 36.999s2.5 25.833 7.5 37.5s11.833 21.667 20.5 30s18.667 15 30 20s23.666 7.5 36.999 7.5c12.667 0 24.834 -2.5 36.501 -7.5s21.667 -11.667 30 -20s15 -18.333 20 -30s7.5 -24.167 7.5 -37.5s-2.5 -25.666 -7.5 -36.999s-11.667 -21.166 -20 -29.499
s-18.333 -15 -30 -20s-23.834 -7.5 -36.501 -7.5zM872.004 -69.9971c-13.333 0 -24.833 -4.83301 -34.5 -14.5s-14.5 -21.167 -14.5 -34.5s4.83301 -24.666 14.5 -33.999s21.167 -14 34.5 -14s24.666 4.66699 33.999 14s14 20.666 14 33.999s-4.66699 24.833 -14 34.5
s-20.666 14.5 -33.999 14.5zM286.004 -212.997c-13.333 0 -25.666 2.5 -36.999 7.5s-21.166 11.667 -29.499 20s-15 18.166 -20 29.499s-7.5 23.666 -7.5 36.999s2.5 25.833 7.5 37.5s11.667 21.667 20 30s18.166 15 29.499 20s23.666 7.5 36.999 7.5
c12.667 0 24.834 -2.5 36.501 -7.5s21.834 -11.667 30.501 -20s15.5 -18.333 20.5 -30s7.5 -24.167 7.5 -37.5s-2.5 -25.666 -7.5 -36.999s-11.833 -21.166 -20.5 -29.499s-18.834 -15 -30.501 -20s-23.834 -7.5 -36.501 -7.5v0zM286.004 -69.9971
c-13.333 0 -24.666 -4.83301 -33.999 -14.5s-14 -21.167 -14 -34.5s4.66699 -24.666 14 -33.999s20.666 -14 33.999 -14s24.833 4.66699 34.5 14s14.5 20.666 14.5 33.999s-4.83301 24.833 -14.5 34.5s-21.167 14.5 -34.5 14.5v0zM286.004 -212.997
c-13.333 0 -25.666 2.5 -36.999 7.5s-21.166 11.667 -29.499 20s-15 18.166 -20 29.499s-7.5 23.666 -7.5 36.999s2.5 25.833 7.5 37.5s11.667 21.667 20 30s18.166 15 29.499 20s23.666 7.5 36.999 7.5c12.667 0 24.834 -2.5 36.501 -7.5s21.834 -11.667 30.501 -20
s15.5 -18.333 20.5 -30s7.5 -24.167 7.5 -37.5s-2.5 -25.666 -7.5 -36.999s-11.833 -21.166 -20.5 -29.499s-18.834 -15 -30.501 -20s-23.834 -7.5 -36.501 -7.5zM286.004 -69.9971c-13.333 0 -24.666 -4.83301 -33.999 -14.5s-14 -21.167 -14 -34.5
s4.66699 -24.666 14 -33.999s20.666 -14 33.999 -14s24.833 4.66699 34.5 14s14.5 20.666 14.5 33.999s-4.83301 24.833 -14.5 34.5s-21.167 14.5 -34.5 14.5zM264.004 -50.9971l-136 708h-128v46h166l143 -746z" />
    <glyph glyph-name="four" unicode="4" horiz-adv-x="922" 
d="M813 -112h-702v703h702v-703zM758 -57h-585v586h585v-586zM707 -12h-486v485h486v-485zM276 620h-72v83h72v-83zM369 618h-72v83h72v-83zM462 618h-72v83h72v-83zM554 619h-72v83h72v-83zM647 620h-72v83h72v-83zM740 620h-73v83h73v-83zM836 429v73h82v-73h-82zM837 336
v73h82v-73h-82zM837 243v73h82v-73h-82zM838 151v73h83v-73h-83zM839 58v73h83v-73h-83zM836 -35v73h82v-73h-82zM1 432v72h83v-72h-83zM2 339v72h83v-72h-83zM2 246v72h83v-72h-83zM0 154v72h83v-72h-83zM1 61v72h83v-72h-83zM1 -32v72h83v-72h-83zM265 -211h-73v83h73v-83
zM358 -213h-73v83h73v-83zM451 -213h-73v83h73v-83zM542 -212h-72v83h72v-83zM635 -211h-72v83h72v-83zM728 -211h-72v83h72v-83z" />
    <glyph glyph-name="five" unicode="5" 
d="M826 -182c0 -8.66699 -3 -16 -9 -22s-13.333 -9 -22 -9h-674c-8.66699 0 -16 3 -22 9s-9 13.333 -9 22v854c0 8.66699 3 16 9 22s13.333 9 22 9h674c8.66699 0 16 -3 22 -9s9 -13.333 9 -22v-854zM916 539h-144v73h144v-73zM916 407h-144v73h144v-73zM916 275h-144v72
h144v-72zM916 143h-144v72h144v-72zM916 11h-144v72h144v-72zM916 -122h-144v73h144v-73zM144 539h-144v73h144v-73zM144 407h-144v73h144v-73zM144 275h-144v72h144v-72zM144 143h-144v72h144v-72zM144 11h-144v72h144v-72zM144 -122h-144v73h144v-73zM207 471h65
c20 0 35 -5 45 -15c8 -8 12 -18.667 12 -32v-1c0 -10.667 -2.5 -19.5 -7.5 -26.5s-11.833 -12.167 -20.5 -15.5l33 -49h-44l-28 42h-17v-42h-38v139zM271 404c13.333 0 20 5.66699 20 17s-7 17 -21 17h-25v-34h26zM414 472h37l58 -140h-41l-10 25h-53l-10 -25h-40zM447 387
l-15 39l-16 -39h31zM543 471h40l33 -54l33 54h40v-139h-38v80l-35 -54h-1l-35 54v-80h-37v139z" />
    <glyph glyph-name="six" unicode="6" horiz-adv-x="648" 
d="M331 418c14 0 26 -5 36 -15s15 -22 15 -36s-5 -26 -15 -36s-22 -15 -36 -15c-14.667 0 -27 5 -37 15s-15 22 -15 36s5 26 15 36s22.333 15 37 15zM234 466c9.33301 -16 11.667 -26.332 7 -30.999s-15 -2.33398 -31 6.99902l-103 59l-10 6
c-16 9.33301 -25.167 21.833 -27.5 37.5s3.16699 30.167 16.5 43.5l2 2c13.333 13.333 27.833 18.833 43.5 16.5s28.167 -11.5 37.5 -27.5l4 -7l61 -106v0zM330.001 94.001c36.667 0 71 6.83301 103 20.5s60 32.5 84 56.5s43 52 57 84s21 66.333 21 103s-7 71.167 -21 103.5
s-33 60.5 -57 84.5s-52 42.833 -84 56.5s-66.333 20.5 -103 20.5c-45.333 0 -87 -10.333 -125 -31l-3 6c-8.66699 14.667 -19.834 26.167 -33.501 34.5s-28.167 12.5 -43.5 12.5c-24 0 -45.333 -9.33301 -64 -28l-2 -2c-21.333 -22 -30.333 -47 -27 -75
c4 -28.667 19.333 -50.667 46 -66l11 -6c-7.33301 -16.667 -13.166 -34.167 -17.499 -52.5s-6.5 -37.5 -6.5 -57.5c0 -36.667 7 -71 21 -103s33 -60 57 -84s52 -42.833 84 -56.5s66.333 -20.5 103 -20.5zM546.001 703.001h33c19.333 0 35.666 -6.5 48.999 -19.5
s20 -28.833 20 -47.5v-782c0 -18.667 -6.66699 -34.5 -20 -47.5s-29.666 -19.5 -48.999 -19.5h-53h-276h-182c-18.667 0 -34.667 6.5 -48 19.5s-20 28.833 -20 47.5v782c0 18.667 6.66699 34.5 20 47.5s29.333 19.5 48 19.5h388h90z" />
    <glyph glyph-name="seven" unicode="7" horiz-adv-x="648" 
d="M579 703c19.333 0 35.666 -6.5 48.999 -19.5s20 -28.833 20 -47.5v-782c0 -18.667 -6.66699 -34.5 -20 -47.5s-29.666 -19.5 -48.999 -19.5h-53h-276h-182c-18.667 0 -34.667 6.5 -48 19.5s-20 28.833 -20 47.5v782c0 18.667 6.66699 34.5 20 47.5s29.333 19.5 48 19.5
h388h90h33v0zM579 684h-33h-90h-388c-13.333 0 -24.833 -4.66699 -34.5 -14s-14.5 -20.666 -14.5 -33.999v-782c0 -13.333 4.83301 -24.666 14.5 -33.999s21.167 -14 34.5 -14h182h276h53c14 0 25.833 4.66699 35.5 14s14.5 20.666 14.5 33.999v782
c0 13.333 -4.83301 24.666 -14.5 33.999s-21.5 14 -35.5 14zM331 418c14 0 26 -5 36 -15s15 -22 15 -36s-5 -26 -15 -36s-22 -15 -36 -15c-14.667 0 -27 5 -37 15s-15 22 -15 36s5 26 15 36s22.333 15 37 15zM234 466c9.33301 -16 11.667 -26.332 7 -30.999
s-15 -2.33398 -31 6.99902l-103 59l-10 6c-16 9.33301 -25.167 21.833 -27.5 37.5s3.16699 30.167 16.5 43.5l2 2c13.333 13.333 27.833 18.833 43.5 16.5s28.167 -11.5 37.5 -27.5l4 -7l61 -106v0zM330.001 94.001c36.667 0 71 6.83301 103 20.5s60 32.5 84 56.5
s43 52 57 84s21 66.333 21 103s-7 71.167 -21 103.5s-33 60.5 -57 84.5s-52 42.833 -84 56.5s-66.333 20.5 -103 20.5c-45.333 0 -87 -10.333 -125 -31l-3 6c-8.66699 14.667 -19.834 26.167 -33.501 34.5s-28.167 12.5 -43.5 12.5c-24 0 -45.333 -9.33301 -64 -28l-2 -2
c-21.333 -22 -30.333 -47 -27 -75c4 -28.667 19.333 -50.667 46 -66l11 -6c-7.33301 -16.667 -13.166 -34.167 -17.499 -52.5s-6.5 -37.5 -6.5 -57.5c0 -36.667 7 -71 21 -103s33 -60 57 -84s52 -42.833 84 -56.5s66.333 -20.5 103 -20.5z" />
    <glyph glyph-name="eight" unicode="8" horiz-adv-x="1364" 
d="M867 312c5.33301 -4.66699 12.002 -11.5029 20.002 -20.5029s16.667 -21.167 26 -36.5c11.333 -16.667 19.333 -30 24 -40c3.33301 -38 -0.333984 -69.333 -11.001 -94l28 -42c-12.667 -20 -31 -37.667 -55 -53c-27.333 -17.333 -54 -27 -80 -29l-40 61
c-14.667 8.66699 -29.334 17.834 -44.001 27.501s-28.167 19 -40.5 28s-23 17.333 -32 25s-15.167 14.167 -18.5 19.5c-2.66699 4.66699 -4.66699 10.667 -6 18c-1.33301 6.66699 -2 15.5 -2 26.5s1 24.5 3 40.5l-62 102l-9 13c-13.333 20.667 -22.166 37 -26.499 49
s-0.833008 21.667 10.5 29c10 6 19.167 5 27.5 -3s19.5 -21 33.5 -39l71 -91l1 -1l24 -37c0.666992 -2 2.33398 -2.33301 5.00098 -1c2 0.666992 2.33301 2.33398 1 5.00098l-22 33l11 7c20 12.667 38.333 13.334 55 2.00098l23 -34c1.33301 -2 2.66602 -2.33301 3.99902 -1
c2 1.33301 2.33301 2.66602 1 3.99902l-22 34l5 3c20.667 14 39.667 11 57 -9l18 -27c1.33301 -2 2.66602 -2.33301 3.99902 -1c2 0.666992 2.33301 2.33398 1 5.00098l-18 27l1 1c12 7.33301 23.333 7 34 -1zM584.002 572.997c25.333 0 49 -4.66699 71 -14
s41.333 -22.333 58 -39s29.667 -36 39 -58s14 -45.667 14 -71s-4.66699 -48.833 -14 -70.5s-22.333 -40.834 -39 -57.501s-36 -29.667 -58 -39s-45.667 -14 -71 -14s-48.833 4.66699 -70.5 14s-40.834 22.333 -57.501 39s-29.667 35.834 -39 57.501s-14 45.167 -14 70.5
s4.66699 49 14 71s22.333 41.333 39 58s35.834 29.667 57.501 39s45.167 14 70.5 14zM584.002 204.997c26 0 50.333 4.83301 73 14.5s42.5 23 59.5 40s30.333 36.667 40 59s14.5 46.5 14.5 72.5s-4.83301 50.333 -14.5 73s-23 42.5 -40 59.5s-36.833 30.333 -59.5 40
s-47 14.5 -73 14.5s-50.167 -4.83301 -72.5 -14.5s-42 -23 -59 -40s-30.333 -36.833 -40 -59.5s-14.5 -47 -14.5 -73s4.83301 -50.167 14.5 -72.5s23 -42 40 -59s36.667 -30.333 59 -40s46.5 -14.5 72.5 -14.5zM584.002 528.997c18.667 0 36.5 -3.66699 53.5 -11
s31.667 -17.166 44 -29.499s22.166 -27 29.499 -44s11 -34.833 11 -53.5s-3.66699 -36.334 -11 -53.001s-17.166 -31.167 -29.499 -43.5s-27 -22.166 -44 -29.499s-34.833 -11 -53.5 -11s-36.334 3.66699 -53.001 11s-31.167 17.166 -43.5 29.499
s-22.166 26.833 -29.499 43.5s-11 34.334 -11 53.001s3.66699 36.5 11 53.5s17.166 31.667 29.499 44s26.833 22.166 43.5 29.499s34.334 11 53.001 11zM584.002 248.997c20 0 38.667 3.66699 56 11s32.5 17.5 45.5 30.5s23.167 28.167 30.5 45.5s11 35.666 11 54.999
c0 20 -3.66699 38.667 -11 56s-17.5 32.5 -30.5 45.5s-28.167 23.167 -45.5 30.5s-36 11 -56 11c-19.333 0 -37.666 -3.66699 -54.999 -11s-32.5 -17.5 -45.5 -30.5s-23.167 -28.167 -30.5 -45.5s-11 -36 -11 -56c0 -19.333 3.66699 -37.666 11 -54.999
s17.5 -32.5 30.5 -45.5s28.167 -23.167 45.5 -30.5s35.666 -11 54.999 -11zM584.002 488.997c27.333 0 50.5 -9.5 69.5 -28.5s28.5 -42.167 28.5 -69.5s-9.5 -50.333 -28.5 -69s-42.167 -28 -69.5 -28c-13.333 0 -25.833 2.5 -37.5 7.5s-22 11.833 -31 20.5s-16 19 -21 31
s-7.5 24.667 -7.5 38s2.5 26 7.5 38s12 22.5 21 31.5s19.333 16 31 21s24.167 7.5 37.5 7.5zM584.002 287.997c14 0 27.333 2.66699 40 8s23.667 12.833 33 22.5s16.666 20.667 21.999 33s8 25.5 8 39.5s-2.66699 27.333 -8 40s-12.666 23.667 -21.999 33
s-20.333 16.666 -33 21.999s-26 8 -40 8s-27.167 -2.66699 -39.5 -8s-23.333 -12.666 -33 -21.999s-17.167 -20.333 -22.5 -33s-8 -26 -8 -40s2.66699 -27.167 8 -39.5s12.833 -23.333 22.5 -33s20.667 -17.167 33 -22.5s25.5 -8 39.5 -8zM1234 588.997
c0 17.333 -6 31.833 -18 43.5s-26.333 17.5 -43 17.5h-981c-17.333 0 -32 -5.83301 -44 -17.5s-18 -26.167 -18 -43.5v-592c0 -17.333 6 -31.833 18 -43.5s26.667 -17.5 44 -17.5h981c16.667 0 31 5.83301 43 17.5s18 26.167 18 43.5v592zM879.002 -174.003
c8.66699 0 13 4.33301 13 13s-4.33301 13 -13 13h-406c-8.66699 0 -13 -4.33301 -13 -13s4.33301 -13 13 -13h406v0zM1364 -117.003v-14c0 -22.667 -7.66699 -42 -23 -58s-34 -24 -56 -24h-1206c-22 0 -40.667 8 -56 24s-23 35.333 -23 58v14h78v747c0 20 7 37.167 21 51.5
s31 21.5 51 21.5h1064c20 0 37.167 -7 51.5 -21s21.5 -31.333 21.5 -52l2 -747h75z" />
    <glyph glyph-name="nine" unicode="9" horiz-adv-x="1428" 
d="M154 63l-0.000976562 379.999c0 11.333 2 21 6 29s9.16699 14.5 15.5 19.5s13.166 8.5 20.499 10.5s14 3 20 3h822c11.333 0 20.833 -2 28.5 -6s14 -9.16699 19 -15.5s8.66699 -13.166 11 -20.499s3.5 -14 3.5 -20v-48h5c11.333 0 21 -2 29 -6s14.5 -9.16699 19.5 -15.5
s8.5 -13.166 10.5 -20.499s3 -14 3 -20v-163c0 -11.333 -2 -21 -6 -29s-9.16699 -14.5 -15.5 -19.5s-13.166 -8.5 -20.499 -10.5s-14 -3 -20 -3h-5v-45c0 -11.333 -2 -20.833 -6 -28.5s-9.16699 -14 -15.5 -19s-13.166 -8.66699 -20.499 -11s-14 -3.5 -20 -3.5h-822
c-11.333 0 -20.833 2 -28.5 6s-14 9.16699 -19 15.5s-8.66699 13.166 -11 20.499s-3.5 14 -3.5 20v0zM1057 442.999c0 12.667 -6.33301 19 -19 19h-788c-12.667 0 -19 -6.33301 -19 -19v-380c0 -12.667 6.33301 -19 19 -19h788c12.667 0 19 6.33301 19 19v87h48
c13.333 0 20 6.66699 20 20v163c0 13.333 -6.66699 20 -20 20h-48v90zM1136 372.999h-79v-240h79v240zM284.999 34.999h145v441h-145v-441zM477.999 33.999h144v441h-144v-441zM663.999 33.999h145v441h-145v-441zM855.999 32.999h145v442h-145v-442z" />
    <glyph glyph-name="colon" unicode=":" horiz-adv-x="783" 
d="M499 594c8 -1.33301 14.8301 -5.16699 20.4971 -11.5s6.16699 -14.166 1.5 -23.499c-2 -5.33301 -5.66699 -10.5 -11 -15.5l-16 -14.5l-44 -42.5l-43 -43.5c-51.333 -55.333 -97.166 -115 -137.499 -179s-76.833 -132.667 -109.5 -206
c-3.33301 -6.66699 -6 -13.5 -8 -20.5s-4.66699 -13.5 -8 -19.5c-1.33301 -2 -2.5 -3.83301 -3.5 -5.5s-3.83301 -3.16699 -8.5 -4.5c0.666992 0 -0.666016 0 -3.99902 0s-6 1 -8 3c-3.33301 2.66699 -6.16602 6.16699 -8.49902 10.5s-4.83301 8.16602 -7.5 11.499l-38.5 64
c-13 20.667 -26.833 41 -41.5 61c-28.667 40 -61.334 75.667 -98.001 107l-7.5 7.5c-2.33301 2.33301 -4.16602 5.16602 -5.49902 8.49902c-0.666992 2.66699 -0.833984 5.33398 -0.500977 8.00098s0.5 3.66699 0.5 3c1.33301 10 5.33301 16.833 12 20.5
s14.5 5.66699 23.5 6s18.333 -0.5 28 -2.5s18.167 -4.33301 25.5 -7c19.333 -6.66699 38.333 -14.5 57 -23.5l53 -25.5l127 138c42.667 45.333 88 88.333 136 129c16 13.333 32.833 26.333 50.5 39s37.834 21.667 60.501 27c3.33301 1.33301 6 1.83301 8 1.5
s3.66699 -0.5 5 -0.5z" />
    <glyph glyph-name="semicolon" unicode=";" horiz-adv-x="872" 
d="M853 450c0 -14.667 -2.83301 -28.334 -8.5 -41.001s-13.167 -23.834 -22.5 -33.501s-20.333 -17.167 -33 -22.5s-26.334 -8 -41.001 -8s-28.334 2.66699 -41.001 8s-23.834 12.833 -33.501 22.5s-17.167 20.834 -22.5 33.501s-8 26.334 -8 41.001
s2.66699 28.334 8 41.001s12.833 23.667 22.5 33s20.834 16.833 33.501 22.5s26.334 8.5 41.001 8.5s28.334 -2.83301 41.001 -8.5s23.667 -13.167 33 -22.5s16.833 -20.333 22.5 -33s8.5 -26.334 8.5 -41.001zM541 101c0 -14.667 -2.83301 -28.334 -8.5 -41.001
s-13.167 -23.834 -22.5 -33.501s-20.333 -17.167 -33 -22.5s-26.334 -8 -41.001 -8s-28.334 2.66699 -41.001 8s-23.834 12.833 -33.501 22.5s-17.167 20.834 -22.5 33.501s-8 26.334 -8 41.001s2.66699 28.334 8 41.001s12.833 23.667 22.5 33s20.834 16.833 33.501 22.5
s26.334 8.5 41.001 8.5s28.334 -2.83301 41.001 -8.5s23.667 -13.167 33 -22.5s16.833 -20.333 22.5 -33s8.5 -26.334 8.5 -41.001zM229 291c0 -14.667 -2.83301 -28.334 -8.5 -41.001s-13.167 -23.834 -22.5 -33.501s-20.333 -17.167 -33 -22.5s-26.334 -8 -41.001 -8
s-28.334 2.66699 -41.001 8s-23.834 12.833 -33.501 22.5s-17.167 20.834 -22.5 33.501s-8 26.334 -8 41.001s2.66699 28.334 8 41.001s12.833 23.667 22.5 33s20.834 16.833 33.501 22.5s26.334 8.5 41.001 8.5s28.334 -2.83301 41.001 -8.5s23.667 -13.167 33 -22.5
s16.833 -20.333 22.5 -33s8.5 -26.334 8.5 -41.001zM748 326c17.333 0 33.5 3.33301 48.5 10s28.167 15.5 39.5 26.5s20.166 24 26.499 39s9.5 31.167 9.5 48.5c0 16.667 -3.16699 32.5 -9.5 47.5s-15.166 28.167 -26.499 39.5s-24.5 20.166 -39.5 26.499
s-31.167 9.5 -48.5 9.5s-33.333 -3.16699 -48 -9.5s-27.667 -15.166 -39 -26.499s-20.166 -24.5 -26.499 -39.5s-9.5 -30.833 -9.5 -47.5c0 -17.333 3.16699 -33.5 9.5 -48.5s15.166 -28 26.499 -39s24.333 -19.833 39 -26.5s30.667 -10 48 -10zM436 -23
c16.667 0 32.667 3.16699 48 9.5s28.5 15.166 39.5 26.499s19.833 24.5 26.5 39.5s10 31.167 10 48.5c0 16.667 -3.33301 32.5 -10 47.5s-15.5 28.167 -26.5 39.5s-24.167 20.166 -39.5 26.499s-31.333 9.5 -48 9.5c-17.333 0 -33.5 -3.16699 -48.5 -9.5
s-28 -15.166 -39 -26.499s-19.833 -24.5 -26.5 -39.5s-10 -30.833 -10 -47.5c0 -17.333 3.33301 -33.5 10 -48.5s15.5 -28.167 26.5 -39.5s24 -20.166 39 -26.499s31.167 -9.5 48.5 -9.5zM124 168c16.667 0 32.5 3.16699 47.5 9.5s28.167 15.166 39.5 26.499
s20.166 24.333 26.499 39s9.5 30.667 9.5 48c0 16.667 -3.16699 32.667 -9.5 48s-15.166 28.5 -26.499 39.5s-24.5 19.833 -39.5 26.5s-30.833 10 -47.5 10c-17.333 0 -33.5 -3.33301 -48.5 -10s-28.167 -15.5 -39.5 -26.5s-20.166 -24.167 -26.499 -39.5
s-9.5 -31.333 -9.5 -48c0 -17.333 3.16699 -33.333 9.5 -48s15.166 -27.667 26.499 -39s24.5 -20.166 39.5 -26.499s31.167 -9.5 48.5 -9.5zM748 703c16 0 29.667 -5.66699 41 -17s17 -24.666 17 -39.999v-168c0 -15.333 -5.66699 -28.666 -17 -39.999s-25 -17 -41 -17
c-15.333 0 -28.666 5.66699 -39.999 17s-17 24.666 -17 39.999v168c0 15.333 5.66699 28.666 17 39.999s24.666 17 39.999 17zM748 684c-10.667 0 -19.667 -3.66699 -27 -11s-11 -16.333 -11 -27v-168c0 -10.667 3.66699 -19.667 11 -27s16.333 -11 27 -11
c11.333 0 20.666 3.66699 27.999 11s11 16.333 11 27v168c0 10.667 -3.66699 19.667 -11 27s-16.666 11 -27.999 11zM436 703c16 0 29.5 -5.66699 40.5 -17s16.5 -24.666 16.5 -39.999v-532c0 -16 -5.5 -29.5 -16.5 -40.5s-24.5 -16.5 -40.5 -16.5s-29.5 5.5 -40.5 16.5
s-16.5 24.5 -16.5 40.5v532c0 15.333 5.5 28.666 16.5 39.999s24.5 17 40.5 17zM436 684c-10.667 0 -19.834 -3.66699 -27.501 -11s-11.5 -16.333 -11.5 -27v-532c0 -10.667 3.83301 -19.834 11.5 -27.501s16.834 -11.5 27.501 -11.5s19.834 3.83301 27.501 11.5
s11.5 16.834 11.5 27.501v532c0 10.667 -3.83301 19.667 -11.5 27s-16.834 11 -27.501 11zM124 703c15.333 0 28.666 -5.66699 39.999 -17s17 -24.666 17 -39.999v-326c0 -16 -5.66699 -29.5 -17 -40.5s-24.666 -16.5 -39.999 -16.5c-16 0 -29.667 5.5 -41 16.5
s-17 24.5 -17 40.5v326c0 15.333 5.66699 28.666 17 39.999s25 17 41 17zM124 684c-11.333 0 -20.666 -3.66699 -27.999 -11s-11 -16.333 -11 -27v-326c0 -10.667 3.66699 -19.834 11 -27.501s16.666 -11.5 27.999 -11.5c10.667 0 19.667 3.83301 27 11.5
s11 16.834 11 27.501v326c0 10.667 -3.66699 19.667 -11 27s-16.333 11 -27 11zM748 493c16 0 29.667 -5.66699 41 -17s17 -25 17 -41v-591c0 -15.333 -5.66699 -28.666 -17 -39.999s-25 -17 -41 -17c-15.333 0 -28.666 5.66699 -39.999 17s-17 24.666 -17 39.999v591
c0 16 5.66699 29.667 17 41s24.666 17 39.999 17zM436 139c16 0 29.5 -5.66699 40.5 -17s16.5 -24.666 16.5 -39.999v-238c0 -15.333 -5.5 -28.666 -16.5 -39.999s-24.5 -17 -40.5 -17s-29.5 5.66699 -40.5 17s-16.5 24.666 -16.5 39.999v238
c0 15.333 5.5 28.666 16.5 39.999s24.5 17 40.5 17zM124 357c15.333 0 28.666 -5.5 39.999 -16.5s17 -24.5 17 -40.5v-456c0 -15.333 -5.66699 -28.666 -17 -39.999s-24.666 -17 -39.999 -17c-16 0 -29.667 5.66699 -41 17s-17 24.666 -17 39.999v456
c0 16 5.66699 29.5 17 40.5s25 16.5 41 16.5z" />
    <glyph glyph-name="less" unicode="&#x3c;" horiz-adv-x="797" 
d="M50 100c-25.333 24.667 -40.999 54.1641 -46.999 88.4971s-3 70.833 9 109.5s32.667 78.334 62 119.001s66 80 110 118v-12.5v-24c0 -9 0.166992 -18.167 0.5 -27.5s0.5 -17 0.5 -23c-26 -30 -47 -60.667 -63 -92s-28 -62 -36 -92s-12 -59 -12 -87
s3.33301 -53.667 10 -77c29.333 -20 63.333 -30.333 102 -31c7.33301 1.33301 16 2.5 26 3.5s20.667 2.16699 32 3.5v1l12 3c27.333 6.66699 56.333 17.334 87 32.001l-23.5 15c-7.66699 4.66699 -15.167 9.66699 -22.5 15h1l-11 28c32 6.66699 61.333 13.667 88 21
s52.5 14.833 77.5 22.5l75 24l80.5 27.5l2 -2l-1 -1c-0.666992 -0.666992 -1 -1.33398 -1 -2.00098c0.666992 0 1 0.333008 1 1s0.333008 1.33398 1 2.00098c-23.333 -50 -48 -99.5 -74 -148.5s-54 -97.5 -84 -145.5h-1l-15.5 31.5l-15.5 31.5
c-7.33301 -4 -15 -7.33301 -23 -10l-47 -21.5c-16 -7 -32.5 -12.833 -49.5 -17.5s-34.833 -7.16699 -53.5 -7.5s-38 2.83398 -58 9.50098l-12 6l-9 3.5c-2.66699 1 -4.33398 1.83301 -5.00098 2.5c-3.33301 2 -6.5 4 -9.5 6s-6.16699 4.33301 -9.5 7
c-2 1.33301 -4 2.83301 -6 4.5s-4 3.5 -6 5.5l-82 80v0zM747.001 639.997c0.666992 0 1.00098 -0.331055 1.00098 -0.998047l-5 5c1.33301 -0.666992 2.16602 -1.33398 2.49902 -2.00098s0.833008 -1.33398 1.5 -2.00098zM743.002 643.999c0 0.666992 -0.333008 1 -1 1z
M761.002 619.999l3 -6zM769.002 600.999c0 0.666992 -0.666992 3 -2 7c1.33301 -4 2 -6.33301 2 -7zM774.002 585.999c-0.666992 1.33301 -1 2.5 -1 3.5s-0.333008 2.16699 -1 3.5c0.666992 -1.33301 1 -2.5 1 -3.5s0.333008 -2.16699 1 -3.5zM778.002 569.999
c-0.666992 1.33301 -1 2.66602 -1 3.99902s-0.333008 2.66602 -1 3.99902c0.666992 -1.33301 1 -2.66602 1 -3.99902s0.333008 -2.66602 1 -3.99902zM781.002 553.999c-0.666992 1.33301 -1 2.66602 -1 3.99902s-0.333008 2.66602 -1 3.99902
c0.666992 -1.33301 1 -2.66602 1 -3.99902s0.333008 -2.66602 1 -3.99902zM783.002 536.999c-0.666992 2 -1 4.66699 -1 8c0 -3.33301 0.333008 -6 1 -8zM784.002 519.999c-0.666992 2 -1 4.66699 -1 8c0 -3.33301 0.333008 -6 1 -8zM757.002 625.999
c-1.33301 2.66699 -2.66602 4.66699 -3.99902 6c1.33301 -1.33301 2.66602 -3.33301 3.99902 -6zM783.002 493.999v-9v9zM784.002 510.999v-9v9zM777.002 443.999c0 -2 -0.666992 -5 -2 -9c1.33301 4 2 7 2 9zM780.002 459.999c0 -1.33301 -0.166992 -2.83301 -0.5 -4.5
s-0.5 -3.16699 -0.5 -4.5c0 1.33301 0.166992 2.83301 0.5 4.5s0.5 3.16699 0.5 4.5zM782.002 476.999c0 -4 -0.333008 -7 -1 -9c0.666992 2 1 5 1 9zM770.002 418.999l3 9zM769.002 413.999c-1.33301 -2.66699 -2.33301 -5.00098 -3 -7.00098s-1.66699 -4.33301 -3 -7
c6.66699 14 11.667 30 15 48s5 36.5 5 55.5s-1.83301 37.833 -5.5 56.5s-8.83398 35.667 -15.501 51c-23.333 30.667 -59 50.834 -107 60.501s-105 3.16699 -171 -19.5h-100c-8.66699 0 -14.334 0.333008 -17.001 1c37.333 16.667 74.333 29.334 111 38.001
s71.334 12.667 104.001 12s62.667 -5.83398 90 -15.501s51 -24.167 71 -43.5c2.66699 -2.66699 4.66699 -5 6 -7c0 0.666992 -0.333008 1.33398 -1 2.00098l21 -26.5c9.33301 -11.667 15.666 -22.167 18.999 -31.5c2 -5.33301 4 -13.333 6 -24s2.83301 -24 2.5 -40
s-3.16602 -34.333 -8.49902 -55s-14.666 -43.334 -27.999 -68.001l3 6c1.33301 2.66699 2.33301 5 3 7s1.66699 4.33301 3 7zM624.002 530.998c0 5.33301 -1.66895 9.83301 -5.00195 13.5s-7.33301 5.5 -12 5.5h-200c-1.33301 0 -2.5 0.166992 -3.5 0.5
s-2.16699 0.5 -3.5 0.5s-2.66602 -0.166992 -3.99902 -0.5s-2.66602 -0.5 -3.99902 -0.5h-106c-11.333 0 -17 -6.33301 -17 -19v-574c0 -5.33301 1.5 -9.83301 4.5 -13.5s7.16699 -5.5 12.5 -5.5h321c4.66699 0 8.66699 1.83301 12 5.5s5 8.16699 5 13.5v574zM522 -125.002
c0 5.33301 -1.5 9.66602 -4.5 12.999s-6.83301 5 -11.5 5h-120c-4 0 -7.5 -1.66699 -10.5 -5s-4.5 -7.66602 -4.5 -12.999v-23c0 -5.33301 1.5 -9.66602 4.5 -12.999s6.5 -5 10.5 -5h120c4.66699 0 8.5 1.66699 11.5 5s4.5 7.66602 4.5 12.999v23zM602 614.998
c10.667 -1.33301 20.667 -4.83203 30 -10.499s17.5 -13 24.5 -22s12.5 -19.167 16.5 -30.5s6 -23 6 -35v-626c0 -12 -2 -23.667 -6 -35s-9.5 -21.5 -16.5 -30.5s-15.167 -16.5 -24.5 -22.5s-19.333 -9.33301 -30 -10c-52 -4.66699 -103.833 -6.83398 -155.5 -6.50098
s-103.5 2.5 -155.5 6.5c-10.667 0.666992 -20.834 4 -30.501 10s-18 13.5 -25 22.5s-12.5 19.167 -16.5 30.5s-6 23 -6 35v626c0 12 2 23.667 6 35s9.5 21.5 16.5 30.5s15.333 16.333 25 22s19.834 9.16699 30.501 10.5c103.333 9.33301 207 9.33301 311 0z" />
    <glyph glyph-name="equal" unicode="=" horiz-adv-x="749" 
d="M10 710l665 -366l-665 -367v733z" />
    <glyph glyph-name="greater" unicode="&#x3e;" horiz-adv-x="519" 
d="M31 549l296 -303l6 -23h1l-6 22l317 304h200l-467 -467l-48 -47l-40 47l-450 467h191z" />
    <glyph glyph-name="question" unicode="?" horiz-adv-x="519" 
d="M79 33l303 306l23 6v1l-22 -6l-304 327v190l467 -467l47 -48l-47 -40l-467 -450v181z" />
    <glyph glyph-name="at" unicode="@" 
d="M458 -196c60.667 0 117.834 11.5 171.501 34.5s100.5 54.5 140.5 94.5s71.5 86.833 94.5 140.5s34.5 110.834 34.5 171.501s-11.5 117.834 -34.5 171.501s-54.5 100.5 -94.5 140.5s-86.833 71.5 -140.5 94.5s-110.834 34.5 -171.501 34.5s-117.834 -11.5 -171.501 -34.5
s-100.5 -54.5 -140.5 -94.5s-71.5 -86.833 -94.5 -140.5s-34.5 -110.834 -34.5 -171.501s11.5 -117.834 34.5 -171.501s54.5 -100.5 94.5 -140.5s86.833 -71.5 140.5 -94.5s110.834 -34.5 171.501 -34.5zM458 703c63.333 0 122.833 -12 178.5 -36s104.167 -56.667 145.5 -98
s74 -89.833 98 -145.5s36 -115.167 36 -178.5s-12 -122.833 -36 -178.5s-56.667 -104.167 -98 -145.5s-89.833 -74 -145.5 -98s-115.167 -36 -178.5 -36s-122.833 12 -178.5 36s-104.167 56.667 -145.5 98s-74 89.833 -98 145.5s-36 115.167 -36 178.5s12 122.833 36 178.5
s56.667 104.167 98 145.5s89.833 74 145.5 98s115.167 36 178.5 36zM606 203c17.333 25.333 28.6699 48.332 34.0029 68.999s5.66602 38.667 0.999023 54l-1 4c-9.33301 34.667 -34.333 55.334 -75 62.001c-14.667 2 -27.334 1.33301 -38.001 -2l-12 -3
c-22 -6 -42 -26.667 -60 -62l-2 -3l-11 -3l-4 6c-12.667 24 -28.334 42.333 -47.001 55c-27.333 9.33301 -51.333 11 -72 5c-38.667 -10.667 -61 -36 -67 -76c-0.666992 -14 1 -28.667 5 -44c16 -56.667 80.667 -133.667 194 -231c32.667 30 62.167 58.833 88.5 86.5
s48.5 55.167 66.5 82.5zM658.004 330.999c5.33301 -17.333 5.16406 -37.668 -0.50293 -61.001s-18.167 -49 -37.5 -77s-42.833 -56.667 -70.5 -86s-58.5 -59.666 -92.5 -90.999l-5 -5l-6 5c-60.667 52 -107.834 98 -141.501 138s-55.167 75.333 -64.5 106
c-2 8 -3.66699 16.167 -5 24.5s-1.66602 16.833 -0.999023 25.5l1 1c2.66699 24 10.834 43.5 24.501 58.5s32.167 25.833 55.5 32.5c24.667 7.33301 52.334 5 83.001 -7h1c18 -11.333 33.667 -28 47 -50c20 32.667 41.333 52 64 58l12 4c6 1.33301 12.833 2.33301 20.5 3
s15.834 0.333984 24.501 -0.999023c48 -8.66699 78 -33.334 90 -74.001z" />
    <glyph glyph-name="A" unicode="A" 
d="M458 -196c60.667 0 117.834 11.5 171.501 34.5s100.5 54.5 140.5 94.5s71.5 86.833 94.5 140.5s34.5 110.834 34.5 171.501s-11.5 117.834 -34.5 171.501s-54.5 100.5 -94.5 140.5s-86.833 71.5 -140.5 94.5s-110.834 34.5 -171.501 34.5s-117.834 -11.5 -171.501 -34.5
s-100.5 -54.5 -140.5 -94.5s-71.5 -86.833 -94.5 -140.5s-34.5 -110.834 -34.5 -171.501s11.5 -117.834 34.5 -171.501s54.5 -100.5 94.5 -140.5s86.833 -71.5 140.5 -94.5s110.834 -34.5 171.501 -34.5zM458 703c63.333 0 122.833 -12 178.5 -36s104.167 -56.667 145.5 -98
s74 -89.833 98 -145.5s36 -115.167 36 -178.5s-12 -122.833 -36 -178.5s-56.667 -104.167 -98 -145.5s-89.833 -74 -145.5 -98s-115.167 -36 -178.5 -36s-122.833 12 -178.5 36s-104.167 56.667 -145.5 98s-74 89.833 -98 145.5s-36 115.167 -36 178.5s12 122.833 36 178.5
s56.667 104.167 98 145.5s89.833 74 145.5 98s115.167 36 178.5 36zM658 331c5.33301 -17.333 5.16406 -37.668 -0.50293 -61.001s-18.167 -49 -37.5 -77s-42.833 -56.667 -70.5 -86s-58.5 -59.666 -92.5 -90.999l-5 -5l-6 5c-60.667 52 -107.834 98 -141.501 138
s-55.167 75.333 -64.5 106c-2 8 -3.66699 16.167 -5 24.5s-1.66602 16.833 -0.999023 25.5l1 1c2.66699 24 10.834 43.5 24.501 58.5s32.167 25.833 55.5 32.5c24.667 7.33301 52.334 5 83.001 -7h1c18 -11.333 33.667 -28 47 -50c20 32.667 41.333 52 64 58l12 4
c6 1.33301 12.833 2.33301 20.5 3s15.834 0.333984 24.501 -0.999023c48 -8.66699 78 -33.334 90 -74.001z" />
    <glyph glyph-name="B" unicode="B" 
d="M458 -196c60.667 0 117.834 11.5 171.501 34.5s100.5 54.5 140.5 94.5s71.5 86.833 94.5 140.5s34.5 110.834 34.5 171.501s-11.5 117.834 -34.5 171.501s-54.5 100.5 -94.5 140.5s-86.833 71.5 -140.5 94.5s-110.834 34.5 -171.501 34.5s-117.834 -11.5 -171.501 -34.5
s-100.5 -54.5 -140.5 -94.5s-71.5 -86.833 -94.5 -140.5s-34.5 -110.834 -34.5 -171.501s11.5 -117.834 34.5 -171.501s54.5 -100.5 94.5 -140.5s86.833 -71.5 140.5 -94.5s110.834 -34.5 171.501 -34.5zM458 703c63.333 0 122.833 -12 178.5 -36s104.167 -56.667 145.5 -98
s74 -89.833 98 -145.5s36 -115.167 36 -178.5s-12 -122.833 -36 -178.5s-56.667 -104.167 -98 -145.5s-89.833 -74 -145.5 -98s-115.167 -36 -178.5 -36s-122.833 12 -178.5 36s-104.167 56.667 -145.5 98s-74 89.833 -98 145.5s-36 115.167 -36 178.5s12 122.833 36 178.5
s56.667 104.167 98 145.5s89.833 74 145.5 98s115.167 36 178.5 36zM592 382c5.33301 -4 5.33301 -8 0 -12l-125 -125l125 -126c5.33301 -4 5.33301 -8 0 -12c-0.666992 -1.33301 -2.66699 -2 -6 -2c-2.66699 0 -4.66699 0.666992 -6 2l-125 125l-126 -125
c-0.666992 -1.33301 -2.66699 -2 -6 -2c-2.66699 0 -4.66699 0.666992 -6 2c-4 4 -4 8 0 12l126 126l-126 125c-4 4 -4 8 0 12c4.66699 3.33301 8.66699 3.33301 12 0l126 -125l125 125c4 4 8 4 12 0z" />
    <glyph glyph-name="C" unicode="C" horiz-adv-x="458" 
d="M46 295l412 408v-79l-390 -377v-4l390 -377v-79l-412 410l-46 47z" />
    <glyph glyph-name="D" unicode="D" horiz-adv-x="458" 
d="M458 244l-46 -47l-412 -410v79l390 377v4l-390 377v79l412 -408z" />
    <glyph glyph-name="E" unicode="E" horiz-adv-x="1293" 
d="M1293 -213h-1293v916h1293v-916zM65 -148h1163v786h-1163v-786zM106 594v-698h1080v698h-1080zM686 568h101v-93h-101v93zM506 568h101v-93h-101v93zM247 -78h-102v93h102v-93zM247 475h-102v93h102v-93zM427 -78h-102v93h102v-93zM427 475h-102v93h102v-93zM607 -78
h-101v93h101v-93zM787 -78h-101v93h101v-93zM570 77v336l290 -168zM967 -78h-101v93h101v-93zM967 475h-101v93h101v-93zM1147 -78h-101v93h101v-93zM1147 475h-101v93h101v-93z" />
    <glyph glyph-name="F" unicode="F" horiz-adv-x="993" 
d="M239 283v-59v-395v-42h-239v496h239zM931 55c13.333 -7.33301 23.8311 -16.999 31.498 -28.999s11.5 -25 11.5 -39c0 -17.333 -5.66699 -32.666 -17 -45.999s-25.666 -23.666 -42.999 -30.999c8 -11.333 12 -23 12 -35c0 -9.33301 -2.33301 -18.333 -7 -27
s-10.834 -16.167 -18.501 -22.5s-16.667 -11.333 -27 -15s-21.5 -5.5 -33.5 -5.5h-312h-89h-87c-9.33301 0 -22 1 -38 3s-29.333 5 -40 9v440l31 6c9.33301 4.66699 19 10.5 29 17.5s17.667 13.5 23 19.5l6 10c2 3.33301 5 8.66602 9 15.999c10.667 22 25.667 42.667 45 62
l60.5 61.5c21 21.667 41.667 45.334 62 71.001s37.166 55.5 50.499 89.5c7.33301 18.667 14.666 35 21.999 49s15.5 24.667 24.5 32s19.167 11.166 30.5 11.499s24.333 -4.16699 39 -13.5c16.667 -23.333 26.334 -49.333 29.001 -78s0.333984 -58.334 -6.99902 -89.001
s-18.166 -61.5 -32.499 -92.5s-29.5 -60.167 -45.5 -87.5h99h98h47c18.667 0 34.334 -6.33301 47.001 -19s19 -28.334 19 -47.001c0 -14 -3.83301 -26.5 -11.5 -37.5s-17.5 -18.833 -29.5 -23.5v-1c21.333 -5.33301 39 -15.333 53 -30s21 -31.667 21 -51
c0 -17.333 -5.66699 -32.833 -17 -46.5s-26.333 -24.167 -45 -31.5z" />
    <glyph glyph-name="G" unicode="G" horiz-adv-x="1058" 
d="M1058 703l-0.000976562 -47.9932v-91v-523c0 -14 -4 -28.5 -12 -43.5s-19.167 -29.333 -33.5 -43s-31.666 -26.334 -51.999 -38.001s-42.833 -21.167 -67.5 -28.5c-27.333 -8.66699 -53.833 -13.834 -79.5 -15.501s-49 -0.166992 -70 4.5s-38.667 12 -53 22
s-23.833 22.667 -28.5 38s-4 31.333 2 48s16.333 32.667 31 48s33 29.666 55 42.999s46.667 24.333 74 33c21.333 6.66699 42.333 11.167 63 13.5s40 2.66602 58 0.999023s34.5 -5.16699 49.5 -10.5s27.5 -12.333 37.5 -21v467l-633 -125v-477
c0.666992 -14 -3 -28.5 -11 -43.5s-19.167 -29.5 -33.5 -43.5s-31.833 -26.833 -52.5 -38.5s-43.334 -21.167 -68.001 -28.5c-27.333 -8.66699 -53.833 -13.834 -79.5 -15.501s-49 -0.166992 -70 4.5s-38.667 12 -53 22s-23.833 22.667 -28.5 38s-4 31.333 2 48
s16.333 32.667 31 48s33 29.666 55 42.999s46.667 24.333 74 33c43.333 13.333 83.833 18.166 121.5 14.499s66.834 -14.167 87.501 -31.5v422v142z" />
    <glyph glyph-name="H" unicode="H" horiz-adv-x="925" 
d="M742 363c0 -36.667 -5.33105 -73.998 -15.998 -111.998c-10 -38 -22.667 -69.333 -38 -94h-192l-6 31c-3.33301 -2.66699 -6.66602 -5 -9.99902 -7s-6.66602 -4.33301 -9.99902 -7c-6 -3.33301 -13.333 -6.66602 -22 -9.99902c-5.33301 -2 -10 -3.5 -14 -4.5
s-8 -2.16699 -12 -3.5c-4 -0.666992 -8.66699 -1.16699 -14 -1.5s-11.333 -0.5 -18 -0.5c-20.667 0 -39.334 4.33301 -56.001 13c-17.333 8.66699 -32.333 21.667 -45 39c-12.667 16.667 -22.334 37.334 -29.001 62.001c-3.33301 13.333 -6 26.666 -8 39.999
s-3 27.666 -3 42.999c0 31.333 4.33301 59 13 83c8.66699 24.667 20.667 46 36 64c13.333 16 30 29.333 50 40c20.667 9.33301 41 14 61 14c16.667 0 31.667 -3.33301 45 -10c12.667 -7.33301 22.667 -14.333 30 -21v24l87 1v-318h59c7.33301 16 13.666 36.333 18.999 61
c2 12 3.66699 24 5 36s2 24 2 36c0 42.667 -5.66699 80.334 -17 113.001c-12 32.667 -28.333 59.667 -49 81c-20.667 22 -45.334 38.333 -74.001 49c-27.333 10.667 -57.666 16 -90.999 16c-30.667 0 -60 -6 -88 -18s-53.667 -29.667 -77 -53
c-22.667 -22.667 -40.334 -50.334 -53.001 -83.001c-14 -33.333 -21 -70 -21 -110c0 -41.333 6.33301 -79.333 19 -114c12.667 -32.667 30.334 -60.667 53.001 -84c22.667 -22.667 47.667 -39.334 75 -50.001c27.333 -11.333 57.333 -17 90 -17
c11.333 0 22.833 0.333008 34.5 1s24.167 2 37.5 4s25.666 4.33301 36.999 7s22.666 5.66699 33.999 9v-84c-24 -5.33301 -47 -9.33301 -69 -12c-11.333 -1.33301 -23.166 -2.33301 -35.499 -3s-25.5 -1 -39.5 -1c-44.667 0 -87.667 8.33301 -129 25
c-40.667 17.333 -74.667 40.666 -102 69.999c-30 32 -52.667 68.667 -68 110c-16 42 -24 88.667 -24 140c0 48.667 8.33301 93.667 25 135s39.667 77.666 69 108.999c28 30 62.667 54.333 104 73c40.667 17.333 83 26 127 26c46 0 88 -8.33301 126 -25
c38 -15.333 71.333 -38 100 -68c28.667 -29.333 51 -64.666 67 -105.999c16.667 -40 25 -86 25 -138zM482.002 261.002l-0.000976562 199.001l-30 12c-9.33301 2 -19.666 3 -30.999 3c-26 0 -45.333 -11 -58 -33c-14 -23.333 -21 -53.333 -21 -90
c0 -40.667 5.66699 -71.334 17 -92.001c12 -20 30.667 -30 56 -30c13.333 0 25.333 2.66699 36 8c8.66699 4 19 11.667 31 23z" />
    <glyph glyph-name="I" unicode="I" horiz-adv-x="1030" 
d="M775 -84c-7.33301 0 -13.666 2.5 -18.999 7.5s-8 11.167 -8 18.5v80c0 7.33301 2.66699 13.666 8 18.999s11.666 8 18.999 8h80c7.33301 0 13.5 -2.66699 18.5 -8s7.5 -11.666 7.5 -18.999v-80c0 -7.33301 -2.5 -13.5 -7.5 -18.5s-11.167 -7.5 -18.5 -7.5h-80v0zM575 -84
c-7.33301 0 -13.666 2.5 -18.999 7.5s-8 11.167 -8 18.5v80c0 7.33301 2.66699 13.666 8 18.999s11.666 8 18.999 8h80c7.33301 0 13.666 -2.66699 18.999 -8s8 -11.666 8 -18.999v-80c0 -7.33301 -2.66699 -13.5 -8 -18.5s-11.666 -7.5 -18.999 -7.5h-80v0zM176 -84
c-7.33301 0 -13.666 2.5 -18.999 7.5s-8 11.167 -8 18.5v80c0 7.33301 2.66699 13.666 8 18.999s11.666 8 18.999 8h80c7.33301 0 13.5 -2.66699 18.5 -8s7.5 -11.666 7.5 -18.999v-80c0 -7.33301 -2.5 -13.5 -7.5 -18.5s-11.167 -7.5 -18.5 -7.5h-80v0zM375 -84
c-7.33301 0 -13.5 2.5 -18.5 7.5s-7.5 11.167 -7.5 18.5v80c0 7.33301 2.5 13.666 7.5 18.999s11.167 8 18.5 8h80c7.33301 0 13.666 -2.66699 18.999 -8s8 -11.666 8 -18.999v-80c0 -7.33301 -2.66699 -13.5 -8 -18.5s-11.666 -7.5 -18.999 -7.5h-80v0zM775 89
c-7.33301 0 -13.666 2.66699 -18.999 8s-8 11.666 -8 18.999v80c0 7.33301 2.66699 13.5 8 18.5s11.666 7.5 18.999 7.5h80c7.33301 0 13.5 -2.5 18.5 -7.5s7.5 -11.167 7.5 -18.5v-80c0 -7.33301 -2.5 -13.666 -7.5 -18.999s-11.167 -8 -18.5 -8h-80v0zM575 89
c-7.33301 0 -13.666 2.66699 -18.999 8s-8 11.666 -8 18.999v80c0 7.33301 2.66699 13.5 8 18.5s11.666 7.5 18.999 7.5h80c7.33301 0 13.666 -2.5 18.999 -7.5s8 -11.167 8 -18.5v-80c0 -7.33301 -2.66699 -13.666 -8 -18.999s-11.666 -8 -18.999 -8h-80v0zM176 89
c-7.33301 0 -13.666 2.66699 -18.999 8s-8 11.666 -8 18.999v80c0 7.33301 2.66699 13.5 8 18.5s11.666 7.5 18.999 7.5h80c7.33301 0 13.5 -2.5 18.5 -7.5s7.5 -11.167 7.5 -18.5v-80c0 -7.33301 -2.5 -13.666 -7.5 -18.999s-11.167 -8 -18.5 -8h-80v0zM375 89
c-7.33301 0 -13.5 2.66699 -18.5 8s-7.5 11.666 -7.5 18.999v80c0 7.33301 2.5 13.5 7.5 18.5s11.167 7.5 18.5 7.5h80c7.33301 0 13.666 -2.5 18.999 -7.5s8 -11.167 8 -18.5v-80c0 -7.33301 -2.66699 -13.666 -8 -18.999s-11.666 -8 -18.999 -8h-80v0zM775 262
c-7.33301 0 -13.666 2.66699 -18.999 8s-8 11.666 -8 18.999v80c0 7.33301 2.66699 13.666 8 18.999s11.666 8 18.999 8h80c7.33301 0 13.5 -2.66699 18.5 -8s7.5 -11.666 7.5 -18.999v-80c0 -7.33301 -2.5 -13.666 -7.5 -18.999s-11.167 -8 -18.5 -8h-80v0zM575 262
c-7.33301 0 -13.666 2.66699 -18.999 8s-8 11.666 -8 18.999v80c0 7.33301 2.66699 13.666 8 18.999s11.666 8 18.999 8h80c7.33301 0 13.666 -2.66699 18.999 -8s8 -11.666 8 -18.999v-80c0 -7.33301 -2.66699 -13.666 -8 -18.999s-11.666 -8 -18.999 -8h-80v0zM375 262
c-7.33301 0 -13.5 2.66699 -18.5 8s-7.5 11.666 -7.5 18.999v80c0 7.33301 2.5 13.666 7.5 18.999s11.167 8 18.5 8h80c7.33301 0 13.666 -2.66699 18.999 -8s8 -11.666 8 -18.999v-80c0 -7.33301 -2.66699 -13.666 -8 -18.999s-11.666 -8 -18.999 -8h-80v0zM220 543
c-9.33301 0 -17 2.16699 -23 6.5s-9 8.83301 -9 13.5v40v80c0 4.66699 3 9.16699 9 13.5s13.667 6.5 23 6.5s17.166 -2.16699 23.499 -6.5s9.5 -8.83301 9.5 -13.5v-80v-40c0 -4.66699 -3.16699 -9.16699 -9.5 -13.5s-14.166 -6.5 -23.499 -6.5zM810 543
c-9.33301 0 -17.166 2.16699 -23.499 6.5s-9.5 8.83301 -9.5 13.5v40v80c0 4.66699 3.16699 9.16699 9.5 13.5s14.166 6.5 23.499 6.5s17.166 -2.16699 23.499 -6.5s9.5 -8.83301 9.5 -13.5v-80v-40c0 -4.66699 -3.16699 -9.16699 -9.5 -13.5s-14.166 -6.5 -23.499 -6.5z
M515 543c-9.33301 0 -17 2.16699 -23 6.5s-9 8.83301 -9 13.5v40v80c0 4.66699 3 9.16699 9 13.5s13.667 6.5 23 6.5s17.166 -2.16699 23.499 -6.5s9.5 -8.83301 9.5 -13.5v-80v-40c0 -4.66699 -3.16699 -9.16699 -9.5 -13.5s-14.166 -6.5 -23.499 -6.5zM941 431h-851v-562
h851v562zM956 603c20.667 0 38.167 -7.33301 52.5 -22s21.5 -32.334 21.5 -53.001v-666c0 -21.333 -7.16699 -39.166 -21.5 -53.499s-31.833 -21.5 -52.5 -21.5h-881c-21.333 0 -39.166 7.16699 -53.499 21.5s-21.5 32.166 -21.5 53.499v666
c0 20.667 7.16699 38.334 21.5 53.001s32.166 22 53.499 22h78v-40c0 -15.333 6.5 -28.166 19.5 -38.499s28.833 -15.5 47.5 -15.5c19.333 0 35.333 5.16699 48 15.5s19 23.166 19 38.499v40h161v-40c0 -15.333 6.5 -28.166 19.5 -38.499s28.833 -15.5 47.5 -15.5
c19.333 0 35.333 5.16699 48 15.5s19 23.166 19 38.499v40h161v-40c0 -15.333 6.33301 -28.166 19 -38.499s28.667 -15.5 48 -15.5s35.333 5.16699 48 15.5s19 23.166 19 38.499v40h79v0z" />
    <glyph glyph-name="J" unicode="J" 
d="M875 270c-2.66699 44 -11.835 86.498 -27.502 127.498s-37.5 78.5 -65.5 112.5h-1c-1.33301 -1.33301 -3.33301 -2.66602 -6 -3.99902c-2.66699 -0.666992 -6 -2.33398 -10 -5.00098c-1.33301 -0.666992 -2.66602 -1.16699 -3.99902 -1.5
s-2.66602 -0.833008 -3.99902 -1.5c-1.33301 -1.33301 -2.83301 -2.16602 -4.5 -2.49902s-3.16699 -1.16602 -4.5 -2.49902c-4 -1.33301 -6.66699 -2.33301 -8 -3c-2 -0.666992 -3.83301 -1.33398 -5.5 -2.00098s-3.16699 -1.33398 -4.5 -2.00098l-9 -3
c-4 -1.33301 -7.33301 -2.66602 -10 -3.99902l-9 -3c-1.33301 -0.666992 -3 -1.16699 -5 -1.5s-3.66699 -0.833008 -5 -1.5l-9 -3c-5.33301 -1.33301 -9 -2.33301 -11 -3c-1.33301 -0.666992 -3 -1 -5 -1s-3.66699 -0.333008 -5 -1s-2.5 -1 -3.5 -1
s-2.16699 -0.333008 -3.5 -1c8 -28.667 14.333 -59.167 19 -91.5s7.66699 -66.166 9 -101.499h192zM272.999 500.998c23.333 67.333 54.333 118.008 93 152.008c-38.667 -9.33301 -75.334 -23.333 -110.001 -42s-66 -42.334 -94 -71.001
c0.666992 0 2.33398 -0.666992 5.00098 -2l6 -3c1.33301 -0.666992 2.83301 -1.33398 4.5 -2.00098s3.16699 -1.33398 4.5 -2.00098s2.5 -1.16699 3.5 -1.5s2.16699 -0.833008 3.5 -1.5s3 -1.33398 5 -2.00098s3.66699 -1.33398 5 -2.00098
c2.66699 -1.33301 5 -2.33301 7 -3s5.66699 -1.66699 11 -3l6 -3c2.66699 -0.666992 5.16699 -1.33398 7.5 -2.00098s4.83301 -1.33398 7.5 -2.00098c0.666992 -0.666992 1.66699 -1 3 -1c3.33301 -1.33301 6.5 -2.33301 9.5 -3s6.16699 -1.33398 9.5 -2.00098
c2.66699 -1.33301 4.66699 -2 6 -2c1.33301 -0.666992 2.5 -1 3.5 -1s2.16699 -0.333008 3.5 -1zM632.999 270.006c-1.33301 34.667 -4.16602 67.167 -8.49902 97.5s-10.166 58.833 -17.499 85.5c-1.33301 -0.666992 -2.83301 -1 -4.5 -1s-3.16699 -0.333008 -4.5 -1
c-2 0 -4 -0.166992 -6 -0.5s-4 -0.5 -6 -0.5c-2 -0.666992 -3.83301 -1 -5.5 -1s-3.16699 -0.333008 -4.5 -1c-2.66699 0 -5 -0.166992 -7 -0.5s-4 -0.5 -6 -0.5c-1.33301 -0.666992 -3 -1 -5 -1s-3.66699 -0.333008 -5 -1c-6 0 -10.333 -0.333008 -13 -1
c-4.66699 0 -8 -0.333008 -10 -1c-6.66699 0 -11.334 -0.333008 -14.001 -1h-10c-2.66699 -0.666992 -5.33398 -1 -8.00098 -1h-8h-7v-171h150zM482.999 56.0059c21.333 -1.33301 42.5 -3 63.5 -5s41.5 -4.66699 61.5 -8c7.33301 25.333 13 52.833 17 82.5
s6.66699 61.167 8 94.5h-150v-164v0zM644.999 -4.99414c-21.333 -64 -50 -113.665 -86 -148.998c36.667 9.33301 71.5 23.166 104.5 41.499s63.167 41.166 90.5 68.499c-30.667 16 -67 29 -109 39zM482.999 -145.992c21.333 7.33301 42 23.999 62 49.999s37 59.667 51 101
c-18 3.33301 -36.5 5.83301 -55.5 7.5s-38.167 2.83398 -57.5 3.50098v-162v0zM356.999 -153.993c-36 35.333 -64.667 84.998 -86 148.998c-42 -10 -78.333 -23 -109 -39c27.333 -27.333 57.5 -50.166 90.5 -68.499s67.833 -32.166 104.5 -41.499zM432.999 16.0049
c-19.333 -0.666992 -38.5 -1.83301 -57.5 -3.5s-37.5 -4.16699 -55.5 -7.5c14 -41.333 31 -75 51 -101s40.667 -42.667 62 -50v162v0zM282.999 220.006c1.33301 -33.333 4 -64.833 8 -94.5s9.66699 -57.167 17 -82.5c20 3.33301 40.5 6 61.5 8s42.167 3.66699 63.5 5v164
h-150zM317.999 451.006c-1.33301 0.666992 -2.83301 1 -4.5 1s-3.16699 0.333008 -4.5 1c-7.33301 -26.667 -13.166 -55.167 -17.499 -85.5s-7.16602 -62.833 -8.49902 -97.5h150v171h-7h-8c-2.66699 0 -5.33398 0.333008 -8.00098 1h-10
c-2.66699 0.666992 -7.33398 1 -14.001 1c-2 0.666992 -5.33301 1 -10 1c-2.66699 0.666992 -7 1 -13 1c-1.33301 0.666992 -3 1 -5 1s-3.66699 0.333008 -5 1c-2 0 -4 0.166992 -6 0.5s-4.33301 0.5 -7 0.5c-1.33301 0.666992 -2.83301 1 -4.5 1s-3.5 0.333008 -5.5 1
c-2 0 -4 0.166992 -6 0.5s-4 0.5 -6 0.5zM432.999 636.006c-21.333 -7.33301 -41.667 -23.333 -61 -48s-36 -57 -50 -97c2.66699 0 4.66699 -0.333008 6 -1c2 0 4 -0.166992 6 -0.5s4 -0.5 6 -0.5c1.33301 -0.666992 2.83301 -1 4.5 -1s3.16699 -0.333008 4.5 -1
c2 0 4 -0.166992 6 -0.5s4 -0.5 6 -0.5c1.33301 0 2.83301 -0.166992 4.5 -0.5s3.16699 -0.5 4.5 -0.5c2 -0.666992 4.16699 -1 6.5 -1h6.5c2 -0.666992 5 -1 9 -1c2 0 4.16699 -0.166992 6.5 -0.5s4.5 -0.5 6.5 -0.5c4 0 7 -0.333008 9 -1h14h5v155v0zM587.998 490.006
c1.33301 0.666992 3.33203 1 5.99902 1c-14 40 -30.667 72.333 -50 97s-39.666 40.667 -60.999 48v-155h5h14c2 0.666992 5 1 9 1c2 0 4.16699 0.166992 6.5 0.5s4.5 0.5 6.5 0.5c4 0 7 0.333008 9 1h6.5c2.33301 0 4.5 0.333008 6.5 1c1.33301 0 2.83301 0.166992 4.5 0.5
s3.16699 0.5 4.5 0.5c2 0 4 0.166992 6 0.5s4 0.5 6 0.5c1.33301 0.666992 2.83301 1 4.5 1s3.16699 0.333008 4.5 1c2 0 4 0.166992 6 0.5s4 0.5 6 0.5zM748.997 538.006c2.66699 1.33301 4.33398 1.99219 5.00098 1.99219c-28 28.667 -59.333 52.334 -94 71.001
s-71.334 32.667 -110.001 42c38.667 -34 69.667 -84.667 93 -152c1.33301 0.666992 2.5 1 3.5 1s2.16699 0.333008 3.5 1c1.33301 0 3.33301 0.666992 6 2c3.33301 0.666992 6.5 1.33398 9.5 2.00098s6.16699 1.66699 9.5 3c1.33301 0 2.33301 0.333008 3 1
c2.66699 0.666992 5.16699 1.33398 7.5 2.00098s4.83301 1.33398 7.5 2.00098l6 3c5.33301 1.33301 9 2.33301 11 3s4.33301 1.66699 7 3c1.33301 0.666992 3 1.33398 5 2.00098s3.66699 1.33398 5 2.00098c2.66699 1.33301 5 2.33301 7 3
c1.33301 0.666992 2.83301 1.33398 4.5 2.00098s3.16699 1.33398 4.5 2.00098l6 3v0zM133.997 509.998c-28 -34 -49.834 -71.498 -65.501 -112.498s-24.834 -83.5 -27.501 -127.5h192c1.33301 35.333 4.33301 69.166 9 101.499s11 62.833 19 91.5
c-1.33301 0.666992 -2.5 1 -3.5 1s-2.16699 0.333008 -3.5 1s-3 1 -5 1s-3.66699 0.333008 -5 1c-2 0.666992 -5.66699 1.66699 -11 3l-9 3c-1.33301 0.666992 -3 1.16699 -5 1.5s-3.66699 0.833008 -5 1.5l-9 3c-2.66699 1.33301 -6 2.66602 -10 3.99902l-9 3
c-1.33301 0.666992 -2.83301 1.33398 -4.5 2.00098s-3.5 1.33398 -5.5 2.00098c-1.33301 0.666992 -4 1.66699 -8 3c-1.33301 1.33301 -2.83301 2.16602 -4.5 2.49902s-3.16699 1.16602 -4.5 2.49902c-1.33301 0.666992 -2.66602 1.16699 -3.99902 1.5
s-2.66602 0.833008 -3.99902 1.5c-4 2.66699 -7.33301 4.33398 -10 5.00098c-2.66699 1.33301 -4.66699 2.66602 -6 3.99902h-1zM40.9961 220c2.66699 -44.667 11.833 -86.8311 27.5 -126.498s36.5 -75.834 62.5 -108.501c18 10 37.833 19 59.5 27s44.5 15 68.5 21
c-15.333 57.333 -24 119.666 -26 186.999h-192v0zM784.995 -14.9971c26 32.667 46.832 68.8311 62.499 108.498s24.834 81.834 27.501 126.501h-192c-2 -67.333 -10.667 -129.666 -26 -186.999c24 -6 46.833 -13 68.5 -21s41.5 -17 59.5 -27zM815.994 530
c32.667 -40.667 57.5 -85.334 74.5 -134.001s25.5 -99 25.5 -151c0 -63.333 -12 -122.833 -36 -178.5s-56.667 -104.167 -98 -145.5s-89.833 -74 -145.5 -98s-115.167 -36 -178.5 -36s-122.833 12 -178.5 36s-104.167 56.667 -145.5 98s-74 89.833 -98 145.5
s-36 115.167 -36 178.5c0 52 8.5 102.333 25.5 151s41.833 93.334 74.5 134.001l-1 1l16 17l11 13c44 45.333 94.667 80.333 152 105s117.333 37 180 37s122.667 -12.333 180 -37s108 -59.667 152 -105l11 -13l16 -17l-1 -1v0z" />
    <glyph glyph-name="K" unicode="K" horiz-adv-x="1546" 
d="M748 289c1.33301 -7.33301 4.33301 -13.165 9 -17.498s10.667 -6.5 18 -6.5s13.833 2.66699 19.5 8s8.5 11.666 8.5 18.999c0 8 -2.83301 14.667 -8.5 20s-12.167 8 -19.5 8c-2 0 -5 -0.666992 -9 -2c-12 -4.66699 -18 -13.334 -18 -26.001v-3v0zM659 265.001
c7.33301 0 13.833 2.66699 19.5 8s8.5 11.666 8.5 18.999c0 8 -2.83301 14.667 -8.5 20s-12.167 8 -19.5 8s-13.833 -2.66699 -19.5 -8s-8.5 -12 -8.5 -20c0 -7.33301 2.83301 -13.666 8.5 -18.999s12.167 -8 19.5 -8zM543 265.001c7.33301 0 13.666 2.66699 18.999 8
s8 11.666 8 18.999c0 8 -2.66699 14.667 -8 20s-11.666 8 -18.999 8s-13.833 -2.66699 -19.5 -8s-8.5 -12 -8.5 -20c0 -7.33301 2.83301 -13.666 8.5 -18.999s12.167 -8 19.5 -8zM866 240.001c0 -23.333 -8.33301 -43.332 -25 -59.999s-36.667 -25 -60 -25h-32h-151l-2 -5
c-6.66699 -9.33301 -14.5 -17.833 -23.5 -25.5s-18.5 -13.5 -28.5 -17.5c5.33301 6.66699 9 13.167 11 19.5s3.33301 12.166 4 17.499l2 11h-16c-11.333 0 -22.166 2.16699 -32.499 6.5s-19.333 10.333 -27 18s-13.667 16.667 -18 27s-6.5 21.5 -6.5 33.5v105
c0 12 2.16699 23.167 6.5 33.5s10.333 19.333 18 27s16.667 13.667 27 18s21.166 6.5 32.499 6.5h236c23.333 0 43.333 -8.33301 60 -25s25 -36.667 25 -60v-3v-102v0zM1012 201.002c6 0 11.167 2.16699 15.5 6.5s6.5 9.5 6.5 15.5s-2.16699 11.167 -6.5 15.5
s-9.5 6.5 -15.5 6.5c-6.66699 0 -12 -2.16699 -16 -6.5s-6 -9.5 -6 -15.5s2 -11.167 6 -15.5s9.33301 -6.5 16 -6.5zM918 201.002c6 0 11.167 2.16699 15.5 6.5s6.5 9.5 6.5 15.5s-2.16699 11.167 -6.5 15.5s-9.5 6.5 -15.5 6.5s-11.167 -2.16699 -15.5 -6.5
s-6.5 -9.5 -6.5 -15.5s2.16699 -11.167 6.5 -15.5s9.5 -6.5 15.5 -6.5zM1010 342.002c20.667 0 38.5 -7.49902 53.5 -22.499s22.5 -32.833 22.5 -53.5v-85c0 -21.333 -7.5 -39.333 -22.5 -54s-32.833 -22 -53.5 -22h-4c1.33301 -8 4.16602 -15.833 8.49902 -23.5
s10.5 -14.834 18.5 -21.501c-13.333 1.33301 -26.166 5.83301 -38.499 13.5s-22.833 18.167 -31.5 31.5h-143c-12.667 0 -24.167 2.83301 -34.5 8.5s-19.166 13.167 -26.499 22.5h22c14 0 27.333 2.66699 40 8s23.667 12.666 33 21.999s16.666 20.333 21.999 33
s8 26.334 8 41.001v102h126v0z" />
    <glyph glyph-name="L" unicode="L" horiz-adv-x="1190" 
d="M192 544c-10 0 -18.667 3.66699 -26 11s-11 16 -11 26c0 10.667 3.66699 19.667 11 27s16 11 26 11h107c10 0 18.667 -3.66699 26 -11s11 -16.333 11 -27c0 -10 -3.66699 -18.667 -11 -26s-16 -11 -26 -11h-107v0zM720 -134c44 0 85.167 8.33301 123.5 25
s71.833 39.334 100.5 68.001s51.334 62.167 68.001 100.5s25 79.5 25 123.5s-8.33301 85.167 -25 123.5s-39.334 71.833 -68.001 100.5s-62.167 51.334 -100.5 68.001s-79.5 25 -123.5 25s-85.333 -8.33301 -124 -25s-72.334 -39.334 -101.001 -68.001
s-51.334 -62.167 -68.001 -100.5s-25 -79.5 -25 -123.5s8.33301 -85.167 25 -123.5s39.334 -71.833 68.001 -100.5s62.334 -51.334 101.001 -68.001s80 -25 124 -25zM261 384c13.333 0 24.833 4.83301 34.5 14.5s14.5 21.167 14.5 34.5s-4.83301 24.833 -14.5 34.5
s-21.167 14.5 -34.5 14.5h-111c-13.333 0 -24.666 -4.83301 -33.999 -14.5s-14 -21.167 -14 -34.5s4.66699 -24.833 14 -34.5s20.666 -14.5 33.999 -14.5h111v0zM1102 581c24.667 0 45.5 -8.5 62.5 -25.5s25.5 -37.833 25.5 -62.5v-617c0 -24.667 -8.5 -45.667 -25.5 -63
s-37.833 -26 -62.5 -26h-1013c-24.667 0 -45.667 8.66699 -63 26s-26 38.333 -26 63v617c0 24.667 8.66699 45.5 26 62.5s38.333 25.5 63 25.5h48c0 -15.333 5.33301 -28.333 16 -39s23.667 -16 39 -16h107c15.333 0 28.333 5.33301 39 16s16 23.667 16 39h258l37 122h260
l37 -122h156v0zM720 377c26.667 0 51.667 -5.16699 75 -15.5s43.833 -24.166 61.5 -41.499s31.5 -37.833 41.5 -61.5s15 -48.834 15 -75.501s-5 -51.834 -15 -75.501s-23.833 -44.167 -41.5 -61.5s-38.167 -31.166 -61.5 -41.499s-48.333 -15.5 -75 -15.5
s-51.834 5.16699 -75.501 15.5s-44.167 24.166 -61.5 41.499s-31.166 37.833 -41.499 61.5s-15.5 48.834 -15.5 75.501s5.16699 51.834 15.5 75.501s24.166 44.167 41.499 61.5s37.833 31.166 61.5 41.499s48.834 15.5 75.501 15.5z" />
    <glyph glyph-name="M" unicode="M" horiz-adv-x="585" 
d="M331 430h-69v-69h69v69zM240 511h-69v-69h69v69zM147 516h-69v-68h69v68zM240 102h-69v-69h69v69zM514 -2h-69v-69h69v69zM424 -2h-69v-69h69v69zM330 -2h-69v-69h69v69zM240 -2h-69v-69h69v69zM147 -2h-69v-69h69v69zM532 620c0 8.66699 -2.33301 16 -7 22
s-10.667 9 -18 9h-430c-6.66699 0 -12.5 -3 -17.5 -9s-7.5 -13.333 -7.5 -22v-690c0 -8.66699 2.5 -16 7.5 -22s10.833 -9 17.5 -9h430c7.33301 0 13.333 3 18 9s7 13.333 7 22v690zM401 -177c4.66699 0 8.66699 2 12 6s5 8.66699 5 14s-1.66699 10.166 -5 14.499
s-7.33301 6.5 -12 6.5h-217c-5.33301 0 -9.5 -2.16699 -12.5 -6.5s-4.5 -9.16602 -4.5 -14.499s1.5 -10 4.5 -14s7.16699 -6 12.5 -6h217v0zM554 703c8.66699 0 16 -3.66699 22 -11s9 -16 9 -26v-842c0 -10 -3 -18.667 -9 -26s-13.333 -11 -22 -11h-524
c-8 0 -15 3.66699 -21 11s-9 16 -9 26v842c0 10 3 18.667 9 26s13 11 21 11h524v0z" />
    <glyph glyph-name="N" unicode="N" horiz-adv-x="1163" 
d="M1057 357c-64 64 -136.668 112.667 -218.001 146s-167.333 50 -258 50c-90 0 -175.667 -16.667 -257 -50s-154 -82 -218 -146l-106 105c78 78 166.833 137.667 266.5 179s204.5 62 314.5 62c110.667 0 215.834 -20.667 315.501 -62s188.5 -101 266.5 -179zM911.999 181
c-44.667 44 -95.332 77.667 -151.999 101s-116.334 35 -179.001 35s-122.334 -11.667 -179.001 -35s-107 -57 -151 -101l-106 105c58.667 58.667 125.334 103.5 200.001 134.5s153.334 46.5 236.001 46.5c83.333 0 162.166 -15.5 236.499 -46.5
s140.833 -75.833 199.5 -134.5zM788.001 1c-28 28 -59.5 49.333 -94.5 64s-72.5 22 -112.5 22c-39.333 0 -76.666 -7.33301 -111.999 -22s-67 -36 -95 -64l-105 106c42 42 89.667 74.167 143 96.5s109.666 33.5 168.999 33.5c60 0 116.667 -11.167 170 -33.5
s101 -54.5 143 -96.5zM693.001 -101c0 -15.333 -3 -29.833 -9 -43.5s-14 -25.5 -24 -35.5s-21.833 -18 -35.5 -24s-28.167 -9 -43.5 -9s-29.833 3 -43.5 9s-25.5 14 -35.5 24s-18 21.833 -24 35.5s-9 28.167 -9 43.5s3 29.833 9 43.5s14 25.5 24 35.5s21.833 18 35.5 24
s28.167 9 43.5 9s29.833 -3 43.5 -9s25.5 -14 35.5 -24s18 -21.833 24 -35.5s9 -28.167 9 -43.5z" />
    <glyph glyph-name="O" unicode="O" horiz-adv-x="1542" 
d="M1308 525c0 10.667 -2.00195 20.832 -6.00195 30.499s-9.5 18 -16.5 25s-15.167 12.5 -24.5 16.5s-19.333 6 -30 6h-1053c-21.333 0 -39.666 -7.66699 -54.999 -23s-23 -33.666 -23 -54.999v-561c0 -10.667 2 -20.667 6 -30s9.5 -17.5 16.5 -24.5s15.333 -12.5 25 -16.5
s19.834 -6 30.501 -6h1053c21.333 0 39.5 7.5 54.5 22.5s22.5 33.167 22.5 54.5v561zM1507 432.998c9.33301 0 17.5 -3.5 24.5 -10.5s10.5 -15.167 10.5 -24.5v-306c0 -10 -3.5 -18.333 -10.5 -25s-15.167 -10 -24.5 -10h-99v-93c0 -24 -4.66699 -46.833 -14 -68.5
s-22 -40.5 -38 -56.5s-34.833 -28.667 -56.5 -38s-44.5 -14 -68.5 -14h-1053c-24.667 0 -47.834 4.66699 -69.501 14s-40.5 22 -56.5 38s-28.667 34.833 -38 56.5s-14 44.5 -14 68.5v561c0 24.667 4.66699 47.834 14 69.501s22 40.5 38 56.5s34.833 28.667 56.5 38
s44.834 14 69.501 14h1053c24 0 46.833 -4.66699 68.5 -14s40.5 -22 56.5 -38s28.667 -34.833 38 -56.5s14 -44.834 14 -69.501v-92h99v0zM792.998 517.998c10 0 18.5 -3.5 25.5 -10.5s10.5 -15.5 10.5 -25.5v-477c0 -9.33301 -3.5 -17.5 -10.5 -24.5
s-15.5 -10.5 -25.5 -10.5h-204c-10 0 -18.333 3.5 -25 10.5s-10 15.167 -10 24.5v477c0 10 3.33301 18.5 10 25.5s15 10.5 25 10.5h204v0zM426.998 517.998c9.33301 0 17.5 -3.5 24.5 -10.5s10.5 -15.5 10.5 -25.5v-477c0 -9.33301 -3.5 -17.5 -10.5 -24.5
s-15.167 -10.5 -24.5 -10.5h-204c-10 0 -18.5 3.5 -25.5 10.5s-10.5 15.167 -10.5 24.5v477c0 10 3.5 18.5 10.5 25.5s15.5 10.5 25.5 10.5h204v0z" />
    <glyph glyph-name="P" unicode="P" horiz-adv-x="637" 
d="M570 371c0 15.333 -5.16797 28.167 -15.501 38.5s-23.166 15.5 -38.499 15.5h-45v-159h99v105zM569.999 217.001l-380 -0.000976562c-7.33301 0 -13.333 2.33301 -18 7s-7 10.667 -7 18v183h-45c-14.667 0 -27.167 -5.16699 -37.5 -15.5s-15.5 -23.166 -15.5 -38.499
v-311h503v157zM569.999 11l-98.999 0.000976562v-159h45c15.333 0 28.166 5.16699 38.499 15.5s15.5 23.166 15.5 38.499v105zM422 -147.999v159h-79v-159h79zM294 11.001h-79v-159h79v159zM165 11.001l-98 -0.000976562v-105c0 -15.333 5.16699 -28.166 15.5 -38.499
s22.833 -15.5 37.5 -15.5h45v159zM215 266h79v159h-79v-159zM343 266h79v159h-79v-159zM622 569c4 -4.66699 7.5 -10.499 10.5 -17.499s4.5 -13.5 4.5 -19.5v-724c0 -5.33301 -2.16699 -10.166 -6.5 -14.499s-9.5 -6.5 -15.5 -6.5h-593c-6 0 -11.167 2.16699 -15.5 6.5
s-6.5 9.16602 -6.5 14.499v874c0 5.33301 2.16699 10.166 6.5 14.499s9.5 6.5 15.5 6.5h444c6 0 12.5 -1.5 19.5 -4.5s12.833 -6.5 17.5 -10.5l119 -119v0z" />
    <glyph glyph-name="Q" unicode="Q" horiz-adv-x="637" 
d="M446 74c14 0.666992 25.999 5.83398 35.999 15.501s14.667 21.5 14 35.5c0 14 -4.83301 25.833 -14.5 35.5s-21.5 14.5 -35.5 14.5l-78 -1v78c0 14 -5 25.833 -15 35.5s-22 14.5 -36 14.5c-13.333 0 -25 -5 -35 -15s-14.667 -22 -14 -36v-77h-78
c-13.333 -0.666992 -25 -5.83398 -35 -15.501s-15 -21.5 -15 -35.5c0.666992 -14 5.83398 -25.833 15.501 -35.5s21.5 -14.5 35.5 -14.5h77l1 -77c0 -14 5 -25.833 15 -35.5s21.667 -14.5 35 -14.5c14 0 25.833 5 35.5 15s14.5 21.667 14.5 35v78h77v0zM569.999 371
c0 15.333 -5.16797 28.167 -15.501 38.5s-23.166 15.5 -38.499 15.5h-45v-159h99v105zM569.998 60.001v157v-157zM164.998 263.001v161.999h-45c-14.667 0 -27.167 -5.16699 -37.5 -15.5s-15.5 -23.166 -15.5 -38.499v-111zM569.998 11l-98.999 0.000976562v-159h45
c15.333 0 28.166 5.16699 38.499 15.5s15.5 23.166 15.5 38.499v105zM164.999 11.001l-98 -0.000976562v-105c0 -15.333 5.16699 -28.166 15.5 -38.499s22.833 -15.5 37.5 -15.5h45v159zM621.999 569c4 -4.66699 7.5 -10.499 10.5 -17.499s4.5 -13.5 4.5 -19.5v-724
c0 -5.33301 -2.16699 -10.166 -6.5 -14.499s-9.5 -6.5 -15.5 -6.5h-593c-6 0 -11.167 2.16699 -15.5 6.5s-6.5 9.16602 -6.5 14.499v874c0 5.33301 2.16699 10.166 6.5 14.499s9.5 6.5 15.5 6.5h444c6 0 12.5 -1.5 19.5 -4.5s12.833 -6.5 17.5 -10.5l119 -119v0z
M307.999 -105.999h-10v-74h10v74z" />
    <glyph glyph-name="R" unicode="R" horiz-adv-x="728" 
d="M649 -144c11.333 8 14.667 16 10 24l-60 95c-2 3.33301 -5.5 5.16602 -10.5 5.49902s-10.167 -1.16699 -15.5 -4.5s-9 -7.33301 -11 -12s-1.66699 -8.66699 1 -12l60 -95c2 -3.33301 5.5 -5.16602 10.5 -5.49902s10.167 1.16699 15.5 4.5zM413.001 223
c23.333 14.667 42.499 33.167 57.499 55.5s25.333 46 31 71s6.33398 50.667 2.00098 77s-13.833 51.166 -28.5 74.499s-33 42.5 -55 57.5s-45.667 25.333 -71 31s-51.166 6.5 -77.499 2.5s-51.166 -13.333 -74.499 -28c-23.333 -15.333 -42.5 -34 -57.5 -56
s-25.333 -45.5 -31 -70.5s-6.5 -50.667 -2.5 -77s13.667 -51.166 29 -74.499c14.667 -23.333 33 -42.5 55 -57.5s45.667 -25.333 71 -31s51.166 -6.5 77.499 -2.5s51.166 13.333 74.499 28zM724 -116c4 -6.66699 5.16699 -13.667 3.5 -21s-5.83398 -13.333 -12.501 -18
l-85 -54c-6.66699 -4 -13.667 -5.16699 -21 -3.5s-13.333 5.83398 -18 12.501l-176 278c-4 6.66699 -10 11.5 -18 14.5s-16 3.83301 -24 2.5c-30.667 -6.66699 -61.5 -8.66699 -92.5 -6s-60.667 9.83398 -89 21.501s-54.833 27.667 -79.5 48s-46 44.5 -64 72.5
c-22.667 36 -37.167 74 -43.5 114s-5.16602 79.167 3.50098 117.5s24.334 74.333 47.001 108s52 61.834 88 84.501s74.167 37.167 114.5 43.5s79.666 5.16602 117.999 -3.50098s74.333 -24.334 108 -47.001s61.834 -52 84.501 -88c18 -28 30.833 -57.5 38.5 -88.5
s10.5 -62 8.5 -93s-8.33301 -61.167 -19 -90.5s-25.667 -56.333 -45 -81c-4.66699 -6 -7.33398 -13.333 -8.00098 -22s1 -16.334 5 -23.001l176 -278v0z" />
    <glyph glyph-name="S" unicode="S" horiz-adv-x="889" 
d="M429 568c-27.333 0 -50.5 -9.33301 -69.5 -28s-28.5 -41.667 -28.5 -69s9.5 -50.5 28.5 -69.5s42.167 -28.5 69.5 -28.5s50.5 9.5 69.5 28.5s28.5 42.167 28.5 69.5s-9.5 50.333 -28.5 69s-42.167 28 -69.5 28zM320 269c-36 23.333 -65.332 52.333 -87.999 87
s-34 73.334 -34 116.001c0 32 6 62 18 90s28.5 52.5 49.5 73.5s45.5 37.5 73.5 49.5s58 18 90 18s62 -6 90 -18s52.5 -28.5 73.5 -49.5s37.5 -45.5 49.5 -73.5s18 -58 18 -90c0 -42.667 -11.167 -81.334 -33.5 -116.001s-51.5 -63.667 -87.5 -87
c-2 -1.33301 -7.83301 -7.16602 -17.5 -17.499s-19.667 -26.333 -30 -48s-19.833 -49.667 -28.5 -84s-13 -75.833 -13 -124.5c0 -4.66699 -2.33301 -8.5 -7 -11.5s-9.33398 -4.5 -14.001 -4.5s-9.16699 1.5 -13.5 4.5s-6.5 6.83301 -6.5 11.5c0 48.667 -4.33301 90 -13 124
s-18.167 62 -28.5 84s-20.333 38.167 -30 48.5s-15.5 16.166 -17.5 17.499zM888.001 -107c2.66699 -6 1.00195 -10.333 -4.99805 -13l-267 -92c-2 -0.666992 -5.66699 -1 -11 -1c-4 0 -6.66699 0.333008 -8 1l-309 92c-2 0.666992 -5 1 -9 1c-4.66699 0 -8 -0.333008 -10 -1
l-262 -91c-0.666992 -0.666992 -1.33398 -1 -2.00098 -1h-1c-4.66699 0 -5.66699 2.33301 -3 7l121 312c2.66699 6 7 10.333 13 13l180 62c4 1.33301 7.33301 2 10 2c3.33301 0 5.66602 -0.333008 6.99902 -1c4 -8 7.83301 -17 11.5 -27s7.16699 -21.333 10.5 -34l-29 8
l-159 -55l-79 -202l165 56c5.33301 2 10.333 3.33301 15 4s8.66699 1 12 1c10 0 18 -1.33301 24 -4l302 -90l216 75l-89 197l-135 -46c-5.33301 -2 -10.333 -3.33301 -15 -4s-8.66699 -1 -12 -1c-4.66699 0 -9 0.333008 -13 1s-7.66699 1.66699 -11 3l-51 15
c2 9.33301 3.83301 18.333 5.5 27s3.83398 16.667 6.50098 24l54 -16c1.33301 -0.666992 4.33301 -1 9 -1c2.66699 0 6 0.666992 10 2l171 59h3c5.33301 0 8.66602 -2 9.99902 -6l124 -276v0z" />
    <glyph glyph-name="T" unicode="T" horiz-adv-x="1027" 
d="M992 356c0 6 -1.66699 11 -5 15s-7.66602 6 -12.999 6h-293c-5.33301 0 -9.5 -2 -12.5 -6s-4.5 -9 -4.5 -15v-471c0 -6 1.5 -11 4.5 -15s7.16699 -6 12.5 -6h293c5.33301 0 9.66602 2 12.999 6s5 9 5 15v471zM902 -189c3.33301 0 6 1.5 8 4.5s3 6.16699 3 9.5
c0 9.33301 -3.66699 14 -11 14h-149c-7.33301 0 -11 -4.66699 -11 -14c0 -3.33301 1 -6.5 3 -9.5s4.66699 -4.5 8 -4.5h149v0zM1007 413c5.33301 0 10 -2.5 14 -7.5s6 -11.167 6 -18.5v-574c0 -7.33301 -2 -13.5 -6 -18.5s-8.66699 -7.5 -14 -7.5h-358c-6 0 -11 2.5 -15 7.5
s-6 11.167 -6 18.5v574c0 7.33301 2 13.5 6 18.5s9 7.5 15 7.5h358v0zM532 620c0 8.66699 -2.33301 16 -7 22s-10.667 9 -18 9h-430c-6.66699 0 -12.5 -3 -17.5 -9s-7.5 -13.333 -7.5 -22v-690c0 -8.66699 2.5 -16 7.5 -22s10.833 -9 17.5 -9h430c7.33301 0 13.333 3 18 9
s7 13.333 7 22v690zM401 -177c4.66699 0 8.66699 2 12 6s5 8.66699 5 14s-1.66699 10.166 -5 14.499s-7.33301 6.5 -12 6.5h-217c-5.33301 0 -9.5 -2.16699 -12.5 -6.5s-4.5 -9.16602 -4.5 -14.499s1.5 -10 4.5 -14s7.16699 -6 12.5 -6h217v0zM554 703
c8.66699 0 16 -3.66699 22 -11s9 -16 9 -26v-842c0 -10 -3 -18.667 -9 -26s-13.333 -11 -22 -11h-524c-8 0 -15 3.66699 -21 11s-9 16 -9 26v842c0 10 3 18.667 9 26s13 11 21 11h524v0z" />
    <glyph glyph-name="U" unicode="U" horiz-adv-x="932" 
d="M888 -191c6.66699 0 10 3.33301 10 10c0 7.33301 -3.33301 11 -10 11h-844c-6.66699 0 -10 -3.66699 -10 -11c0 -6.66699 3.33301 -10 10 -10h844v0zM366 -109c-6 0 -11 -2.16699 -15 -6.5s-6 -9.16602 -6 -14.499c0 -6 2 -11.167 6 -15.5s9 -6.5 15 -6.5h200
c6 0 11.167 2.16699 15.5 6.5s6.5 9.5 6.5 15.5c0 5.33301 -2.16699 10.166 -6.5 14.499s-9.5 6.5 -15.5 6.5h-200v0zM932 -196c1.33301 -4.66699 0.5 -8.66699 -2.5 -12s-7.16699 -5 -12.5 -5h-902c-5.33301 0 -9.5 1.66699 -12.5 5s-3.83301 7.33301 -2.5 12l68 352
c1.33301 5.33301 3.83301 9.66602 7.5 12.999s8.16699 5 13.5 5h754c5.33301 0 10 -1.66699 14 -5s6.33301 -7.66602 7 -12.999zM818 656c0 5.33301 -1.83301 9.66602 -5.5 12.999s-8.16699 5 -13.5 5h-666c-5.33301 0 -9.83301 -1.66699 -13.5 -5
s-5.5 -7.66602 -5.5 -12.999v-426c0 -5.33301 1.83301 -9.83301 5.5 -13.5s8.16699 -5.5 13.5 -5.5h666c5.33301 0 9.83301 1.83301 13.5 5.5s5.5 8.16699 5.5 13.5v426zM840 703c6 0 11 -2 15 -6s6 -9 6 -15v-478c0 -6 -2 -11 -6 -15s-9 -6 -15 -6h-748c-6 0 -11 2 -15 6
s-6 9 -6 15v478c0 6 2 11 6 15s9 6 15 6h748v0z" />
    <glyph glyph-name="V" unicode="V" horiz-adv-x="719" 
d="M502 -93c22 -3.33301 42.5 -8.83301 61.5 -16.5s35.5 -16.667 49.5 -27s24.833 -22 32.5 -35s11.5 -26.833 11.5 -41.5h-414c0 14.667 4 28.5 12 41.5s19 24.667 33 35s30.5 19.333 49.5 27s39.5 13.167 61.5 16.5c8 1.33301 16.333 2.33301 25 3s17.334 1 26.001 1
c19.333 0 36.666 -1.33301 51.999 -4zM634 691c34 -44 57.666 -91.667 70.999 -143s17 -102.5 11 -153.5s-21.667 -100 -47 -147s-60 -87.5 -104 -121.5c-10 -8 -20.167 -15.333 -30.5 -22s-21.166 -13 -32.499 -19c-32.667 -16.667 -67 -28.667 -103 -36
c-36 -8 -72.5 -10.667 -109.5 -8s-72.833 10 -107.5 22s-67.5 28.833 -98.5 50.5s-58.833 48.167 -83.5 79.5l300 236l37 29l297 233v0zM170.999 703c12.667 0 24.833 -2.49902 36.5 -7.49902s21.667 -11.667 30 -20s15 -18.333 20 -30s7.5 -24.167 7.5 -37.5
c0 -19.333 -5.33301 -37 -16 -53c-9.33301 -13.333 -21.333 -23.666 -36 -30.999c-14.667 -6.66699 -28.667 -10 -42 -10s-25.833 2.5 -37.5 7.5s-21.667 11.667 -30 20s-15 18.166 -20 29.499s-7.5 23.666 -7.5 36.999c0 26.667 9.16699 49.167 27.5 67.5
s40.833 27.5 67.5 27.5zM321.998 474.001l-38.001 -29l-55 63c14.667 8.66699 26.334 19 35.001 31zM501.997 -76.999c-8.66699 1.33301 -17.166 2.33398 -25.499 3.00098s-17.166 1 -26.499 1c-8.66699 0 -17.334 -0.333008 -26.001 -1s-17 -1.66699 -25 -3v110
c17.333 3.33301 34.666 8.16602 51.999 14.499s34.333 13.833 51 22.5v-147v0z" />
    <glyph glyph-name="W" unicode="W" 
d="M496 140l-143 143l-52 52l-9 9c-5.33301 5.33301 -7.33301 12.666 -6 21.999s5.66602 17.666 12.999 24.999l13 13c9.33301 9.33301 19 14 29 14c6 0 12 -2.33301 18 -7l8 -9l53 -52l143 -143l52 -53l6 -5c5.33301 -5.33301 7.33301 -12.666 6 -21.999
s-5.66602 -17.666 -12.999 -24.999l-13 -13c-9.33301 -9.33301 -19 -14 -29 -14c-6 0 -12 2.33301 -18 7l-6 6zM892 46c10 -10 16.834 -21.499 20.501 -34.499s4.66699 -26.833 3 -41.5s-6.16699 -29.167 -13.5 -43.5s-17.333 -27.833 -30 -40.5l-55 -55
c-12.667 -12.667 -26.167 -22.667 -40.5 -30s-28.833 -11.833 -43.5 -13.5s-28.5 -0.666992 -41.5 3s-24.5 10.5 -34.5 20.5l-175 176c-16.667 16 -24.834 36.5 -24.501 61.5s8.16602 49.167 23.499 72.5l56 -56c0 -0.666992 0.333008 -1 1 -1
c-1.33301 -7.33301 0 -12.666 4 -15.999l176 -176c5.33301 -5.33301 12.5 -6.66602 21.5 -3.99902s17.5 7.66699 25.5 15l55 55c7.33301 8 12.333 16.5 15 25.5s1.33398 16.167 -3.99902 21.5l-176 176c-4 3.33301 -9.33301 4.66602 -16 3.99902l-1 1l-56 56
c23.333 15.333 47.5 23.166 72.5 23.499s45.5 -7.83398 61.5 -24.501l176 -175v0zM261.001 329.001c4 -4 8.99902 -5.33398 14.999 -4.00098l58 -57c-23.333 -15.333 -47.5 -23.166 -72.5 -23.499s-45.5 7.83398 -61.5 24.501l-176 176c-10 9.33301 -16.833 20.5 -20.5 33.5
s-4.66699 26.833 -3 41.5s6.16699 29.167 13.5 43.5s17.333 27.833 30 40.5l55 55c12.667 12.667 26.167 22.667 40.5 30s28.833 11.833 43.5 13.5s28.5 0.666992 41.5 -3s24.167 -10.5 33.5 -20.5l176 -176c16.667 -16 24.834 -36.5 24.501 -61.5
s-8.16602 -49.167 -23.499 -72.5l-57 58c1.33301 6 0 11 -4 15l-176 176c-5.33301 5.33301 -12.5 6.66602 -21.5 3.99902s-17.5 -7.66699 -25.5 -15l-55 -55c-7.33301 -8 -12.333 -16.5 -15 -25.5s-1.33398 -16.167 3.99902 -21.5l176 -176v0z" />
    <glyph glyph-name="X" unicode="X" horiz-adv-x="961" 
d="M598 408c3.33301 -9.33301 9.33496 -17.333 18.002 -24s17.667 -10 27 -10h263c32 0 50.167 -6.5 54.5 -19.5s-6.5 -29.167 -32.5 -48.5l-213 -154c-7.33301 -5.33301 -12.833 -13.333 -16.5 -24s-3.83398 -20.667 -0.500977 -30l81 -249
c10 -30.667 9.33301 -50.167 -2 -58.5s-30 -3.16602 -56 15.501l-212 155c-8 5.33301 -17.5 8 -28.5 8s-20.5 -2.66699 -28.5 -8l-212 -155c-26 -18.667 -44.667 -23.834 -56 -15.501s-12 27.833 -2 58.5l81 249c3.33301 9.33301 3.16602 19.333 -0.500977 30
s-9.16699 18.667 -16.5 24l-213 154c-26 19.333 -36.833 35.5 -32.5 48.5s22.5 19.5 54.5 19.5h263c9.33301 0 18.5 3.33301 27.5 10s15.167 14.667 18.5 24l81 249c10 30.667 22 46 36 46s25.667 -15.333 35 -46z" />
    <glyph glyph-name="Y" unicode="Y" horiz-adv-x="1368" 
d="M1368 519h-1368v184h1368v-184zM1368 144h-1368v184h1368v-184zM1368 -213h-1368v184h1368v-184z" />
    <glyph glyph-name="Z" unicode="Z" horiz-adv-x="966" 
d="M966 482l-44 -105l-442 185l-436 -185l-44 105l480 203l221 -93v111h135v-167zM481 511l344 -141v-583h-253v293h-178v-293h-253v583z" />
    <glyph glyph-name="bracketleft" unicode="[" horiz-adv-x="579" 
d="M286 231c24.667 -0.666992 48.002 3.50195 70.002 12.502s41.167 21.5 57.5 37.5s29.333 34.833 39 56.5s14.834 44.834 15.501 69.501s-3.5 48 -12.5 70s-21.333 41.167 -37 57.5s-34.334 29.333 -56.001 39s-44.834 14.834 -69.501 15.501s-48 -3.5 -70 -12.5
s-41.333 -21.333 -58 -37s-29.834 -34.334 -39.501 -56.001s-14.834 -44.834 -15.501 -69.501s3.5 -48 12.5 -70s21.5 -41.333 37.5 -58s34.833 -29.834 56.5 -39.501s44.834 -14.834 69.501 -15.501zM295.002 703.002c40 -0.666992 77.502 -9 112.502 -25
s65.333 -37.333 91 -64s45.667 -57.667 60 -93s21.166 -73 20.499 -113c-4 -34.667 -17 -80.667 -39 -138c-9.33301 -24.667 -21.333 -52.834 -36 -84.501s-32.667 -67.5 -54 -107.5s-46.333 -84.167 -75 -132.5s-61.667 -101.166 -99 -158.499
c-70 118 -123.833 217.5 -161.5 298.5s-64.834 146.167 -81.501 195.5c-20 58 -31 104.333 -33 139c0.666992 40 9 77.333 25 112s37.333 64.834 64 90.501s57.667 45.667 93 60s73 21.166 113 20.499z" />
    <glyph glyph-name="backslash" unicode="\" 
d="M458 35c28.667 0 55.834 5.5 81.501 16.5s48 26 67 45s34 41.167 45 66.5s16.5 52.666 16.5 81.999c0 28.667 -5.5 55.834 -16.5 81.501s-26 48 -45 67s-41.333 34 -67 45s-52.834 16.5 -81.501 16.5c-29.333 0 -56.666 -5.5 -81.999 -16.5s-47.5 -26 -66.5 -45
s-34 -41.333 -45 -67s-16.5 -52.834 -16.5 -81.501c0 -29.333 5.5 -56.666 16.5 -81.999s26 -47.5 45 -66.5s41.167 -34 66.5 -45s52.666 -16.5 81.999 -16.5zM825 172c-10 -50 -28.667 -95 -56 -135l64 -64l-103 -103l-64 64c-40 -27.333 -85 -46 -135 -56v-91h-146v91
c-50 10 -95 28.667 -135 56l-64 -64l-103 103l64 64c-27.333 40 -46 85 -56 135h-91v146h91c10 50 28.667 95 56 135l-64 64l103 103l64 -64c40 27.333 85 46 135 56v91h146v-91c50 -10 95 -28.667 135 -56l64 64l103 -103l-64 -64c27.333 -40 46 -85 56 -135h91v-146h-91z
" />
    <glyph glyph-name="bracketright" unicode="]" horiz-adv-x="814" 
d="M677 60c18.667 0 36.334 -3.49707 53.001 -10.4971s31.334 -16.667 44.001 -29s22.5 -26.833 29.5 -43.5s10.5 -34.334 10.5 -53.001c0 -19.333 -3.5 -37.166 -10.5 -53.499s-16.833 -30.833 -29.5 -43.5s-27.334 -22.5 -44.001 -29.5s-34.334 -10.5 -53.001 -10.5
s-36.334 3.5 -53.001 10.5s-31.167 16.833 -43.5 29.5s-22 27.167 -29 43.5s-10.5 34.166 -10.5 53.499c0 6.66699 0.333008 11.667 1 15l-327 194c-22.667 -16.667 -48.667 -25 -78 -25c-19.333 0 -37.166 3.5 -53.499 10.5s-30.833 16.833 -43.5 29.5
s-22.5 27.167 -29.5 43.5s-10.5 34.166 -10.5 53.499c0 18.667 3.5 36.334 10.5 53.001s16.833 31.334 29.5 44.001s27.167 22.5 43.5 29.5s34.166 10.5 53.499 10.5c29.333 0 55.333 -8.33301 78 -25l327 194c-0.666992 3.33301 -1 8.33301 -1 15
c0 18.667 3.5 36.334 10.5 53.001s16.667 31.334 29 44.001s26.833 22.5 43.5 29.5s34.334 10.5 53.001 10.5s36.334 -3.5 53.001 -10.5s31.334 -16.833 44.001 -29.5s22.5 -27.334 29.5 -44.001s10.5 -34.334 10.5 -53.001s-3.5 -36.334 -10.5 -53.001
s-16.833 -31.167 -29.5 -43.5s-27.334 -22 -44.001 -29s-34.334 -10.5 -53.001 -10.5c-14.667 0 -28.5 2.16699 -41.5 6.5s-25.167 10.166 -36.5 17.499l-326 -194v-15v-15l326 -194c11.333 7.33301 23.5 13.166 36.5 17.499s26.833 6.5 41.5 6.5z" />
    <glyph glyph-name="asciicircum" unicode="^" 
d="M625 -213l-181.002 0.00195312c0 60.667 -11.667 118 -35 172s-55 101 -95 141s-87 71.667 -141 95s-111.333 35 -172 35v181c86 0 166.833 -16.333 242.5 -49s141.834 -77.334 198.501 -134.001s101.334 -122.834 134.001 -198.501s49 -156.5 49 -242.5z
M915.998 -212.998l-180.999 -0.000976562c0 67.333 -8.66699 132.333 -26 195s-42 121.334 -74 176.001s-70.333 104.334 -115 149.001s-94.334 83 -149.001 115s-113.334 56.667 -176.001 74s-127.667 26 -195 26v181c84 0 165 -11 243 -33s151 -52.833 219 -92.5
s129.833 -87.334 185.5 -143.001s103.334 -117.5 143.001 -185.5s70.5 -141 92.5 -219s33 -159 33 -243zM305.999 -60.999c0 -21.333 -4 -41.166 -12 -59.499s-19 -34.333 -33 -48s-30.333 -24.5 -49 -32.5s-38.334 -12 -59.001 -12c-21.333 0 -41.166 4 -59.499 12
s-34.333 18.833 -48 32.5s-24.5 29.667 -32.5 48s-12 38.166 -12 59.499s4 41.333 12 60s18.833 34.834 32.5 48.501s29.667 24.5 48 32.5s38.166 12 59.499 12c20.667 0 40.334 -4 59.001 -12s35 -18.833 49 -32.5s25 -29.834 33 -48.501s12 -38.667 12 -60z" />
    <glyph glyph-name="underscore" unicode="_" 
d="M214 314c11.333 -11.333 23.0049 -24.333 35.0049 -39l35 -42c11.333 -13.333 21.666 -24.333 30.999 -33s17 -12.667 23 -12c17.333 1.33301 38.166 9.83301 62.499 25.5s50.5 34.667 78.5 57l86 70.5c29.333 24.667 57.666 47 84.999 67
c5.33301 4 13.333 8.66699 24 14s21.334 9.66602 32.001 12.999s20 5.16602 28 5.49902s12.667 -2.5 14 -8.5s-2.33398 -16 -11.001 -30s-24.334 -33 -47.001 -57c-32 -34.667 -66.167 -68 -102.5 -100s-71.5 -60.167 -105.5 -84.5s-65.333 -43.666 -94 -57.999
s-51.334 -21.166 -68.001 -20.499c-13.333 0.666992 -26.5 8 -39.5 22s-25 31.5 -36 52.5s-21 43.833 -30 68.5s-16.5 48 -22.5 70c-2.66699 8 -1 14.5 5 19.5s11.667 4.83301 17 -0.5zM458.005 686c-60.667 0 -117.834 -11.5 -171.501 -34.5s-100.5 -54.5 -140.5 -94.5
s-71.5 -86.833 -94.5 -140.5s-34.5 -110.834 -34.5 -171.501s11.5 -117.834 34.5 -171.501s54.5 -100.5 94.5 -140.5s86.833 -71.5 140.5 -94.5s110.834 -34.5 171.501 -34.5s117.834 11.5 171.501 34.5s100.5 54.5 140.5 94.5s71.5 86.833 94.5 140.5
s34.5 110.834 34.5 171.501s-11.5 117.834 -34.5 171.501s-54.5 100.5 -94.5 140.5s-86.833 71.5 -140.5 94.5s-110.834 34.5 -171.501 34.5zM458.005 -213c-63.333 0 -122.833 12 -178.5 36s-104.167 56.667 -145.5 98s-74 89.833 -98 145.5s-36 115.167 -36 178.5
s12 122.833 36 178.5s56.667 104.167 98 145.5s89.833 74 145.5 98s115.167 36 178.5 36s122.833 -12 178.5 -36s104.167 -56.667 145.5 -98s74 -89.833 98 -145.5s36 -115.167 36 -178.5s-12 -122.833 -36 -178.5s-56.667 -104.167 -98 -145.5s-89.833 -74 -145.5 -98
s-115.167 -36 -178.5 -36z" />
    <glyph glyph-name="grave" unicode="`" horiz-adv-x="901" 
d="M743 247c2 10 -0.000976562 19.167 -6.00098 27.5s-13.667 13.166 -23 14.499c-10 2 -19.167 0.166992 -27.5 -5.5s-13.5 -13.5 -15.5 -23.5l-68 -379c-1.33301 -10 0.833984 -19.167 6.50098 -27.5s13.5 -13.166 23.5 -14.499c10 -2 19 -0.166992 27 5.5
s13 13.5 15 23.5l68 379v0zM486.999 256c0 10 -3.5 18.667 -10.5 26s-15.833 11 -26.5 11c-10 0 -18.5 -3.66699 -25.5 -11s-10.5 -16 -10.5 -26v-384c0 -10.667 3.5 -19.5 10.5 -26.5s15.5 -10.5 25.5 -10.5c10.667 0 19.5 3.5 26.5 10.5s10.5 15.833 10.5 26.5v384z
M267.999 -161c10 1.33301 17.832 6.16602 23.499 14.499s7.83398 17.5 6.50098 27.5l-69 379c-1.33301 10 -6.16602 17.833 -14.499 23.5s-17.5 7.5 -27.5 5.5c-10 -1.33301 -17.833 -6.16602 -23.5 -14.499s-7.5 -17.5 -5.5 -27.5l68 -379
c1.33301 -10 6.16602 -17.833 14.499 -23.5s17.5 -7.5 27.5 -5.5zM840.998 341c16.667 0 30.833 -4.66699 42.5 -14s17.5 -20.666 17.5 -33.999l-85 -458c0 -13.333 -5.83301 -24.666 -17.5 -33.999s-25.834 -14 -42.501 -14h-611c-17.333 0 -31.833 4.66699 -43.5 14
s-17.5 20.666 -17.5 33.999l-84 458c0 13.333 5.83301 24.666 17.5 33.999s25.834 14 42.501 14h781v0zM498.997 643c-7.33301 7.33301 -11.6699 16.667 -13.0029 28c-1.33301 9.33301 1.33398 17.333 8.00098 24c6.66699 5.33301 14 8 22 8
c11.333 0 21.333 -4.33301 30 -13l223 -223c6.66699 -6.66699 10.334 -13.667 11.001 -21c0.666992 -1.33301 1 -2.33301 1 -3s0.333008 -1.66699 1 -3c0 -10 -3 -18 -9 -24c-6 -6.66699 -14.167 -9.5 -24.5 -8.5s-19.166 5.16699 -26.499 12.5l-26 26zM184.993 420.001
c-7.33301 -7.33301 -16.334 -11.5 -27.001 -12.5s-19 1.83301 -25 8.5c-6 6 -8.66699 14 -8 24c0 2.66699 0.333008 4.66699 1 6c2 8 6 15 12 21l222 223c10 8.66699 20.333 13 31 13c8.66699 0 15.667 -2.66699 21 -8c6.66699 -6.66699 9.33398 -14.667 8.00098 -24
c0 -10 -4.33301 -19.333 -13 -28l-196 -197l-26 -26v0zM836.992 446.001c17.333 0 32.332 -2.66699 44.999 -8s19 -11.666 19 -18.999v-41c0 -8 -6.33301 -14.667 -19 -20s-27.667 -8 -45 -8h-774c-17.333 0 -32.166 2.66699 -44.499 8s-18.5 12 -18.5 20v41
c0 7.33301 6.16699 13.666 18.5 18.999s27.166 8 44.499 8h39c-0.666992 -0.666992 -1 -2.33398 -1 -5.00098c-1.33301 -16.667 3.66699 -30.667 15 -42c10.667 -10.667 23.667 -16 39 -16c8.66699 0 17 1.83301 25 5.5s15.333 8.5 22 14.5l43 43h417l43 -43
c13.333 -13.333 29 -20 47 -20c14.667 0 27.334 5.33301 38.001 16c12 12 17.333 26 16 42c0 1.33301 -0.166992 2.33301 -0.5 3s-0.5 1.33398 -0.5 2.00098h32v0z" />
    <glyph glyph-name="a" unicode="a" horiz-adv-x="992" 
d="M718 -213l-222 323l-215 -323h-264l343 484l-360 432h267l235 -285l233 285h257l-354 -432l353 -484h-273z" />
    <glyph glyph-name="b" unicode="b" horiz-adv-x="1109" 
d="M857 412c13.333 4 23.499 12.168 30.499 24.501s8.83301 25.166 5.5 38.499c-4 13.333 -12.167 23.666 -24.5 30.999s-25.166 9 -38.499 5c-13.333 -3.33301 -23.666 -11.166 -30.999 -23.499s-9 -25.5 -5 -39.5c3.33301 -13.333 11.166 -23.5 23.499 -30.5
s25.5 -8.83301 39.5 -5.5zM788.999 295.001c13.333 3.33301 23.667 11.332 31 23.999s9 25.667 5 39c-3.33301 13.333 -11.166 23.5 -23.499 30.5s-25.5 8.83301 -39.5 5.5c-13.333 -3.33301 -23.5 -11.166 -30.5 -23.499s-8.83301 -25.5 -5.5 -39.5
c4 -13.333 12.167 -23.5 24.5 -30.5s25.166 -8.83301 38.499 -5.5zM672 363c13.333 3.33301 23.5 11.165 30.5 23.498s8.83301 25.5 5.5 39.5c-3.33301 13.333 -11.166 23.5 -23.499 30.5s-25.5 8.83301 -39.5 5.5c-13.333 -4 -23.5 -12.167 -30.5 -24.5
s-8.83301 -25.166 -5.5 -38.499s11.166 -23.666 23.499 -30.999s25.5 -9 39.5 -5zM713 578.999c-13.333 -4 -23.666 -12.168 -30.999 -24.501s-9 -25.166 -5 -38.499c3.33301 -13.333 11.166 -23.666 23.499 -30.999s25.166 -9 38.499 -5
c14 3.33301 24.5 11.166 31.5 23.499s8.83301 25.5 5.5 39.5c-4 13.333 -12.167 23.5 -24.5 30.5s-25.166 8.83301 -38.499 5.5zM361 289.998c11.333 3.33301 19.834 9.66699 25.501 19s6.83398 19.666 3.50098 30.999s-9.83301 19.833 -19.5 25.5
s-19.834 6.83398 -30.501 3.50098l-61 -16l-17 61c-3.33301 11.333 -9.66602 19.833 -18.999 25.5s-19.666 6.83398 -30.999 3.50098s-19.833 -9.83301 -25.5 -19.5s-6.83398 -19.834 -3.50098 -30.501l16 -61l-61 -17c-10.667 -3.33301 -18.834 -9.66602 -24.501 -18.999
s-7.16699 -19.666 -4.5 -30.999c3.33301 -11.333 9.83301 -19.833 19.5 -25.5s20.167 -6.83398 31.5 -3.50098l61 16l16 -61c3.33301 -11.333 9.66602 -19.833 18.999 -25.5s19.666 -6.83398 30.999 -3.50098s19.833 9.83301 25.5 19.5s6.83398 20.167 3.50098 31.5l-16 61
l61 16v0zM1054 404.999c24 -56 39.8281 -107.335 47.4951 -154.002s9.5 -87.334 5.5 -122.001s-13 -62.667 -27 -84s-30.333 -34.333 -49 -39c-12 -3.33301 -26.5 0.166992 -43.5 10.5s-36.333 23.833 -58 40.5l-72 54c-26.333 19.333 -55.166 36 -86.499 50
s-65.333 23.667 -102 29s-75.667 2.33301 -117 -9c-42 -11.333 -77.5 -28.333 -106.5 -51s-53.5 -48 -73.5 -76s-36.667 -56.833 -50 -86.5s-25.166 -57.167 -35.499 -82.5s-20.166 -46.833 -29.499 -64.5s-20.333 -28.167 -33 -31.5
c-18.667 -5.33301 -39.167 -2.16602 -61.5 9.50098s-44 31.5 -65 59.5s-40 64 -57 108s-28.833 96.333 -35.5 157c-6.66699 58 -6.5 112 0.5 162s18.333 94 34 132s34.834 69.167 57.501 93.5s46 39.833 70 46.5s46.5 9.33398 67.5 8.00098s42.167 -3.16602 63.5 -5.49902
s44 -3.5 68 -3.5s51.333 4 82 12s56.334 18.167 77.001 30.5s39.667 24.833 57 37.5s34.833 24.667 52.5 36s38.5 20.333 62.5 27s51.833 5 83.5 -5s64 -27.5 97 -52.5s64.833 -57.333 95.5 -97s57.667 -86.167 81 -139.5z" />
    <glyph glyph-name="c" unicode="c" horiz-adv-x="1391" 
d="M116 627l-98 76h3h1349h3l-98 -76l-119 -92l-415 -272v0l-8 -6l-8 -6v0l-29 -23l-30 23v0l-8 6l-8 6v0l-415 272zM1391 644v-799l-634 357zM115 -77l-115 -78v799l634 -442v0zM741 141l629 -354h-1349l629 354l46 -36z" />
    <glyph glyph-name="d" unicode="d" horiz-adv-x="1354" 
d="M113 629l-96 74h3h1314h3l-95 -74l-117 -90l-404 -313v0l-7 -6l-8 -6v0l-29 -22l-29 22v0l-7 6l-8 6v0l-404 313zM1354 694v-899l-617 420zM112 -129l-112 -76v899l618 -479v0zM722 204l612 -417h-1314l613 417l44 -35z" />
    <glyph glyph-name="e" unicode="e" horiz-adv-x="1227" 
d="M949 447c11.333 0 21 4 29 12s12 17.667 12 29s-4 20.833 -12 28.5s-17.667 11.5 -29 11.5s-20.833 -3.83301 -28.5 -11.5s-11.5 -17.167 -11.5 -28.5s3.83301 -21 11.5 -29s17.167 -12 28.5 -12zM1227 389l-84.001 -52c-2.66699 -44 -12.667 -90.5 -30 -139.5
s-44 -99.5 -80 -151.5c-59.333 -72.667 -137 -131.334 -233 -176.001c-41.333 -19.333 -88.5 -36.166 -141.5 -50.499s-112.5 -24 -178.5 -29s-138.833 -4 -218.5 3s-166.834 22.5 -261.501 46.5c14 4.66699 28 11.334 42 20.001s28 18.667 42 30s27.5 23.5 40.5 36.5
s25.167 26.167 36.5 39.5c26.667 30.667 53 64 79 100c27.333 -13.333 56 -24.5 86 -33.5s61.667 -13.5 95 -13.5c3.33301 0 6.5 0.166992 9.5 0.5s6.16699 0.5 9.5 0.5c42.667 2.66699 79.334 8.5 110.001 17.5s56.667 19.5 78 31.5s38.333 24.333 51 37
s22.334 24 29.001 34c14 21.333 22.667 43.166 26 65.499s1.33301 44.5 -6 66.5c-16.667 48 -47.5 84.667 -92.5 110s-103.833 38 -176.5 38h-18c-6 0 -12.667 -0.333008 -20 -1c-1.33301 0 -2.33301 -0.166992 -3 -0.5s-1.66699 -0.5 -3 -0.5
c2.66699 7.33301 5.16699 14.833 7.5 22.5s5.16602 15.167 8.49902 22.5c19.333 44.667 43 82.667 71 114s58.333 56.666 91 75.999s66.834 33 102.501 41s71.167 11 106.5 9s69.5 -8.66699 102.5 -20s63.5 -26.666 91.5 -45.999c68.667 -47.333 113.667 -110.333 135 -189z
M254.999 90c-26.667 13.333 -51.334 28.3301 -74.001 44.9971s-42.834 33.167 -60.501 49.5s-32.834 31.5 -45.501 45.5s-22 25.333 -28 34c5.33301 1.33301 11.5 3.5 18.5 6.5l26.5 11.5l66 27.5c25.333 10.333 52 20.5 80 30.5s56.167 19.167 84.5 27.5
s55.166 14.5 80.499 18.5l10.5 2l10.5 2c152.667 8 244.667 -34.667 276 -128c12.667 -35.333 7.33398 -70.666 -15.999 -105.999c-6 -9.33301 -14.667 -19.666 -26 -30.999s-26.666 -22.166 -45.999 -32.499s-43.166 -19.5 -71.499 -27.5s-62.166 -13.333 -101.499 -16
c-34 -2 -66.167 1 -96.5 9s-59.5 18.667 -87.5 32z" />
    <glyph glyph-name="f" unicode="f" horiz-adv-x="1016" 
d="M511 0c32.667 0 63.1729 1.16602 91.5059 3.49902s53.166 5.5 74.499 9.5s38.166 8.66699 50.499 14s18.5 11 18.5 17v1l-12 82c-1.33301 8.66699 -5.66602 17.334 -12.999 26.001s-14.666 14.667 -21.999 18c-3.33301 1.33301 -11.333 4 -24 8s-26.167 8.5 -40.5 13.5
s-27.5 10.167 -39.5 15.5s-19 10 -21 14c-1.33301 3.33301 -2.33301 7.66602 -3 12.999c-0.666992 4.66699 -0.833984 10 -0.500977 16s1.5 13.667 3.5 23c8.66699 12.667 15.667 27.334 21 44.001l1 -1c6.66699 0 12.334 3.66699 17.001 11s7.66699 14.666 9 21.999
c1.33301 8 1.66602 15.167 0.999023 21.5s-4.33398 9.5 -11.001 9.5h-2c5.33301 14 6.83301 27.833 4.5 41.5s-7.83301 26 -16.5 37s-20.334 20 -35.001 27s-32 10.5 -52 10.5s-37.333 -3.5 -52 -10.5s-26.334 -16 -35.001 -27s-14 -23.333 -16 -37s-0.333008 -27.5 5 -41.5
h-2c-6.66699 0 -10.334 -3.16699 -11.001 -9.5s-0.333984 -13.5 0.999023 -21.5c1.33301 -7.33301 4.33301 -14.666 9 -21.999s10 -11 16 -11c0.666992 0 1 0.166992 1 0.5s0.333008 0.5 1 0.5c4.66699 -15.333 11.334 -30 20.001 -44c2 -9.33301 3.16699 -17 3.5 -23
s0.166016 -11.333 -0.500977 -16c-0.666992 -5.33301 -1.66699 -9.66602 -3 -12.999c-2 -4 -8.83301 -8.66699 -20.5 -14s-24.667 -10.5 -39 -15.5s-28 -9.5 -41 -13.5s-21.167 -6.66699 -24.5 -8c-7.33301 -3.33301 -14.5 -9.33301 -21.5 -18
s-11.167 -17.334 -12.5 -26.001l-12 -83c0 -6 6.16699 -11.667 18.5 -17s29 -10 50 -14s45.833 -7.16699 74.5 -9.5s59 -3.5 91 -3.5zM788.006 702.999c27.333 0 50.498 -9.49805 69.498 -28.498s28.5 -42.167 28.5 -69.5v-720c0 -27.333 -9.5 -50.5 -28.5 -69.5
s-42.167 -28.5 -69.5 -28.5h-584c-27.333 0 -50.5 9.5 -69.5 28.5s-28.5 42.167 -28.5 69.5v25h-37c-19.333 0 -35.666 6.5 -48.999 19.5s-20 29.167 -20 48.5h208v1c0 18.667 -6.5 34.667 -19.5 48s-29.167 20 -48.5 20h-34v394h-37c-19.333 0 -35.666 6.66699 -48.999 20
s-20 29.666 -20 48.999h208c0 19.333 -6.5 35.666 -19.5 48.999s-29.167 20 -48.5 20h-34v26c0 27.333 9.5 50.5 28.5 69.5s42.167 28.5 69.5 28.5h584v0zM993.004 146.001c6 0 11.333 -2.16699 16 -6.5s7 -9.83301 7 -16.5v-120c0 -6 -2.33301 -11.333 -7 -16
s-10 -7 -16 -7h-52v166h52v0zM993.004 375.001c6 0 11.333 -2.16699 16 -6.5s7 -9.83301 7 -16.5v-120c0 -6.66699 -2.33301 -12.167 -7 -16.5s-10 -6.5 -16 -6.5h-52v166h52v0zM993.004 603.001c6 0 11.333 -2.16699 16 -6.5s7 -9.5 7 -15.5v-121
c0 -6 -2.33301 -11.333 -7 -16s-10 -7 -16 -7h-52v166h52v0z" />
    <glyph glyph-name="g" unicode="g" horiz-adv-x="589" 
d="M519 604c0 6 -2.16699 11 -6.5 15s-9.5 6 -15.5 6h-405c-6 0 -11.167 -2 -15.5 -6s-6.5 -9 -6.5 -15v-630c0 -5.33301 2.16699 -10.166 6.5 -14.499s9.5 -6.5 15.5 -6.5h405c6 0 11.167 2.16699 15.5 6.5s6.5 9.16602 6.5 14.499v630zM390 -116
c0 5.33301 -2 9.83301 -6 13.5s-8.66699 5.5 -14 5.5h-151c-5.33301 0 -10 -1.83301 -14 -5.5s-6 -8.16699 -6 -13.5v-26c0 -5.33301 2 -10 6 -14s8.66699 -6 14 -6h151c5.33301 0 10 2 14 6s6 8.66699 6 14v26zM491 696c13.333 -1.33301 26 -5 38 -11s22.5 -14 31.5 -24
s16 -21.167 21 -33.5s7.5 -25.166 7.5 -38.499v-688c0 -13.333 -2.5 -26.166 -7.5 -38.499s-12 -23.5 -21 -33.5s-19.5 -18.167 -31.5 -24.5s-24.667 -9.83301 -38 -10.5c-66 -5.33301 -131.5 -7.83301 -196.5 -7.5s-130.5 2.83301 -196.5 7.5
c-13.333 0.666992 -26 4.16699 -38 10.5s-22.5 14.5 -31.5 24.5s-16 21.167 -21 33.5s-7.5 25.166 -7.5 38.499v688c0 13.333 2.5 26.166 7.5 38.499s12 23.5 21 33.5s19.5 18 31.5 24s24.667 9.66699 38 11c130.667 10 261.667 10 393 0z" />
    <glyph glyph-name="h" unicode="h" 
d="M690 117v260l-181 -128zM241 107h434.001l-180 132l-32 -23c-1.33301 -0.666992 -3 -1 -5 -1c-2.66699 0 -4.33398 0.333008 -5.00098 1l-32 22zM673.001 386h-433l218 -152zM225.001 117l181 132l-181 126v-258zM686.001 403c6 0 11 -2.16895 15 -6.50195
s6 -9.16602 6 -14.499v-271c0 -5.33301 -1.33301 -9.66602 -4 -12.999l-2 -2c-4 -4 -9 -6 -15 -6h-457c-6 0 -11 2 -15 6s-6 9 -6 15v271c0 2 0.666992 5 2 9c0 2 0.333008 3.33301 1 4c0.666992 2 2.33398 3 5.00098 3c3.33301 3.33301 7.66602 5 12.999 5h457v0z
M458.001 -196.002c60.667 0 117.834 11.5 171.501 34.5s100.5 54.5 140.5 94.5s71.5 86.833 94.5 140.5s34.5 110.834 34.5 171.501s-11.5 117.834 -34.5 171.501s-54.5 100.5 -94.5 140.5s-86.833 71.5 -140.5 94.5s-110.834 34.5 -171.501 34.5
s-117.834 -11.5 -171.501 -34.5s-100.5 -54.5 -140.5 -94.5s-71.5 -86.833 -94.5 -140.5s-34.5 -110.834 -34.5 -171.501s11.5 -117.834 34.5 -171.501s54.5 -100.5 94.5 -140.5s86.833 -71.5 140.5 -94.5s110.834 -34.5 171.501 -34.5zM458.001 702.998
c63.333 0 122.833 -12 178.5 -36s104.167 -56.667 145.5 -98s74 -89.833 98 -145.5s36 -115.167 36 -178.5s-12 -122.833 -36 -178.5s-56.667 -104.167 -98 -145.5s-89.833 -74 -145.5 -98s-115.167 -36 -178.5 -36s-122.833 12 -178.5 36s-104.167 56.667 -145.5 98
s-74 89.833 -98 145.5s-36 115.167 -36 178.5s12 122.833 36 178.5s56.667 104.167 98 145.5s89.833 74 145.5 98s115.167 36 178.5 36z" />
    <glyph glyph-name="i" unicode="i" horiz-adv-x="1111" 
d="M557 400c-20.667 0 -40.167 4 -58.5 12s-34.333 18.833 -48 32.5s-24.5 29.667 -32.5 48s-12 37.833 -12 58.5s4 40.334 12 59.001s18.833 34.834 32.5 48.501s29.667 24.5 48 32.5s37.833 12 58.5 12s40.334 -4 59.001 -12s34.834 -18.833 48.501 -32.5
s24.5 -29.834 32.5 -48.501s12 -38.334 12 -59.001s-4 -40.167 -12 -58.5s-18.833 -34.333 -32.5 -48s-29.834 -24.5 -48.501 -32.5s-38.334 -12 -59.001 -12zM716 297c20 -18.667 38.333 -40.6709 55 -66.0039s30.834 -53.166 42.501 -83.499s20.667 -62.833 27 -97.5
s9.5 -70.667 9.5 -108c0 -13.333 -3 -26 -9 -38c-8 -16.667 -20.833 -32.167 -38.5 -46.5s-39 -26.666 -64 -36.999s-53 -18.5 -84 -24.5s-63.5 -9 -97.5 -9c-34.667 0 -67.5 3 -98.5 9s-59 14.167 -84 24.5s-46.333 22.666 -64 36.999s-30.5 29.833 -38.5 46.5
c-2.66699 6 -4.83398 12.167 -6.50098 18.5s-2.5 12.833 -2.5 19.5c0 4.66699 0.666992 10.334 2 17.001c2 70.667 14.833 135.334 38.5 194.001s54.834 106.334 93.501 143.001c23.333 22 48.333 39 75 51s55 18 85 18s58.167 -6 84.5 -18s51.166 -28.667 74.499 -50z
M870 392.996c-17.333 0 -33.5 3.33301 -48.5 10s-28.167 15.667 -39.5 27s-20.333 24.5 -27 39.5s-10 31.167 -10 48.5s3.33301 33.5 10 48.5s15.667 28.167 27 39.5s24.5 20.333 39.5 27s31.167 10 48.5 10s33.5 -3.33301 48.5 -10s28.167 -15.667 39.5 -27
s20.333 -24.5 27 -39.5s10 -31.167 10 -48.5s-3.33301 -33.5 -10 -48.5s-15.667 -28.167 -27 -39.5s-24.5 -20.333 -39.5 -27s-31.167 -10 -48.5 -10zM870 377.996c33.333 0 64.665 -8.99902 93.998 -26.999s54.833 -42.833 76.5 -74.5s38.834 -68.667 51.501 -111
s19 -87.5 19 -135.5c0 -17.333 -6.16699 -33.5 -18.5 -48.5s-29.166 -28.333 -50.499 -40s-46.166 -20.834 -74.499 -27.501s-58.833 -10.334 -91.5 -11.001c2 6.66699 3.66699 13.167 5 19.5s2 12.833 2 19.5c0 39.333 -3.5 77.333 -10.5 114s-16.833 71.334 -29.5 104.001
s-27.834 62.5 -45.501 89.5s-37.5 50.833 -59.5 71.5c19.333 18 40 32 62 42s45.333 15 70 15zM241.999 392.997c-17.333 0 -33.5 3.33301 -48.5 10s-28.167 15.667 -39.5 27s-20.333 24.5 -27 39.5s-10 31.167 -10 48.5s3.33301 33.5 10 48.5s15.667 28.167 27 39.5
s24.5 20.333 39.5 27s31.167 10 48.5 10s33.5 -3.33301 48.5 -10s28.167 -15.667 39.5 -27s20.333 -24.5 27 -39.5s10 -31.167 10 -48.5s-3.33301 -33.5 -10 -48.5s-15.667 -28.167 -27 -39.5s-24.5 -20.333 -39.5 -27s-31.167 -10 -48.5 -10zM231.999 -37.0029
c-0.666992 -3.33301 -0.99707 -6.83105 -0.99707 -10.498v-10.5c0 -13.333 2 -26.333 6 -39c-32.667 0 -63.334 3.5 -92.001 10.5s-53.834 16.167 -75.501 27.5s-38.667 24.666 -51 39.999s-18.5 31.666 -18.5 48.999c0 3.33301 0.666992 8.33301 2 15
c1.33301 46 8.5 89.333 21.5 130s30.167 76 51.5 106s46.333 53.667 75 71s59.334 26 92.001 26c24.667 0 48.167 -5 70.5 -15s43.166 -24.333 62.499 -43c-41.333 -39.333 -74.833 -89.833 -100.5 -151.5s-39.834 -130.167 -42.501 -205.5z" />
    <glyph glyph-name="j" unicode="j" horiz-adv-x="585" 
d="M532 622c0 8 -2.33301 14.833 -7 20.5s-10.667 8.5 -18 8.5h-430c-6.66699 0 -12.5 -2.83301 -17.5 -8.5s-7.5 -12.5 -7.5 -20.5v-654c0 -8 2.5 -14.833 7.5 -20.5s10.833 -8.5 17.5 -8.5h430c7.33301 0 13.333 2.83301 18 8.5s7 12.5 7 20.5v654zM370 -146
c4.66699 0 8.5 2 11.5 6s4.5 9 4.5 15c0 5.33301 -1.5 10 -4.5 14s-6.83301 6 -11.5 6h-139c-4.66699 0 -8.66699 -2 -12 -6s-5 -8.66699 -5 -14c0 -6 1.66699 -11 5 -15s7.33301 -6 12 -6h139v0zM554 703c8.66699 0 16 -3.66699 22 -11s9 -16 9 -26v-842
c0 -10 -3 -18.667 -9 -26s-13.333 -11 -22 -11h-524c-8 0 -15 3.66699 -21 11s-9 16 -9 26v842c0 10 3 18.667 9 26s13 11 21 11h524v0z" />
    <glyph glyph-name="k" unicode="k" horiz-adv-x="585" 
d="M292 -42c-20 6.66699 -37.499 16.332 -52.499 28.999s-27.167 25.667 -36.5 39c-12 15.333 -21.667 31.333 -29 48c-8 19.333 -15.667 43.333 -23 72c-6.66699 24.667 -13.834 55.834 -21.501 93.501s-15.167 82.5 -22.5 134.5v-416h185v0zM309.001 617.998
c20.667 -5.33301 38.5 -13.499 53.5 -24.499s27.5 -22.167 37.5 -33.5c12 -12.667 22 -26.334 30 -41.001c7.33301 -16 15 -36.333 23 -61c6.66699 -21.333 14 -48 22 -80s15.667 -70.333 23 -115v355h-189v0zM532.001 619.999c0 8.66699 -2.33301 16 -7 22s-10.667 9 -18 9
h-430c-6.66699 0 -12.5 -3 -17.5 -9s-7.5 -13.333 -7.5 -22v-690c0 -8.66699 2.5 -16 7.5 -22s10.833 -9 17.5 -9h430c7.33301 0 13.333 3 18 9s7 13.333 7 22v690zM370.001 -177.001c4.66699 0 8.5 2 11.5 6s4.5 8.66699 4.5 14s-1.5 10.166 -4.5 14.499
s-6.83301 6.5 -11.5 6.5h-139c-4.66699 0 -8.66699 -2.16699 -12 -6.5s-5 -9.16602 -5 -14.499s1.66699 -10 5 -14s7.33301 -6 12 -6h139v0zM554.001 702.999c8.66699 0 16 -3.66699 22 -11s9 -16 9 -26v-842c0 -10 -3 -18.667 -9 -26s-13.333 -11 -22 -11h-524
c-8 0 -15 3.66699 -21 11s-9 16 -9 26v842c0 10 3 18.667 9 26s13 11 21 11h524v0z" />
    <glyph glyph-name="l" unicode="l" horiz-adv-x="1113" 
d="M985 381c11.333 0 20.833 3.66699 28.5 11s11.5 16.666 11.5 27.999s-3.83301 20.666 -11.5 27.999s-17.167 11 -28.5 11c-10.667 0 -19.834 -3.66699 -27.501 -11s-11.5 -16.666 -11.5 -27.999s3.83301 -20.666 11.5 -27.999s16.834 -11 27.501 -11zM625 -99
c41.333 0 80.166 7.83301 116.499 23.5s68 37 95 64s48.333 58.667 64 95s23.5 75.166 23.5 116.499s-7.83301 80.166 -23.5 116.499s-37 68 -64 95s-58.667 48.333 -95 64s-75.166 23.5 -116.499 23.5s-80 -7.83301 -116 -23.5s-67.5 -37 -94.5 -64
s-48.333 -58.667 -64 -95s-23.5 -75.166 -23.5 -116.499s7.83301 -80.166 23.5 -116.499s37 -68 64 -95s58.5 -48.333 94.5 -64s74.667 -23.5 116 -23.5zM1035 570c21.333 0 39.665 -7.66797 54.998 -23.001s23 -33.666 23 -54.999v-627
c0 -21.333 -7.66699 -39.666 -23 -54.999s-33.666 -23 -54.999 -23h-957c-21.333 0 -39.666 7.66699 -54.999 23s-23 33.666 -23 54.999v627c0 21.333 7.66699 39.666 23 54.999s33.666 23 54.999 23h11v16c0 8.66699 3 16 9 22s13.333 9 22 9h160c8.66699 0 16 -3 22 -9
s9 -13.333 9 -22v-16h81c-1.33301 6.66699 -0.666016 13 2.00098 19l27 71c5.33301 11.333 14 21.333 26 30s24.667 13 38 13h280c13.333 0 26 -4.33301 38 -13s20.667 -18.667 26 -30l28 -71c2 -7.33301 2.66699 -13.666 2 -18.999h176v0zM758.999 72.999
c10.667 11.333 17.502 23.167 20.502 35.5s0.833008 21.833 -6.5 28.5c-7.33301 7.33301 -17 9.66602 -29 6.99902s-23.667 -9.66699 -35 -21s-18.333 -23 -21 -35s-0.333984 -21.667 6.99902 -29c6.66699 -7.33301 16.167 -9.66602 28.5 -6.99902s24.166 9.66699 35.499 21
zM599.001 233c10 10 18.001 20.666 24.001 31.999s10 22.5 12 33.5s1.83301 21.5 -0.5 31.5s-6.83301 18.333 -13.5 25s-15 11.167 -25 13.5s-20.5 2.5 -31.5 0.5s-22.167 -6 -33.5 -12s-22 -14 -32 -24s-18.167 -20.667 -24.5 -32s-10.5 -22.5 -12.5 -33.5
s-1.83301 -21.5 0.5 -31.5s7.16602 -18.333 14.499 -25c6.66699 -7.33301 15 -12.166 25 -14.499s20.5 -2.5 31.5 -0.5s22.167 6.16699 33.5 12.5s22 14.5 32 24.5zM625.002 426.999c31.333 0 60.833 -6 88.5 -18s51.667 -28.167 72 -48.5s36.5 -44.333 48.5 -72
s18 -57.167 18 -88.5s-6 -60.833 -18 -88.5s-28.167 -51.667 -48.5 -72s-44.333 -36.5 -72 -48.5s-57.167 -18 -88.5 -18s-60.833 6 -88.5 18s-51.667 28.167 -72 48.5s-36.5 44.333 -48.5 72s-18 57.167 -18 88.5s6 60.833 18 88.5s28.167 51.667 48.5 72
s44.333 36.5 72 48.5s57.167 18 88.5 18z" />
    <glyph glyph-name="m" unicode="m" horiz-adv-x="886" 
d="M657 -103c14 0 26.001 -4.99805 36.001 -14.998s15 -22.333 15 -37v-37c0 -6 -2 -11 -6 -15s-8.66699 -6 -14 -6h-490c-6 0 -11 2 -15 6s-6 9 -6 15v37c0 14.667 5 27 15 37s22.333 15 37 15h54c13.333 0 25.5 2 36.5 6s21 11.667 30 23s17 27.166 24 47.499
s13 47.166 18 80.499s8.83301 73.833 11.5 121.5s4.33398 104.5 5.00098 170.5c-14.667 7.33301 -26.667 18 -36 32s-14 29.667 -14 47c0 12 2.33301 23.333 7 34s11 20 19 28s17.5 14.333 28.5 19s22.5 7 34.5 7s23.333 -2.33301 34 -7s20 -11 28 -19
s14.333 -17.333 19 -28s7 -22 7 -34c0 -18 -5 -34.167 -15 -48.5s-22.667 -25.166 -38 -32.499c0.666992 -98.667 4 -177.334 10 -236.001s14.167 -103.667 24.5 -135s23.166 -51.833 38.499 -61.5s32.666 -14.5 51.999 -14.5h50v0zM173.001 224.002
c9.33301 -9.33301 14.001 -20.1699 14.001 -32.5029s-4.66699 -23.166 -14 -32.499c-10 -8.66699 -20.667 -13 -32 -13c-12 0 -22.667 4.66699 -32 14c-35.333 36 -62.333 76.667 -81 122s-28 93 -28 143s9.16699 97.5 27.5 142.5s45.5 85.5 81.5 121.5
c8.66699 9.33301 19.167 14.166 31.5 14.499s23.166 -4.16699 32.499 -13.5s14 -20.166 14 -32.499s-4.33301 -22.833 -13 -31.5c-27.333 -27.333 -48 -58.166 -62 -92.499s-21 -70.5 -21 -108.5s7 -74.167 21 -108.5s34.333 -65.166 61 -92.499zM777.002 688.998
c35.333 -36 62.334 -76.4961 81.001 -121.496s28 -92.5 28 -142.5s-9.33301 -97.667 -28 -143s-45.667 -86 -81 -122c-9.33301 -9.33301 -20 -14 -32 -14c-12.667 0 -23.334 4.33301 -32.001 13c-9.33301 9.33301 -14.166 20.166 -14.499 32.499s4.16699 23.166 13.5 32.499
c26.667 27.333 47.167 58.166 61.5 92.499s21.5 70.5 21.5 108.5s-7.16699 74.167 -21.5 108.5s-34.833 65.166 -61.5 92.499c-9.33301 8.66699 -13.833 19.167 -13.5 31.5s5.16602 23.166 14.499 32.499s20 13.833 32 13.5s22.667 -5.16602 32 -14.499zM603.003 285.002
c-8.66699 9.33301 -12.334 20.335 -11.001 33.002s6.66602 23 15.999 31c24 20 36 45.333 36 76c0 30 -12 55 -36 75c-9.33301 8.66699 -14.666 19.167 -15.999 31.5s2.33398 23.5 11.001 33.5c8 9.33301 18.167 14.666 30.5 15.999s23.5 -2.33398 33.5 -11.001
c21.333 -18 38 -39.667 50 -65s18 -52 18 -80s-6 -54.833 -18 -80.5s-28.667 -47.5 -50 -65.5c-9.33301 -7.33301 -19 -11 -29 -11c-14 0 -25.667 5.66699 -35 17zM219.003 279.004c-22 18 -38.999 39.8311 -50.999 65.498s-18 52.5 -18 80.5s6 54.667 18 80s29 47 51 65
c9.33301 8.66699 20.333 12.334 33 11.001s23 -6.66602 31 -15.999c8 -10 11.5 -21.167 10.5 -33.5s-6.5 -22.833 -16.5 -31.5c-24 -20 -36 -45 -36 -75c0 -30.667 12 -56 36 -76c10 -8 15.5 -18.333 16.5 -31s-2.5 -23.667 -10.5 -33c-9.33301 -11.333 -21 -17 -35 -17
c-10.667 0 -20.334 3.66699 -29.001 11z" />
    <glyph glyph-name="n" unicode="n" horiz-adv-x="777" 
d="M389 -21c14 0 26 5 36 15s15 22 15 36c0 14.667 -5 27 -15 37s-22 15 -36 15c-14.667 0 -27 -5 -37 -15s-15 -22.333 -15 -37c0 -14 5 -26 15 -36s22.333 -15 37 -15zM389 207c-9.33301 0 -17.166 -3.16699 -23.499 -9.5s-9.5 -14.166 -9.5 -23.499s3.16699 -17 9.5 -23
s14.166 -9 23.499 -9s17 3 23 9s9 13.667 9 23s-3 17.166 -9 23.499s-13.667 9.5 -23 9.5zM666 -149c8.66699 0 16.1602 -2.99805 22.4932 -8.99805s9.5 -13.667 9.5 -23s-3.16699 -17 -9.5 -23s-13.833 -9 -22.5 -9h-111c-9.33301 0 -17 3 -23 9s-9 13.667 -9 23
c0 6 2.33301 12.667 7 20c-7.33301 12.667 -23.166 24.5 -47.499 35.5s-55.5 16.5 -93.5 16.5c-38.667 0 -70.167 -5.5 -94.5 -16.5s-40.166 -22.833 -47.499 -35.5c4.66699 -5.33301 7 -12 7 -20c0 -9.33301 -3 -17 -9 -23s-13.667 -9 -23 -9h-110c-9.33301 0 -17 3 -23 9
s-9 13.667 -9 23s3.16699 17 9.5 23s13.833 9 22.5 9c8 0 15.833 2.5 23.5 7.5s12.834 9.16699 15.501 12.5c26.667 34.667 50.667 73.834 72 117.501s40 88.834 56 135.501s29.667 93.167 41 139.5s20.333 89.833 27 130.5c-11.333 7.33301 -20.166 16.666 -26.499 27.999
s-9.5 23.666 -9.5 36.999c0 10.667 2 20.667 6 30s9.5 17.5 16.5 24.5s15.333 12.5 25 16.5s19.834 6 30.501 6c21.333 0 39.5 -7.5 54.5 -22.5s22.5 -33.167 22.5 -54.5c0 -14 -3.16699 -26.5 -9.5 -37.5s-14.833 -20.167 -25.5 -27.5
c6.66699 -40.667 15.5 -84.167 26.5 -130.5s24.667 -92.833 41 -139.5s35 -91.834 56 -135.501s44.833 -82.834 71.5 -117.501c2.66699 -3.33301 7.83398 -7.5 15.501 -12.5s15.834 -7.5 24.501 -7.5zM696.993 459.002c0 33.333 -6.16699 65.1689 -18.5 95.502
s-30.166 57.166 -53.499 80.499c-7.33301 8 -11 17.5 -11 28.5s3.66699 20.5 11 28.5c8 7.33301 17.5 11 28.5 11s20.5 -4 28.5 -12c30.667 -31.333 54.167 -66.833 70.5 -106.5s24.5 -81.5 24.5 -125.5s-8.16699 -85.833 -24.5 -125.5s-39.833 -75.5 -70.5 -107.5
c-8 -8 -17.667 -12 -29 -12c-10.667 0 -20 4 -28 12c-7.33301 7.33301 -11 16.666 -11 27.999s3.66699 21 11 29c23.333 23.333 41.166 50 53.499 80s18.5 62 18.5 96zM528.993 336.005c-7.33301 8.66699 -10.502 18.333 -9.50195 29s5.83301 19.667 14.5 27
c21.333 18 32 40.333 32 67c-1.33301 26.667 -12 48.667 -32 66c-8.66699 7.33301 -13.5 16.5 -14.5 27.5s2.16699 20.833 9.5 29.5s16.333 13.5 27 14.5s20.334 -2.16699 29.001 -9.5c19.333 -16 34.166 -35.167 44.499 -57.5s15.5 -45.833 15.5 -70.5
c0.666992 -24.667 -4.33301 -48.167 -15 -70.5s-25.667 -41.5 -45 -57.5c-7.33301 -6 -15.666 -9 -24.999 -9c-13.333 0 -23.666 4.66699 -30.999 14zM123.991 214.004c-11.333 0 -21 3.99707 -29 11.9971c-30.667 32 -54.167 67.833 -70.5 107.5s-24.5 81.5 -24.5 125.5
s8.16699 85.833 24.5 125.5s39.833 75.167 70.5 106.5c8 8 17.5 12 28.5 12s20.5 -3.66699 28.5 -11c8 -8 12 -17.5 12 -28.5s-4 -20.5 -12 -28.5c-23.333 -23.333 -41.166 -50.166 -53.499 -80.499s-18.5 -62.166 -18.5 -95.499c0 -34 6.16699 -66 18.5 -96
s30.166 -56.667 53.499 -80c8 -8 12 -17.667 12 -29s-4 -20.666 -12 -27.999c-8 -8 -17.333 -12 -28 -12zM191.991 331.001c-19.333 16 -34.167 35.167 -44.5 57.5s-15.5 45.833 -15.5 70.5s5.16699 48 15.5 70s25.166 41.333 44.499 58
c8.66699 7.33301 18.334 10.333 29.001 9s19.667 -6 27 -14c7.33301 -8.66699 10.5 -18.5 9.5 -29.5s-5.83301 -20.167 -14.5 -27.5c-20.667 -17.333 -31 -39.333 -31 -66c0 -27.333 10.333 -49.666 31 -66.999c8.66699 -7.33301 13.5 -16.333 14.5 -27
s-2.16699 -20.334 -9.5 -29.001c-7.33301 -9.33301 -17.333 -14 -30 -14c-9.33301 0 -18 3 -26 9z" />
    <glyph glyph-name="o" unicode="o" 
d="M687 65l1 104h-149v-23h-1v-133h99l-182 -226l-179 229l104 -1v154h-21v2h-136v-100l-223 183l226 179l-1 -104h155v15h1v133h-99l182 226l179 -229l-104 1v-146h18v-2h133v100l226 -182z" />
    <glyph glyph-name="p" unicode="p" horiz-adv-x="1038" 
d="M527 -213c-52 28 -100.333 59.167 -145 93.5s-84 66.833 -118 97.5c-39.333 36 -75.666 71.667 -108.999 107c-32 37.333 -59.667 75.666 -83 114.999c-10 16.667 -19.833 34.5 -29.5 53.5s-17.834 38.333 -24.501 58s-11.667 39.667 -15 60s-4 40.166 -2 59.499
c0 30 6.5 61.167 19.5 93.5s31 61.666 54 87.999s50.833 48 83.5 65s69 25.5 109 25.5c30 -2 60.333 -9.33301 91 -22c12.667 -5.33301 26 -12.333 40 -21s28 -19.167 42 -31.5s27.833 -26.666 41.5 -42.999s26.167 -35.5 37.5 -57.5h1c22.667 44 48.5 77.667 77.5 101
s56.5 40.666 82.5 51.999c30.667 12.667 61.334 20 92.001 22c40 0 76.333 -8.5 109 -25.5s60.5 -38.667 83.5 -65s40.833 -55.666 53.5 -87.999s19 -63.5 19 -93.5c2 -19.333 1.33301 -39.166 -2 -59.499s-8.5 -40.333 -15.5 -60s-15.167 -39 -24.5 -58
s-19 -36.833 -29 -53.5c-24 -39.333 -51.667 -77.666 -83 -114.999c-33.333 -35.333 -69 -71 -107 -107c-32.667 -30.667 -70.334 -63.167 -113.001 -97.5s-87.667 -65.5 -135 -93.5h-1z" />
    <glyph glyph-name="q" unicode="q" 
d="M466 464c29.333 0 56.999 -5.66895 82.999 -17.002s48.667 -26.666 68 -45.999s34.666 -42 45.999 -68s17 -53.667 17 -83s-5.66699 -57 -17 -83s-26.666 -48.667 -45.999 -68s-42 -34.666 -68 -45.999s-53.667 -17 -83 -17s-57 5.66699 -83 17
s-48.667 26.666 -68 45.999s-34.666 42 -45.999 68s-17 53.667 -17 83c0 6 2.66699 9 8 9c6 0 9 -3 9 -9c0 -27.333 5.16699 -53 15.5 -77s24.333 -44.833 42 -62.5s38.5 -31.667 62.5 -42s49.667 -15.5 77 -15.5s53 5.16699 77 15.5s44.833 24.333 62.5 42
s31.667 38.5 42 62.5s15.5 49.667 15.5 77s-5.16699 53 -15.5 77s-24.333 44.833 -42 62.5s-38.5 31.667 -62.5 42s-49.667 15.5 -77 15.5c-26.667 0 -52.334 -5 -77.001 -15l32 -17c5.33301 -3.33301 6.66602 -7.33301 3.99902 -12c-2 -3.33301 -4.66699 -5 -8 -5
c-0.666992 0 -1.16699 0.166992 -1.5 0.5s-1.16602 0.5 -2.49902 0.5l-46 25c-4 2.66699 -5.33301 6 -4 10l15 56c1.33301 5.33301 5 7.33301 11 6c5.33301 -1.33301 7.33301 -4.66602 6 -9.99902l-10 -38c12.667 5.33301 25.834 9.33301 39.501 12s27.5 4 41.5 4z
M457.999 -196.002c60.667 0 117.834 11.5 171.501 34.5s100.5 54.5 140.5 94.5s71.5 86.833 94.5 140.5s34.5 110.834 34.5 171.501s-11.5 117.834 -34.5 171.501s-54.5 100.5 -94.5 140.5s-86.833 71.5 -140.5 94.5s-110.834 34.5 -171.501 34.5
s-117.834 -11.5 -171.501 -34.5s-100.5 -54.5 -140.5 -94.5s-71.5 -86.833 -94.5 -140.5s-34.5 -110.834 -34.5 -171.501s11.5 -117.834 34.5 -171.501s54.5 -100.5 94.5 -140.5s86.833 -71.5 140.5 -94.5s110.834 -34.5 171.501 -34.5zM457.999 702.998
c63.333 0 122.833 -12 178.5 -36s104.167 -56.667 145.5 -98s74 -89.833 98 -145.5s36 -115.167 36 -178.5s-12 -122.833 -36 -178.5s-56.667 -104.167 -98 -145.5s-89.833 -74 -145.5 -98s-115.167 -36 -178.5 -36s-122.833 12 -178.5 36s-104.167 56.667 -145.5 98
s-74 89.833 -98 145.5s-36 115.167 -36 178.5s12 122.833 36 178.5s56.667 104.167 98 145.5s89.833 74 145.5 98s115.167 36 178.5 36z" />
    <glyph glyph-name="r" unicode="r" 
d="M667 252c0.666992 -0.666992 1 -2.33301 1 -5c0 -2 -0.333008 -3.33301 -1 -4l-66 -109c-2 -2.66699 -4.66699 -4 -8 -4c-2 0 -3.33301 0.333008 -4 1c-4.66699 2.66699 -5.66699 6.66699 -3 12l58 95h-395c-6 0 -9 3 -9 9v1c0 5.33301 3 8 9 8h395l-58 96
c-2.66699 4.66699 -1.66699 8.66699 3 12c4.66699 2.66699 8.66699 1.66699 12 -3l66 -109v0zM458 -195.999c60.667 0 117.834 11.5 171.501 34.5s100.5 54.5 140.5 94.5s71.5 86.833 94.5 140.5s34.5 110.834 34.5 171.501s-11.5 117.834 -34.5 171.501
s-54.5 100.5 -94.5 140.5s-86.833 71.5 -140.5 94.5s-110.834 34.5 -171.501 34.5s-117.834 -11.5 -171.501 -34.5s-100.5 -54.5 -140.5 -94.5s-71.5 -86.833 -94.5 -140.5s-34.5 -110.834 -34.5 -171.501s11.5 -117.834 34.5 -171.501s54.5 -100.5 94.5 -140.5
s86.833 -71.5 140.5 -94.5s110.834 -34.5 171.501 -34.5zM458 703.001c63.333 0 122.833 -12 178.5 -36s104.167 -56.667 145.5 -98s74 -89.833 98 -145.5s36 -115.167 36 -178.5s-12 -122.833 -36 -178.5s-56.667 -104.167 -98 -145.5s-89.833 -74 -145.5 -98
s-115.167 -36 -178.5 -36s-122.833 12 -178.5 36s-104.167 56.667 -145.5 98s-74 89.833 -98 145.5s-36 115.167 -36 178.5s12 122.833 36 178.5s56.667 104.167 98 145.5s89.833 74 145.5 98s115.167 36 178.5 36z" />
    <glyph glyph-name="s" unicode="s" 
d="M664 256c6 0 9 -3 9 -9s-3 -9 -9 -9h-395l58 -96c2.66699 -5.33301 1.66699 -9 -3 -11c-1.33301 -1.33301 -2.66602 -2 -3.99902 -2c-2.66699 0 -5.33398 1.33301 -8.00098 4l-66 109c-0.666992 1.33301 -1 3 -1 5s0.333008 3.66699 1 5l66 108c4 5.33301 8 6.33301 12 3
c4.66699 -2.66699 5.66699 -6.66699 3 -12l-58 -95h395v0zM458 -196c60.667 0 117.834 11.5 171.501 34.5s100.5 54.5 140.5 94.5s71.5 86.833 94.5 140.5s34.5 110.834 34.5 171.501s-11.5 117.834 -34.5 171.501s-54.5 100.5 -94.5 140.5s-86.833 71.5 -140.5 94.5
s-110.834 34.5 -171.501 34.5s-117.834 -11.5 -171.501 -34.5s-100.5 -54.5 -140.5 -94.5s-71.5 -86.833 -94.5 -140.5s-34.5 -110.834 -34.5 -171.501s11.5 -117.834 34.5 -171.501s54.5 -100.5 94.5 -140.5s86.833 -71.5 140.5 -94.5s110.834 -34.5 171.501 -34.5z
M458 703c63.333 0 122.833 -12 178.5 -36s104.167 -56.667 145.5 -98s74 -89.833 98 -145.5s36 -115.167 36 -178.5s-12 -122.833 -36 -178.5s-56.667 -104.167 -98 -145.5s-89.833 -74 -145.5 -98s-115.167 -36 -178.5 -36s-122.833 12 -178.5 36
s-104.167 56.667 -145.5 98s-74 89.833 -98 145.5s-36 115.167 -36 178.5s12 122.833 36 178.5s56.667 104.167 98 145.5s89.833 74 145.5 98s115.167 36 178.5 36z" />
    <glyph glyph-name="t" unicode="t" 
d="M458 -196c60.667 0 117.834 11.5 171.501 34.5s100.5 54.5 140.5 94.5s71.5 86.833 94.5 140.5s34.5 110.834 34.5 171.501s-11.5 117.834 -34.5 171.501s-54.5 100.5 -94.5 140.5s-86.833 71.5 -140.5 94.5s-110.834 34.5 -171.501 34.5s-117.834 -11.5 -171.501 -34.5
s-100.5 -54.5 -140.5 -94.5s-71.5 -86.833 -94.5 -140.5s-34.5 -110.834 -34.5 -171.501s11.5 -117.834 34.5 -171.501s54.5 -100.5 94.5 -140.5s86.833 -71.5 140.5 -94.5s110.834 -34.5 171.501 -34.5zM458 703c63.333 0 122.833 -12 178.5 -36s104.167 -56.667 145.5 -98
s74 -89.833 98 -145.5s36 -115.167 36 -178.5s-12 -122.833 -36 -178.5s-56.667 -104.167 -98 -145.5s-89.833 -74 -145.5 -98s-115.167 -36 -178.5 -36s-122.833 12 -178.5 36s-104.167 56.667 -145.5 98s-74 89.833 -98 145.5s-36 115.167 -36 178.5s12 122.833 36 178.5
s56.667 104.167 98 145.5s89.833 74 145.5 98s115.167 36 178.5 36zM294 269c9.33301 0 17.333 -3.33301 24 -10s10 -14.667 10 -24s-3.33301 -17.333 -10 -24s-14.667 -10 -24 -10s-17.5 3.33301 -24.5 10s-10.5 14.667 -10.5 24s3.5 17.333 10.5 24s15.167 10 24.5 10z
M454 269c9.33301 0 17.333 -3.33301 24 -10s10 -14.667 10 -24s-3.33301 -17.333 -10 -24s-14.667 -10 -24 -10s-17.5 3.33301 -24.5 10s-10.5 14.667 -10.5 24s3.5 17.333 10.5 24s15.167 10 24.5 10zM614 269c9.33301 0 17.333 -3.33301 24 -10s10 -14.667 10 -24
s-3.33301 -17.333 -10 -24s-14.667 -10 -24 -10s-17.5 3.33301 -24.5 10s-10.5 14.667 -10.5 24s3.5 17.333 10.5 24s15.167 10 24.5 10z" />
    <glyph glyph-name="u" unicode="u" 
d="M458 -196c60.667 0 117.834 11.5 171.501 34.5s100.5 54.5 140.5 94.5s71.5 86.833 94.5 140.5s34.5 110.834 34.5 171.501s-11.5 117.834 -34.5 171.501s-54.5 100.5 -94.5 140.5s-86.833 71.5 -140.5 94.5s-110.834 34.5 -171.501 34.5s-117.834 -11.5 -171.501 -34.5
s-100.5 -54.5 -140.5 -94.5s-71.5 -86.833 -94.5 -140.5s-34.5 -110.834 -34.5 -171.501s11.5 -117.834 34.5 -171.501s54.5 -100.5 94.5 -140.5s86.833 -71.5 140.5 -94.5s110.834 -34.5 171.501 -34.5zM458 703c63.333 0 122.833 -12 178.5 -36s104.167 -56.667 145.5 -98
s74 -89.833 98 -145.5s36 -115.167 36 -178.5s-12 -122.833 -36 -178.5s-56.667 -104.167 -98 -145.5s-89.833 -74 -145.5 -98s-115.167 -36 -178.5 -36s-122.833 12 -178.5 36s-104.167 56.667 -145.5 98s-74 89.833 -98 145.5s-36 115.167 -36 178.5s12 122.833 36 178.5
s56.667 104.167 98 145.5s89.833 74 145.5 98s115.167 36 178.5 36zM657 441c5.33301 -5.33301 5.33301 -11 0 -17l-180 -179l180 -179c5.33301 -6 5.33301 -11.667 0 -17c-2.66699 -2.66699 -5.66699 -4 -9 -4s-6.33301 1.33301 -9 4l-179 179l-179 -179
c-2 -2.66699 -5 -4 -9 -4c-3.33301 0 -6 1.33301 -8 4c-6 5.33301 -6 11 0 17l179 179l-179 179c-6 6 -6 11.667 0 17c5.33301 6 11 6 17 0l179 -179l179 179c6 6 12 6 18 0z" />
    <glyph glyph-name="v" unicode="v" 
d="M458 -196c60.667 0 117.834 11.5 171.501 34.5s100.5 54.5 140.5 94.5s71.5 86.833 94.5 140.5s34.5 110.834 34.5 171.501s-11.5 117.834 -34.5 171.501s-54.5 100.5 -94.5 140.5s-86.833 71.5 -140.5 94.5s-110.834 34.5 -171.501 34.5s-117.834 -11.5 -171.501 -34.5
s-100.5 -54.5 -140.5 -94.5s-71.5 -86.833 -94.5 -140.5s-34.5 -110.834 -34.5 -171.501s11.5 -117.834 34.5 -171.501s54.5 -100.5 94.5 -140.5s86.833 -71.5 140.5 -94.5s110.834 -34.5 171.501 -34.5zM458 703c63.333 0 122.833 -12 178.5 -36s104.167 -56.667 145.5 -98
s74 -89.833 98 -145.5s36 -115.167 36 -178.5s-12 -122.833 -36 -178.5s-56.667 -104.167 -98 -145.5s-89.833 -74 -145.5 -98s-115.167 -36 -178.5 -36s-122.833 12 -178.5 36s-104.167 56.667 -145.5 98s-74 89.833 -98 145.5s-36 115.167 -36 178.5s12 122.833 36 178.5
s56.667 104.167 98 145.5s89.833 74 145.5 98s115.167 36 178.5 36zM657 441c5.33301 -5.33301 5.33301 -11 0 -17l-180 -179l180 -179c5.33301 -6 5.33301 -11.667 0 -17c-2.66699 -2.66699 -5.66699 -4 -9 -4s-6.33301 1.33301 -9 4l-179 179l-179 -179
c-2 -2.66699 -5 -4 -9 -4c-3.33301 0 -6 1.33301 -8 4c-6 5.33301 -6 11 0 17l179 179l-179 179c-6 6 -6 11.667 0 17c5.33301 6 11 6 17 0l179 -179l179 179c6 6 12 6 18 0z" />
    <glyph glyph-name="w" unicode="w" 
d="M435 36h74v298h-74v-298zM424 435c0 -12.667 4.66602 -23.001 13.999 -31.001c9.33301 -9.33301 20.333 -14 33 -14c14.667 0 26.334 4.33301 35.001 13c9.33301 8 14 18.667 14 32c0 12 -4.66699 22.667 -14 32c-10 8.66699 -21.667 13 -35 13
c-12.667 0 -23.667 -4.66699 -33 -14s-14 -19.666 -14 -30.999zM457.999 -196.001c60.667 0 117.834 11.5 171.501 34.5s100.5 54.5 140.5 94.5s71.5 86.833 94.5 140.5s34.5 110.834 34.5 171.501s-11.5 117.834 -34.5 171.501s-54.5 100.5 -94.5 140.5
s-86.833 71.5 -140.5 94.5s-110.834 34.5 -171.501 34.5s-117.834 -11.5 -171.501 -34.5s-100.5 -54.5 -140.5 -94.5s-71.5 -86.833 -94.5 -140.5s-34.5 -110.834 -34.5 -171.501s11.5 -117.834 34.5 -171.501s54.5 -100.5 94.5 -140.5s86.833 -71.5 140.5 -94.5
s110.834 -34.5 171.501 -34.5zM457.999 702.999c63.333 0 122.833 -12 178.5 -36s104.167 -56.667 145.5 -98s74 -89.833 98 -145.5s36 -115.167 36 -178.5s-12 -122.833 -36 -178.5s-56.667 -104.167 -98 -145.5s-89.833 -74 -145.5 -98s-115.167 -36 -178.5 -36
s-122.833 12 -178.5 36s-104.167 56.667 -145.5 98s-74 89.833 -98 145.5s-36 115.167 -36 178.5s12 122.833 36 178.5s56.667 104.167 98 145.5s89.833 74 145.5 98s115.167 36 178.5 36z" />
    <glyph glyph-name="x" unicode="x" 
d="M659 66l-140 186l127 169h-132l-67 -95l-66 95h-136l128 -169l-141 -186h135l78 109l76 -109h138zM880 423c24 -55.333 36 -114.666 36 -177.999c0 -64 -12 -123.333 -36 -178c-24 -56 -56.667 -104.667 -98 -146s-90 -74 -146 -98
c-55.333 -24 -114.666 -36 -177.999 -36s-123 12 -179 36c-55.333 24 -103.666 56.667 -144.999 98s-74 90 -98 146c-24 54.667 -36 114 -36 178c0 63.333 12 122.666 36 177.999c24 56 56.667 104.667 98 146s89.666 74 144.999 98c56 24 115.667 36 179 36
s122.666 -12 177.999 -36c56 -24 104.667 -56.667 146 -98s74 -90 98 -146z" />
    <glyph glyph-name="y" unicode="y" 
d="M516 452c3.33301 8.66699 4.99805 17.001 4.99805 25.001c0 6.66699 -1.66699 15 -5 25c-4 8 -8.66699 14.667 -14 20c-6 6 -13.333 10.667 -22 14c-10 3.33301 -18.667 5 -26 5c-10 0 -18.667 -1.66699 -26 -5c-6 -2.66699 -13 -7.33398 -21 -14.001
c-1.33301 -1.33301 -2.83301 -3 -4.5 -5s-3.16699 -3.66699 -4.5 -5c-1.33301 -2 -3.33301 -5.66699 -6 -11c-3.33301 -6.66699 -5 -14.667 -5 -24c0 -16.667 6.66699 -31.667 20 -45c12.667 -12.667 28.334 -19 47.001 -19c9.33301 0 18 1.66699 26 5
c3.33301 1.33301 7 3 11 5s7.66699 4.66699 11 8c6.66699 8 11.334 15 14.001 21zM512.998 364.001h-117v-355h117v355zM879.998 423.001c24 -55.333 36 -114.666 36 -177.999c0 -64 -12 -123.333 -36 -178c-24 -56 -56.667 -104.667 -98 -146s-90 -74 -146 -98
c-55.333 -24 -114.666 -36 -177.999 -36s-123 12 -179 36c-55.333 24 -103.666 56.667 -144.999 98s-74 90 -98 146c-24 54.667 -36 114 -36 178c0 63.333 12 122.666 36 177.999c24 56 56.667 104.667 98 146s89.666 74 144.999 98c56 24 115.667 36 179 36
s122.666 -12 177.999 -36c56 -24 104.667 -56.667 146 -98s74 -90 98 -146z" />
    <glyph glyph-name="z" unicode="z" horiz-adv-x="1058" 
d="M574 -82c6 6 10.668 12.6641 14.001 19.9971c3.33301 8.66699 5 16.334 5 23.001c0 16 -6.33301 30.333 -19 43c-12 12 -27 18 -45 18c-6.66699 0 -15 -1.66699 -25 -5c-7.33301 -2.66699 -14 -7 -20 -13c-4 -4 -6.66699 -7 -8 -9c-1.33301 -1.33301 -2.33301 -3 -3 -5
s-1.66699 -3.66699 -3 -5c-3.33301 -8.66699 -5 -16.667 -5 -24c0 -9.33301 1.66699 -17.333 5 -24c4 -9.33301 8.66699 -15.666 14 -18.999c3.33301 -5.33301 10 -9.66602 20 -12.999c8 -3.33301 16.333 -5 25 -5c6.66699 0 15 1.66699 25 5
c3.33301 0.666992 6.66602 2.66699 9.99902 6c1.33301 1.33301 3 2.5 5 3.5s3.66699 2.16699 5 3.5zM473.001 68.9971h111v337h-111v-337zM1058 -213.003h-1058l529 916z" />
    <glyph glyph-name="braceleft" unicode="{" horiz-adv-x="1035" 
d="M162 385l345 -199l-153 -89l-345 200zM354 72l153 89v-374l-345 199v198zM874 385l153 -88l-346 -200l-152 89zM681 72l193 112v-198l-345 -199v374zM883 415l-346 200l153 88l345 -199zM153 415l-153 89l345 199l153 -88z" />
    <glyph glyph-name="bar" unicode="|" horiz-adv-x="594" 
d="M438 381c4 22 6 50.668 6 86.001c0 20 -3.83301 39 -11.5 57s-18.167 33.5 -31.5 46.5s-29 23.333 -47 31s-37 11.5 -57 11.5s-39 -3.83301 -57 -11.5s-33.5 -18 -46.5 -31s-23.333 -28.5 -31 -46.5s-11.5 -37 -11.5 -57c0 -34.667 1 -63.334 3 -86.001h284v0z
M326 67.001c17.333 6 31.833 16.667 43.5 32s17.5 32.666 17.5 51.999c0 25.333 -8.66699 46.666 -26 63.999s-38.666 26 -63.999 26c-24.667 0 -45.667 -8.66699 -63 -26s-26 -38.666 -26 -63.999c0 -19.333 5.66699 -36.666 17 -51.999s25.666 -26 42.999 -32v-148h58v148
v0zM543 381.001c14 0 25.998 -5.00098 35.998 -15.001s15 -22 15 -36v-492c0 -14 -5 -26 -15 -36s-22 -15 -36 -15h-492c-14 0 -26 5 -36 15s-15 22 -15 36v492c0 14 5 26 15 36s22 15 36 15h13c-2 24.667 -3 53.334 -3 86.001s6.16699 63.334 18.5 92.001
s29.166 53.667 50.499 75s46.333 38.166 75 50.499s59.334 18.5 92.001 18.5s63.334 -6.16699 92.001 -18.5s53.834 -29.166 75.501 -50.499s38.667 -46.333 51 -75s18.5 -59.334 18.5 -92.001c0 -16.667 -0.5 -32 -1.5 -46s-2.16699 -27.333 -3.5 -40h14v0z" />
    <glyph glyph-name="braceright" unicode="}" horiz-adv-x="594" 
d="M321 68c17.333 6 31.666 16.667 42.999 32s17 33 17 53c0 24.667 -8.66699 45.667 -26 63s-38.333 26 -63 26c-25.333 0 -46.666 -8.66699 -63.999 -26s-26 -38.333 -26 -63c0 -20 5.83301 -37.667 17.5 -53s26.167 -26 43.5 -32v-147h58v147v0zM538 383
c14 0 25.998 -5 35.998 -15s15 -22 15 -36v-492c0 -14.667 -5 -26.834 -15 -36.501s-22 -14.5 -36 -14.5h-492c-14 0 -26 4.83301 -36 14.5s-15 21.834 -15 36.501v492c0 14 5 26 15 36s22 15 36 15h13h89h62h223c2 11.333 2.5 24.333 1.5 39s-1.5 31 -1.5 49
c0 20 2.66699 43.333 8 70s14.333 52 27 76s29.334 44.333 50.001 61s46 25 76 25c10 0 24.333 -0.666992 43 -2s37.5 -6.5 56.5 -15.5s36.167 -23.167 51.5 -42.5s25 -47 29 -83h-74c-7.33301 26 -18.666 43 -33.999 51s-39.333 11.333 -72 10
c-14 -1.33301 -26.667 -8 -38 -20c-9.33301 -10 -18 -25.667 -26 -47s-12.333 -52 -13 -92c0 -16.667 1.5 -31 4.5 -43s3.83301 -24 2.5 -36h14v0z" />
    <glyph glyph-name="asciitilde" unicode="~" horiz-adv-x="1186" 
d="M1185 96l-28 49l-29 -49h57zM1166 105h-19v-202h19v202zM57 96l-29 49l-28 -49h57zM38 104h-19v-201h19v201zM1073 604c0 14.667 -5.16699 27.167 -15.5 37.5s-22.833 15.5 -37.5 15.5h-853c-14.667 0 -27.167 -5.16699 -37.5 -15.5s-15.5 -22.833 -15.5 -37.5v-515
c0 -14.667 5.16699 -27.167 15.5 -37.5s22.833 -15.5 37.5 -15.5h853c14.667 0 27.167 5.16699 37.5 15.5s15.5 22.833 15.5 37.5v515zM1061 703c16 0 29.667 -5.83301 41 -17.5s17 -26.167 17 -43.5v-591c0 -16.667 -5.66699 -31 -17 -43s-25 -18 -41 -18h-935
c-16 0 -29.667 6 -41 18s-17 26.333 -17 43v591c0 17.333 5.66699 31.833 17 43.5s25 17.5 41 17.5h935v0zM764 -179c8 0 12 3.66699 12 11c0 8 -4 12 -12 12h-352c-8 0 -12 -4 -12 -12c0 -7.33301 4 -11 12 -11h352v0zM1186 -129l-0.000976562 -13
c0 -19.333 -6.66699 -36 -20 -50s-29.333 -21 -48 -21h-1049c-19.333 0 -35.666 7 -48.999 21s-20 30.667 -20 50v13h66h1051h69zM754.999 367c10 -6.66699 23.3379 -22.9941 40.0049 -48.9941c9.33301 -14 16 -25.667 20 -35c2 -16 2.16699 -30.667 0.5 -44
s-4.83398 -25.666 -9.50098 -36.999l24 -37c-10 -16.667 -26 -32.334 -48 -47.001c-24 -14.667 -47 -23 -69 -25l-35 53c-12.667 7.33301 -25.334 15.166 -38.001 23.499s-24.5 16.5 -35.5 24.5s-20.5 15.5 -28.5 22.5s-13.333 12.833 -16 17.5c-2 4 -3.66699 9.33301 -5 16
c-1.33301 5.33301 -2 12.666 -2 21.999s1 21 3 35l-54 89l-7 12c-12 18 -19.833 32.167 -23.5 42.5s-0.833984 18.5 8.49902 24.5c9.33301 5.33301 17.5 4.66602 24.5 -2.00098s16.5 -17.667 28.5 -33l62 -80c0.666992 0 1 -0.333008 1 -1l21 -32
c1.33301 -2 2.66602 -2.33301 3.99902 -1c2 1.33301 2.33301 2.66602 1 3.99902l-19 29l10 6c18 11.333 34 12 48 2l19 -30c1.33301 -2 2.66602 -2.33301 3.99902 -1c2 1.33301 2.33301 2.66602 1 3.99902l-19 29l4 3c18.667 11.333 35.334 8.66602 50.001 -8.00098l15 -23
c1.33301 -2 2.66602 -2.33301 3.99902 -1c2 1.33301 2.33301 2.66602 1 3.99902l-16 24h1c9.33301 6.66699 19.333 6.33398 30 -0.999023zM508.004 595.006c22 0 42.667 -4.16699 62 -12.5s36.166 -19.666 50.499 -33.999s25.666 -31 33.999 -50s12.5 -39.5 12.5 -61.5
s-4.16699 -42.5 -12.5 -61.5s-19.666 -35.667 -33.999 -50s-31.166 -25.666 -50.499 -33.999s-40 -12.5 -62 -12.5s-42.5 4.16699 -61.5 12.5s-35.667 19.666 -50 33.999s-25.666 31 -33.999 50s-12.5 39.5 -12.5 61.5s4.16699 42.5 12.5 61.5s19.666 35.667 33.999 50
s31 25.666 50 33.999s39.5 12.5 61.5 12.5zM508.004 274.006c22.667 0 43.834 4.33301 63.501 13s36.834 20.334 51.501 35.001s26.334 31.834 35.001 51.501s13 40.834 13 63.501s-4.33301 43.834 -13 63.501s-20.334 36.834 -35.001 51.501s-31.834 26.334 -51.501 35.001
s-40.834 13 -63.501 13c-22 0 -42.833 -4.33301 -62.5 -13s-36.834 -20.334 -51.501 -35.001s-26.334 -31.834 -35.001 -51.501s-13 -40.834 -13 -63.501s4.33301 -43.834 13 -63.501s20.334 -36.834 35.001 -51.501s31.834 -26.334 51.501 -35.001s40.5 -13 62.5 -13z
M508.004 557.006c16.667 0 32.334 -3.16699 47.001 -9.5s27.334 -15 38.001 -26s19.167 -23.667 25.5 -38s9.5 -29.833 9.5 -46.5s-3.16699 -32.167 -9.5 -46.5s-14.833 -27 -25.5 -38s-23.334 -19.667 -38.001 -26s-30.334 -9.5 -47.001 -9.5s-32.167 3.16699 -46.5 9.5
s-26.833 15 -37.5 26s-19.167 23.667 -25.5 38s-9.5 29.833 -9.5 46.5s3.16699 32.167 9.5 46.5s14.833 27 25.5 38s23.167 19.667 37.5 26s29.833 9.5 46.5 9.5zM508.004 313.006c17.333 0 33.5 3.16699 48.5 9.5s28.167 15.166 39.5 26.499s20.333 24.5 27 39.5
s10 31.167 10 48.5c0 16.667 -3.33301 32.667 -10 48s-15.667 28.5 -27 39.5s-24.5 19.833 -39.5 26.5s-31.167 10 -48.5 10s-33.5 -3.33301 -48.5 -10s-28 -15.5 -39 -26.5s-19.833 -24.167 -26.5 -39.5s-10 -31.333 -10 -48c0 -17.333 3.33301 -33.5 10 -48.5
s15.5 -28.167 26.5 -39.5s24 -20.166 39 -26.499s31.167 -9.5 48.5 -9.5zM508.004 522.006c12 0 23.167 -2.16699 33.5 -6.5s19.333 -10.333 27 -18s13.834 -16.667 18.501 -27s7 -21.5 7 -33.5s-2.33301 -23.167 -7 -33.5s-10.834 -19.333 -18.501 -27
s-16.667 -13.667 -27 -18s-21.5 -6.5 -33.5 -6.5c-23.333 0 -43.333 8.33301 -60 25s-25 36.667 -25 60s8.33301 43.333 25 60s36.667 25 60 25zM508.004 347.006c25.333 0 46.666 8.66699 63.999 26s26 38.666 26 63.999c0 24.667 -8.66699 45.834 -26 63.501
s-38.666 26.5 -63.999 26.5c-24.667 0 -45.667 -8.83301 -63 -26.5s-26 -38.834 -26 -63.501c0 -25.333 8.66699 -46.666 26 -63.999s38.333 -26 63 -26z" />
    <glyph glyph-name="exclamdown" unicode="&#xa1;" horiz-adv-x="1170" 
d="M573 -175c-52.667 0 -105.003 0.168945 -157.003 0.501953s-104.333 0.166016 -157 -0.500977c-10.667 0 -17.5 1.66699 -20.5 5s-1.83301 10.666 3.5 21.999c5.33301 12 10 24.667 14 38s9.66699 25.666 17 36.999c9.33301 15.333 16.166 31 20.499 47
s6.83301 32.167 7.5 48.5s0 32.666 -2 48.999s-4.66699 33.166 -8 50.499l-44 249.5l-42 250.5c-2 12.667 -5.83301 21.667 -11.5 27s-15.167 8.66602 -28.5 9.99902c-22 1.33301 -44 3.5 -66 6.5s-44 6.16699 -66 9.5c-8.66699 1.33301 -14.667 4.33301 -18 9
s-5.33301 9.83398 -6 15.501s-1 11.5 -1 17.5s-1 11.667 -3 17c5.33301 1.33301 10.833 3 16.5 5s11.167 2.66699 16.5 2l95 -9.5c31.333 -3 63 -6.83301 95 -11.5c5.33301 -1.33301 11 -4.5 17 -9.5s9.66699 -10.167 11 -15.5l17.5 -87.5
c5.66699 -29 10.5 -58.5 14.5 -88.5c1.33301 -13.333 5 -21.666 11 -24.999s14.667 -5 26 -5c136.667 0 272.834 -0.166992 408.501 -0.5s271.834 -0.166016 408.501 0.500977c16.667 0.666992 27 -1.33301 31 -6s2.33301 -15.334 -5 -32.001l-70 -163l-70 -164
c-2 -5.33301 -6.5 -10.333 -13.5 -15s-13.5 -7.66699 -19.5 -9c-68.667 -11.333 -137.167 -22 -205.5 -32l-205.5 -31l-93.5 -13.5c-31 -4.33301 -62.5 -9.16602 -94.5 -14.499c-5.33301 -1.33301 -10.333 -4.16602 -15 -8.49902s-8.66699 -8.83301 -12 -13.5
c-5.33301 -11.333 -10 -22.666 -14 -33.999s-8.66699 -22.666 -14 -33.999c-6 -11.333 -7 -18.5 -3 -21.5s11.333 -4.5 22 -4.5h534c6.66699 -0.666992 14.334 -1.83398 23.001 -3.50098s13.334 -3.83398 14.001 -6.50098c1.33301 -6 0.833008 -12.5 -1.5 -19.5
s-5.83301 -13.167 -10.5 -18.5s-10 -10 -16 -14s-11.667 -6 -17 -6h-292h-21zM275.997 -295.998c0 23.333 8.16699 43.166 24.5 59.499s36.166 24.5 59.499 24.5c12 0 23.167 -2.16699 33.5 -6.5s19.333 -10.333 27 -18s13.667 -16.667 18 -27s6.5 -21.166 6.5 -32.499
c0 -23.333 -8.33301 -43.333 -25 -60s-36.667 -25 -60 -25c-11.333 0 -22.166 2.16699 -32.499 6.5s-19.333 10.333 -27 18s-13.667 16.667 -18 27s-6.5 21.5 -6.5 33.5zM572.997 -174.998c-52.667 0 -105.003 0.168945 -157.003 0.501953s-104.333 0.166016 -157 -0.500977
c-10.667 0 -17.5 1.66699 -20.5 5s-1.83301 10.666 3.5 21.999c5.33301 12 10 24.667 14 38s9.66699 25.666 17 36.999c9.33301 15.333 16.166 31 20.499 47s6.83301 32.167 7.5 48.5s0 32.666 -2 48.999s-4.66699 33.166 -8 50.499l-44 249.5l-42 250.5
c-2 12.667 -5.83301 21.667 -11.5 27s-15.167 8.66602 -28.5 9.99902c-22 1.33301 -44 3.5 -66 6.5s-44 6.16699 -66 9.5c-8.66699 1.33301 -14.667 4.33301 -18 9s-5.33301 9.83398 -6 15.501s-1 11.5 -1 17.5s-1 11.667 -3 17c5.33301 1.33301 10.833 3 16.5 5
s11.167 2.66699 16.5 2l95 -9.5c31.333 -3 63 -6.83301 95 -11.5c5.33301 -1.33301 11 -4.5 17 -9.5s9.66699 -10.167 11 -15.5l17.5 -87.5c5.66699 -29 10.5 -58.5 14.5 -88.5c1.33301 -13.333 5 -21.666 11 -24.999s14.667 -5 26 -5
c136.667 0 272.834 -0.166992 408.501 -0.5s271.834 -0.166016 408.501 0.500977c16.667 0.666992 27 -1.33301 31 -6s2.33301 -15.334 -5 -32.001l-70 -163l-70 -164c-2 -5.33301 -6.5 -10.333 -13.5 -15s-13.5 -7.66699 -19.5 -9c-68.667 -11.333 -137.167 -22 -205.5 -32
l-205.5 -31l-93.5 -13.5c-31 -4.33301 -62.5 -9.16602 -94.5 -14.499c-5.33301 -1.33301 -10.333 -4.16602 -15 -8.49902s-8.66699 -8.83301 -12 -13.5c-5.33301 -11.333 -10 -22.666 -14 -33.999s-8.66699 -22.666 -14 -33.999c-6 -11.333 -7 -18.5 -3 -21.5
s11.333 -4.5 22 -4.5h534c6.66699 -0.666992 14.334 -1.83398 23.001 -3.50098s13.334 -3.83398 14.001 -6.50098c1.33301 -6 0.833008 -12.5 -1.5 -19.5s-5.83301 -13.167 -10.5 -18.5s-10 -10 -16 -14s-11.667 -6 -17 -6h-292h-21zM275.994 -295.996
c0 23.333 8.16699 43.166 24.5 59.499s36.166 24.5 59.499 24.5c12 0 23.167 -2.16699 33.5 -6.5s19.333 -10.333 27 -18s13.667 -16.667 18 -27s6.5 -21.166 6.5 -32.499c0 -23.333 -8.33301 -43.333 -25 -60s-36.667 -25 -60 -25c-11.333 0 -22.166 2.16699 -32.499 6.5
s-19.333 10.333 -27 18s-13.667 16.667 -18 27s-6.5 21.5 -6.5 33.5zM724.994 -296.996c0 23.333 8.16797 43.1699 24.501 59.5029s36.166 24.5 59.499 24.5c11.333 0 22 -2.16699 32 -6.5s18.833 -10.333 26.5 -18s13.667 -16.5 18 -26.5s6.5 -21 6.5 -33
c0 -23.333 -8 -43 -24 -59s-35.667 -24 -59 -24c-12 0 -23 2.16699 -33 6.5s-18.833 10.166 -26.5 17.499s-13.667 16.166 -18 26.499s-6.5 21.166 -6.5 32.499z" />
    <glyph glyph-name="cent" unicode="&#xa2;" horiz-adv-x="501" 
d="M385 529l1.00098 -0.999023l1 -69h4c28 0 43 -11.667 45 -35c1.33301 -11.333 2.5 -26.166 3.5 -44.499l3.5 -65.5c-1.33301 -15.333 -15.333 -23.333 -42 -24c-3.33301 -0.666992 -7.33301 -1 -12 -1l1 -116h42c26 0 38.333 -17.667 37 -53
c-0.666992 -34 -1.66699 -56.667 -3 -68c-1.33301 -17.333 -3.5 -28.166 -6.5 -32.499s-8.83301 -8.16602 -17.5 -11.499c-12 -2.66699 -28.667 -4.66699 -50 -6l1 -61v-3c-2.66699 -2.66699 -18.334 -3.33398 -47.001 -2.00098c-14.667 0.666992 -26 1 -34 1h-14l-2 63
c-62 1.33301 -113.833 12.333 -155.5 33s-73.167 52 -94.5 94c-12 23.333 -17.333 50.333 -16 81c1.33301 78.667 27 139.667 77 183c33.333 29.333 78.333 47.666 135 54.999l53 7c0 10 0.166992 21.167 0.5 33.5s0.833008 26.166 1.5 41.499
c19.333 0.666992 36.5 1.16699 51.5 1.5s27.167 0.166016 36.5 -0.500977zM252.001 243.001v-15c0 -26.667 14.333 -43.667 43 -51v102c-26.667 -6.66699 -41 -18.667 -43 -36z" />
    <glyph glyph-name="sterling" unicode="&#xa3;" horiz-adv-x="611" 
d="M60 168c32 11.333 61.3359 16 88.0029 14c-0.666992 25.333 -1 46.166 -1 62.499v35.5c-7.33301 -0.666992 -14.833 -1 -22.5 -1h-23.5c-13.333 2 -20 30.667 -20 86v31c-1.33301 5.33301 21 9 67 11c2.66699 40 6.5 76.333 11.5 109s12.833 61.667 23.5 87
c13.333 31.333 36.333 54.5 69 69.5s74 23.167 124 24.5c19.333 0.666992 39.5 -2.66602 60.5 -9.99902s42.167 -20 63.5 -38c29.333 -24.667 45 -57.667 47 -99l2 -33c2 -26 -8 -39.667 -30 -41c-32 -2.66699 -56.167 -4.5 -72.5 -5.5s-25.5 -1.5 -27.5 -1.5
c-10.667 -0.666992 -16.667 3 -18 11c-1.33301 16.667 -2.66602 27 -3.99902 31c-2.66699 5.33301 -7.33398 7.66602 -14.001 6.99902s-12.667 -5 -18 -13c-10.667 -15.333 -17.334 -45.666 -20.001 -90.999l78 3c3.33301 0 6.33301 -3.33301 9 -10
s4.66699 -15.334 6 -26.001s2.33301 -22 3 -34s0.5 -23.333 -0.5 -34s-2.5 -19.5 -4.5 -26.5s-4.66699 -10.5 -8 -10.5c-11.333 1.33301 -23.833 2.33301 -37.5 3s-28.834 1.33398 -45.501 2.00098l3 -98l1 -19c0 -1.33301 -0.333008 -2.33301 -1 -3
c0 -4 -0.333008 -7 -1 -9h1c65.333 -28 109.666 -6 132.999 66c0.666992 2.66699 3.33398 4 8.00098 4s10.5 -1 17.5 -3s14.833 -4.83301 23.5 -8.5s17 -7.83398 25 -12.501c13.333 -7.33301 24.5 -14.833 33.5 -22.5s11.833 -13.5 8.5 -17.5
c-32.667 -89.333 -73.334 -142 -122.001 -158c-62.667 -21.333 -116.334 -21 -161.001 1l-49 25c-40.667 -31.333 -96.334 -42.666 -167.001 -33.999c-1.33301 0 -5.16602 0.166992 -11.499 0.5s-13.166 1 -20.499 2s-14.166 2 -20.499 3s-9.83301 2.16699 -10.5 3.5
c-8.66699 2 -16.334 10.5 -23.001 25.5s-10 31.667 -10 50s4.33301 36.333 13 54s23.667 30.167 45 37.5z" />
    <glyph glyph-name="currency" unicode="&#xa4;" horiz-adv-x="769" 
d="M297 90c-53.333 -80 -81.3359 -120.001 -84.0029 -120.001l-76 53c-43.333 30.667 -66.666 48.667 -69.999 54l3 3l71 94c-22.667 19.333 -40.167 42 -52.5 68s-16.833 55 -13.5 87l2 21c4 46 19.333 87.667 46 125c-59.333 67.333 -88.666 102.333 -87.999 105
c2.66699 2.66699 9.83398 9 21.501 19l48.5 41c42 34.667 66 52.667 72 54l1 -3l86 -110l60 21c30 6 58.333 8 85 6c16 -1.33301 31.5 -3.66602 46.5 -6.99902s29.5 -7.33301 43.5 -12l95 126c1.33301 0 2.33301 -0.333008 3 -1l56.5 -40.5l79.5 -59.5l-45 -66l-40 -61
c30.667 -48 43.334 -100.667 38.001 -158c-5.33301 -52 -22.333 -96 -51 -132l95 -121l-3 -2l-52.5 -44c-21.667 -18 -47.834 -38.667 -78.501 -62l-52 61l-63 71l-19 -5c-31.333 -8 -69.333 -8.33301 -114 -1l-22 4l-21 4zM238.997 306.999
c-0.666992 -21.333 11.167 -39 35.5 -53s60.5 -21 108.5 -21h19c42 6 73.833 20 95.5 42s32.834 52.333 33.501 91c0.666992 26 -11.333 45 -36 57s-61 17.333 -109 16s-84.333 -13 -109 -35s-37.334 -54.333 -38.001 -97z" />
    <glyph glyph-name="yen" unicode="&#xa5;" horiz-adv-x="929" 
d="M945 651l-484.999 -494c-8.66699 -9.33301 -19 -14 -31 -14s-22.667 4.66699 -32 14l-280 270c-9.33301 8.66699 -14 19.167 -14 31.5s4.66699 22.833 14 31.5l61 62c9.33301 9.33301 19.666 13.5 30.999 12.5s22.333 -5.16699 33 -12.5l187 -134l391 358
c9.33301 8.66699 19.833 13.167 31.5 13.5s22.167 -4.16699 31.5 -13.5l62 -61c8.66699 -9.33301 13 -20 13 -32s-4.33301 -22.667 -13 -32zM786.001 308l-0.000976562 -147.001c0 -44 -16 -82 -48 -114c-31.333 -31.333 -69 -47 -113 -47h-464
c-45.333 0 -83.333 15.667 -114 47c-31.333 30.667 -47 68.667 -47 114v464c0 44 15.667 81.667 47 113c32 32 70 48 114 48h434c22.667 0 44.334 -4.66699 65.001 -14c6 -2.66699 9.33301 -7 10 -13c1.33301 -7.33301 -0.333984 -12.666 -5.00098 -15.999l-27 -28
c-3.33301 -3.33301 -7.66602 -5 -12.999 -5c-2 0 -3.66699 0.333008 -5 1c-8 2 -16.333 3 -25 3h-434c-24.667 0 -45.667 -8.66699 -63 -26c-18 -17.333 -27 -38.333 -27 -63v-464c0 -25.333 9 -46.333 27 -63c16.667 -18 37.667 -27 63 -27h464c24.667 0 45.667 9 63 27
c17.333 17.333 26 38.333 26 63v111c0 4 1.66699 8.33301 5 13l36 35c4 4 8.33301 6 13 6c0.666992 0 3 -0.666992 7 -2c7.33301 -2 11 -7.33301 11 -16z" />
    <glyph glyph-name="brokenbar" unicode="&#xa6;" horiz-adv-x="247" 
d="M36 -5c-2 1.33301 -3.66699 95.667 -5 283h181l5 -278v-3c-4.66699 -2.66699 -34.334 -3.66699 -89.001 -3c-27.333 0.666992 -48.666 1 -63.999 1h-28zM201 745.001l3 -0.998047l5 -272h-179v149c0 14 0.166992 31.167 0.5 51.5s0.833008 43.833 1.5 70.5
c38 1.33301 71 2.16602 99 2.49902s51.333 0.166016 70 -0.500977z" />
    <glyph glyph-name="section" unicode="&#xa7;" horiz-adv-x="979" 
d="M188 502c22.667 33.333 49.998 62.6689 81.998 88.002s67 46 105 62s78.167 26.5 120.5 31.5s84.5 3.5 126.5 -4.5c42 -7.33301 82.5 -21 121.5 -41s74.5 -45 106.5 -75s59.667 -64.333 83 -103s40.666 -80 51.999 -124c10.667 -44 14.834 -89.167 12.501 -135.5
s-11 -91.5 -26 -135.5s-36 -85.667 -63 -125s-59.5 -74 -97.5 -104c-37.333 -30 -78.666 -54 -123.999 -72s-92.166 -29.5 -140.499 -34.5s-97.166 -3.33301 -146.499 5s-96.333 24.166 -141 47.499l-66 -74l-110 383l392 -69l-63 -70c22.667 -10 46.834 -17.333 72.501 -22
s51.5 -6.33398 77.5 -5.00098s51.833 6 77.5 14s50.167 19 73.5 33c27.333 16.667 52 37.334 74 62.001s40.167 52 54.5 82s24.5 61.833 30.5 95.5s7 68.167 3 103.5c-4.66699 34 -14.334 67.333 -29.001 100s-33.5 62.667 -56.5 90s-49.833 51.333 -80.5 72
s-64 36.667 -100 48c-36 10.667 -73.167 16 -111.5 16s-76 -5.16699 -113 -15.5s-72.333 -25.833 -106 -46.5s-63.834 -46.334 -90.501 -77.001z" />
    <glyph glyph-name="dieresis" unicode="&#xa8;" horiz-adv-x="440" 
d="M112 664h78c18 0 27 -7.33301 27 -22l-1 -80c0 -16.667 -4 -25 -12 -25h-86c-18.667 0 -28 9.66699 -28 29v67c0 20.667 7.33301 31 22 31zM311 664h78c18 0 27 -7.33301 27 -22l-1 -80c0 -16.667 -4 -25 -12 -25h-86c-18.667 0 -28 9.66699 -28 29v67
c0 20.667 7.33301 31 22 31z" />
    <glyph glyph-name="copyright" unicode="&#xa9;" horiz-adv-x="747" 
d="M555 655c108 -65.333 161.999 -156 161.999 -272c0 -112.667 -38 -205 -114 -277c-38 -36 -79 -62.667 -123 -80s-92 -26 -144 -26c-107.333 1.33301 -188.666 39.333 -243.999 114c-41.333 57.333 -62 114.666 -62 171.999c0 63.333 14.333 133 43 209
c9.33301 18.667 20.5 37.167 33.5 55.5s29.167 36.5 48.5 54.5c98.667 90.667 232 107.334 400 50.001zM147.999 324l-0.000976562 -10.999c0 -70 25.333 -124 76 -162c18 -25.333 53.667 -38 107 -38h3c96.667 0 166 37.333 208 112c32 38.667 48 95.667 48 171
c0 101.333 -69 168.666 -207 201.999c-47.333 4 -98.666 -13.667 -153.999 -53c-54 -39.333 -81 -113 -81 -221zM362.998 535.001c42 0 63 -34.668 63 -104.001c0 -12 -4.33301 -18 -13 -18h-12c-39.333 0 -68.333 -18 -87 -54c-0.666992 -2.66699 -1 -7 -1 -13
c6 -25.333 16.333 -38 31 -38h2c10 0 43 11.667 99 35h3c6.66699 -3.33301 14 -9.66602 22 -18.999s17.333 -21.333 28 -36c6 -12 9 -19.333 9 -22v-2c0 -8.66699 -19.667 -28.667 -59 -60c-40 -18.667 -73 -28 -99 -28c-53.333 0 -93.333 22 -120 66
c-16.667 36 -25 69.667 -25 101c0 64 31.667 119.667 95 167c12.667 8.66699 34 17 64 25z" />
    <glyph glyph-name="ordfeminine" unicode="&#xaa;" horiz-adv-x="456" 
d="M370 408c-168 -11.333 -272.998 11.001 -314.998 67.001c-16.667 22.667 -25 50 -25 82c0 70.667 42 125 126 163c13.333 5.33301 26.666 9.33301 39.999 12s26.666 5 39.999 7c22 3.33301 46 5.83301 72 7.5s54 3.16699 84 4.5c11.333 0 17.333 -2.66699 18 -8
c0 -4 0.333008 -32.333 1 -85s2.66699 -130.334 6 -233.001c0 -9.33301 -15.667 -15 -47 -17zM246.002 534.001l22.001 2l-1 74l-40 -3c-22.667 -2 -33.667 -16 -33 -42c1.33301 -24 18.666 -34.333 51.999 -31z" />
    <glyph glyph-name="guillemotleft" unicode="&#xab;" horiz-adv-x="797" 
d="M249 621l39.001 43.002c12 0 32.667 -11 62 -33c14.667 -10.667 27.667 -21.334 39 -32.001s21.666 -21.334 30.999 -32.001v-10l-75 -93l-98 -120l179 -172v-7c0 -12 -37 -53 -111 -123c-6.66699 0 -50 38 -130 114c-103.333 99.333 -155 165.333 -155 198l81 105
c35.333 45.333 81.333 99.333 138 162zM589.001 621.002l39.001 43.002c12 0 32.667 -11 62 -33c14.667 -10.667 27.667 -21.334 39 -32.001s21.666 -21.334 30.999 -32.001v-10l-75 -93l-98 -120l179 -172v-7c0 -12 -37 -53 -111 -123c-6.66699 0 -50 38 -130 114
c-103.333 99.333 -155 165.333 -155 198l81 105c35.333 45.333 81.333 99.333 138 162z" />
    <glyph glyph-name="logicalnot" unicode="&#xac;" horiz-adv-x="639" 
d="M598 126c-2.66699 -2.66699 -5.33301 -3.99805 -8 -3.99805c-9.33301 0 -27.333 -0.166992 -54 -0.5s-63 -0.833008 -109 -1.5v11l-5 151c-124 -1.33301 -218.5 -2.66602 -283.5 -3.99902s-100.833 -2.66602 -107.5 -3.99902c0 1.33301 -0.333008 2 -1 2
c1.33301 56.667 2.5 99.5 3.5 128.5s1.5 44.5 1.5 46.5v6c0 2.66699 187.333 2 562 -2c2.66699 -2.66699 4 -5.33398 4 -8.00098v-45c0 -20.667 -0.333008 -47.334 -1 -80.001c0 -32.667 -0.166992 -65.334 -0.5 -98.001s-0.833008 -65.334 -1.5 -98.001z" />
    <glyph glyph-name="uni00AD" unicode="&#xad;" horiz-adv-x="515" 
d="M497 455c2.66699 -2.66699 4 -5.33301 4 -8c0 -9.33301 0.166992 -27.333 0.5 -54s0.833008 -63 1.5 -109h-11c-146.667 0 -258.167 -1.33301 -334.5 -4s-118.5 -4.66699 -126.5 -6c0 1.33301 -0.333008 2 -1 2c1.33301 56.667 2.5 99.5 3.5 128.5s1.5 44.5 1.5 46.5v6
c0 2.66699 154 2 462 -2z" />
    <glyph glyph-name="registered" unicode="&#xae;" horiz-adv-x="747" 
d="M555 655c108 -65.333 161.999 -156 161.999 -272c0 -112.667 -38 -205 -114 -277c-38 -36 -79 -62.667 -123 -80s-92 -26 -144 -26c-107.333 1.33301 -188.666 39.333 -243.999 114c-41.333 57.333 -62 114.666 -62 171.999c0 63.333 14.333 133 43 209
c9.33301 18.667 20.5 37.167 33.5 55.5s29.167 36.5 48.5 54.5c98.667 90.667 232 107.334 400 50.001zM147.999 324l-0.000976562 -10.999c0 -70 25.333 -124 76 -162c18 -25.333 53.667 -38 107 -38h3c96.667 0 166 37.333 208 112c32 38.667 48 95.667 48 171
c0 101.333 -69 168.666 -207 201.999c-47.333 4 -98.666 -13.667 -153.999 -53c-54 -39.333 -81 -113 -81 -221zM252.998 545.001l122.998 -0.00195312c62.667 0 106 -27 130 -81c0.666992 -6.66699 1.16699 -12.167 1.5 -16.5s0.5 -7.16602 0.5 -8.49902
c0 -32 -20 -63.333 -60 -94c0 -5.33301 25 -47.333 75 -126c-13.333 -11.333 -43 -29.333 -89 -54h-7l-31 52l-25 44h-4v-96c-7.33301 -0.666992 -20.5 -1.16699 -39.5 -1.5s-43.5 -0.166016 -73.5 0.500977l-5 6c0.666992 121.333 1.33398 213 2.00098 275
s1.33398 95.333 2.00098 100zM360.996 459.999l-3 -0.00195312c0 -8.66699 -0.166992 -19.667 -0.5 -33s-0.833008 -28.666 -1.5 -45.999c32 10.667 48 25.667 48 45v2c0 14.667 -14.333 25.334 -43 32.001z" />
    <glyph glyph-name="degree" unicode="&#xb0;" horiz-adv-x="488" 
d="M246 745c68.667 0.666992 126.999 -21.332 174.999 -65.999c27.333 -32.667 41 -69.667 41 -111c0 -88.667 -47 -149.334 -141 -182.001c-21.333 -7.33301 -48 -10 -80 -8c-66.667 3.33301 -118.5 17 -155.5 41s-55.5 58.667 -55.5 104v16c0 88 52.333 153.333 157 196
c10.667 3.33301 20.834 5.83301 30.501 7.5s19.167 2.5 28.5 2.5zM163.999 525.001c2 -24.667 31.999 -36.335 89.999 -35.002l11 2c24.667 4.66699 42.667 14.334 54 29.001s16.333 33.334 15 56.001c-5.33301 31.333 -35.666 43 -90.999 35
c-56.667 -7.33301 -83 -36.333 -79 -87z" />
    <glyph glyph-name="plusminus" unicode="&#xb1;" horiz-adv-x="533" 
d="M218 729l128.999 3.00391c5.33301 -3.33301 8 -6 8 -8v-2l-4 -123l-2 -24h148c2.66699 -2.66699 4 -5.33398 4 -8.00098c0 -9.33301 0.166992 -27.333 0.5 -54s0.833008 -63 1.5 -109h-11l-141 -4c0 -32.667 -2 -83.334 -6 -152.001
c-3.33301 -2.66699 -6.66602 -4 -9.99902 -4l-94 -3c-36 -1.33301 -54 1.33398 -54 8.00098c-0.666992 19.333 -1.16699 35.166 -1.5 47.499s-0.5 20.833 -0.5 25.5s0.166992 13.5 0.5 26.5s0.833008 30.167 1.5 51.5c-86.667 -0.666992 -138.667 -3.33398 -156 -8.00098
c0 1.33301 -0.333008 2 -1 2c1.33301 57.333 2.5 100.666 3.5 129.999s1.5 45 1.5 47v6c0 2.66699 49 3 147 1c1.33301 35.333 2.33301 64.333 3 87s1 39.667 1 51c0 8.66699 10.667 13 32 13zM496.999 175.004c2.66699 -2.66699 4 -5.33203 4 -7.99902
c0 -9.33301 0.166992 -25.833 0.5 -49.5s0.833008 -54.834 1.5 -93.501h-11c-146.667 0 -258.167 -1.33301 -334.5 -4s-118.5 -4.66699 -126.5 -6c0 1.33301 -0.333008 2 -1 2c1.33301 50 2.5 87.833 3.5 113.5s1.5 39.5 1.5 41.5v6c0 2.66699 154 2 462 -2z" />
    <glyph glyph-name="twosuperior" unicode="&#xb2;" horiz-adv-x="405" 
d="M131 746l27.0039 3c38 4 73 0.166992 105 -11.5s61 -30.167 87 -55.5c12 -10.667 19 -25 21 -43l1 -7c4.66699 -34 -11.333 -75.667 -48 -125c-4 -4.66699 -15.667 -15.667 -35 -33h1c47.333 4.66699 71.666 3.66699 72.999 -3c-3.33301 -25.333 -5.5 -49.5 -6.5 -72.5
s-0.166992 -45.167 2.5 -66.5c0 -5.33301 -8.33301 -7.66602 -25 -6.99902c-59.333 5.33301 -115.666 5.33301 -168.999 0l-115 -11c-13.333 -1.33301 -20 0.333984 -20 5.00098c9.33301 60 15.666 91.333 18.999 94c16.667 10 32.5 21.333 47.5 34s29.833 26 44.5 40
c21.333 20.667 37.166 39.167 47.499 55.5s14.833 31.833 13.5 46.5c-2 19.333 -21.667 29 -59 29h-2c-21.333 -2 -46.333 -11.667 -75 -29l-6 -2c-6 2 -9.33301 4.33301 -10 7l4 60c1.33301 20.667 3.33301 42 6 64c1.33301 5.33301 4.33301 9.66602 9 12.999
c7.33301 4 16.166 7.16699 26.499 9.5s22.166 4.16602 35.499 5.49902z" />
    <glyph glyph-name="threesuperior" unicode="&#xb3;" horiz-adv-x="385" 
d="M164 702c36 0 66.6689 -3.83301 92.002 -11.5s46 -19.167 62 -34.5c9.33301 -9.33301 16.666 -19 21.999 -29s8 -20.667 8 -32c0 -39.333 -24.333 -67 -73 -83h-2v-1c19.333 0 42 -16 68 -48c8 -13.333 12 -26.666 12 -39.999c0 -31.333 -18.333 -65.333 -55 -102
c-33.333 -25.333 -63 -38 -89 -38c-38.667 -0.666992 -73.334 7 -104.001 23c-29.333 14.667 -51.666 32.334 -66.999 53.001c-5.33301 5.33301 -8 11 -8 17c0 1.33301 11 14.666 33 39.999c14 21.333 23 32 27 32h2c2.66699 0 13.667 -7.66699 33 -23
c16.667 -9.33301 34 -14 52 -14c14.667 0 22 10 22 30v3c0 16.667 -9 28 -27 34c-3.33301 4 -20.333 8 -51 12l-1 3c3.33301 10.667 5.5 20.167 6.5 28.5s1.5 16.166 1.5 23.499c0 2 1.33301 3 4 3c27.333 0 43.666 2.33301 48.999 7c7.33301 7.33301 11 15.333 11 24
c0 16 -14.333 24 -43 24c-8.66699 0 -29 -2 -61 -6c-4 3.33301 -7.66699 22.666 -11 57.999c0 2 -0.166992 4.83301 -0.5 8.5s-0.5 7.83398 -0.5 12.501c30.667 17.333 60 26 88 26z" />
    <glyph glyph-name="acute" unicode="&#xb4;" horiz-adv-x="313" 
d="M168 756c12 -7.33301 53.998 -25.334 125.998 -54.001c-13.333 -36 -34.666 -65.667 -63.999 -89c-28 -23.333 -79 -48.666 -153 -75.999c-5.33301 -1.33301 -20 13.667 -44 45c-2 8 15 29 51 63c36.667 34.667 63.334 71.667 80.001 111h4z" />
    <glyph glyph-name="mu" unicode="&#xb5;" horiz-adv-x="623" 
d="M519 462c20.667 0 32.0039 -4.33398 34.0039 -13.001c44 -188 20.333 -322.667 -71 -404c-41.333 -36.667 -121.333 -52.334 -240 -47.001c1.33301 -42 3 -81.667 5 -119s3.66699 -73 5 -107c0 -6 -5.33301 -10.833 -16 -14.5s-24.334 -6 -41.001 -7
s-34.667 -1.16699 -54 -0.5s-37.333 2.33398 -54 5.00098s-30.334 6.16699 -41.001 10.5s-15.667 9.5 -15 15.5l11 419l-11 233c-0.666992 6 4.5 11.167 15.5 15.5s24.833 7.83301 41.5 10.5s34.5 4.33398 53.5 5.00098s36.833 0.5 53.5 -0.5s30.5 -3.33301 41.5 -7
s16.167 -8.5 15.5 -14.5l-7.5 -155c-2.33301 -49.333 -3.16602 -96.333 -2.49902 -141c7.33301 -0.666992 14.166 -1 20.499 -1s13.166 0.666992 20.499 2c64.667 10 93 51 85 123c-13.333 120 -16 180 -8 180c13.333 3.33301 33.166 5.83301 59.499 7.5
s59.5 3.16699 99.5 4.5z" />
    <glyph glyph-name="paragraph" unicode="&#xb6;" 
d="M514 286c7.33301 23.333 13.667 44.334 19 63.001s8 36.334 8 53.001c0 41.333 -18.667 62 -56 62c-46 0 -87.333 -20.333 -124 -61c-16.667 -18 -29 -34.333 -37 -49s-12 -25.667 -12 -33c0 -6.66699 2 -10 6 -10c8 0 14 4 18 12s10.333 18 19 30c22 30 39.667 45 53 45
c4.66699 0 7 -5 7 -15c0 -6.66699 -1 -13.334 -3 -20.001l-64 -201c-7.33301 -22 -13.833 -42.5 -19.5 -61.5s-8.5 -37.167 -8.5 -54.5c0 -42 19.333 -63 58 -63c44 0 86.333 25.333 127 76c16.667 20 28.667 37.667 36 53s11 25.666 11 30.999c0 8.66699 -2.66699 13 -8 13
c-6 0 -11.833 -4.5 -17.5 -13.5l-18 -29.5c-6.33301 -10.667 -13.333 -20.5 -21 -29.5s-16.167 -13.5 -25.5 -13.5c-6 0 -9 5.33301 -9 16s4 27.667 12 51l49 149v0zM526.001 649.001c-16 0 -31.001 -7.66797 -45.001 -23.001s-21 -34.666 -21 -57.999
c0 -21.333 5.5 -38.333 16.5 -51s25.167 -19 42.5 -19c18.667 0 35 7.66699 49 23s21 35.333 21 60c0 19.333 -5.66699 35.5 -17 48.5s-26.666 19.5 -45.999 19.5zM447 749c63.333 0 122.833 -12 178.5 -36s104.167 -56.667 145.5 -98s74 -89.833 98 -145.5
s36 -115.167 36 -178.5s-12 -122.833 -36 -178.5s-56.667 -104.167 -98 -145.5s-89.833 -74 -145.5 -98s-115.167 -36 -178.5 -36s-122.666 12 -177.999 36s-103.833 56.667 -145.5 98s-74.5 89.833 -98.5 145.5s-36 115.167 -36 178.5s12 122.833 36 178.5
s56.833 104.167 98.5 145.5s90.167 74 145.5 98s114.666 36 177.999 36z" />
    <glyph glyph-name="periodcentered" unicode="&#xb7;" horiz-adv-x="266" 
d="M64 471h130c30 0 45 -11.667 45 -35l-2 -133c0 -27.333 -6.66699 -41 -20 -41h-142c-30.667 0 -46 16 -46 48v109c0 34.667 11.667 52 35 52z" />
    <glyph glyph-name="cedilla" unicode="&#xb8;" horiz-adv-x="309" 
d="M170 -258c-61.333 0 -107 8.66797 -137 26.001c-20 11.333 -21.667 30.333 -5 57c16 26 43 32.667 81 20c30 -2.66699 46.333 1.33301 49 12c16.667 40.667 -1.33301 72.667 -54 96c-24.667 14 -37 37 -37 69c-1.33301 37.333 -0.333008 56 3 56
c30.667 10 61.667 12 93 6c2.66699 0 4.66699 -0.666992 6 -2c-2 -54.667 16 -82 54 -82c50 -16.667 67 -70 51 -160c-10 -58.667 -44.667 -91.334 -104 -98.001z" />
    <glyph glyph-name="onesuperior" unicode="&#xb9;" horiz-adv-x="246" 
d="M62 729l125.996 10.001l5 -5l1 -5c-2.66699 -13.333 -5 -64.666 -7 -153.999c-0.666992 -44 -1 -79.833 -1 -107.5s0.666992 -47.5 2 -59.5c1.33301 -6 2.33301 -11.5 3 -16.5l2 -14.5c0 -2 -2 -4.33301 -6 -7c-33.333 -2 -59.333 -3.66699 -78 -5s-31 -2.33301 -37 -3
l-4 6c-1.33301 11.333 -1.66602 31.666 -0.999023 60.999s1.66699 67.666 3 114.999c0.666992 2.66699 0.833984 9.16699 0.500977 19.5s-0.5 24.5 -0.5 42.5h-14.5c-4.33301 0 -9.16602 -0.333008 -14.499 -1h-3c-0.666992 0 -2 1 -4 3c4 70.667 6.66699 107 8 109
c2.66699 7.33301 9.33398 11.333 20.001 12z" />
    <glyph glyph-name="ordmasculine" unicode="&#xba;" horiz-adv-x="492" 
d="M244 741c36 0.666992 68.668 -4.83301 98.001 -16.5s56 -28.5 80 -50.5c27.333 -33.333 41 -71 41 -113c0 -89.333 -47.667 -151 -143 -185c-22.667 -8 -50 -11 -82 -9c-68 3.33301 -120.667 17.333 -158 42s-56 60 -56 106v16c0 90.667 53 157 159 199
c19.333 7.33301 39.666 11 60.999 11zM191.001 528c2.66699 -15.333 22 -22.667 58 -22l8 1c31.333 7.33301 46 25.666 44 54.999c-2 20.667 -21.667 28.334 -59 23.001c-36 -5.33301 -53 -24.333 -51 -57z" />
    <glyph glyph-name="guillemotright" unicode="&#xbb;" horiz-adv-x="797" 
d="M508 664l39 -43.002c56.667 -62.667 102.667 -116.667 138 -162l81 -105c0 -32.667 -51.667 -98.667 -155 -198c-80 -76 -123.333 -114 -130 -114c-74 70 -111 111 -111 123v7l179 172l-98 120l-75 93v10c9.33301 10.667 19.666 21.334 30.999 32.001
s24.333 21.334 39 32.001c28.667 22 49.334 33 62.001 33zM168 663.998l39 -43.002c56.667 -62.667 102.667 -116.667 138 -162l81 -105c0 -32.667 -51.667 -98.667 -155 -198c-80 -76 -123.333 -114 -130 -114c-74 70 -111 111 -111 123v7l179 172l-98 120l-75 93v10
c9.33301 10.667 19.666 21.334 30.999 32.001s24.333 21.334 39 32.001c28.667 22 49.334 33 62.001 33z" />
    <glyph glyph-name="onequarter" unicode="&#xbc;" horiz-adv-x="865" 
d="M65 688l152.001 11l5 -6l1 -5c-3.33301 -19.333 -6.33301 -81.333 -9 -186c-2 -105.333 -1 -172.333 3 -201l5 -37c0 -2.66699 -2.33301 -6 -7 -10c-78 -4 -123.667 -7 -137 -9l-6 8c-3.33301 27.333 -2.33301 98 3 212v23.5c0 12.333 -0.333008 29.166 -1 50.499
c-5.33301 0.666992 -11 0.833984 -17 0.500977s-11.667 -0.833008 -17 -1.5h-4c-1.33301 0 -3 1.33301 -5 4c5.33301 84 8.66602 127.333 9.99902 130c1.33301 10 9.33301 15.333 24 16zM590.001 701c10 0 14 -4 12 -12c0 -2.66699 -46 -118 -138 -346
c-90.667 -226 -141.667 -339.667 -153 -341l-31 -2c-57.333 3.33301 -90 8 -98 14h-2l266 682c26.667 1.33301 52 2.5 76 3.5s46.667 1.5 68 1.5zM707.001 447c28.667 0 61.668 -3.00293 99.001 -9.00293c0 -2 0.666992 -3 2 -3l-10 -244h2c20 0 31.667 -3.66699 35 -11
c-0.666992 -5.33301 -1.33398 -14.666 -2.00098 -27.999s-1.33398 -31 -2.00098 -53c-3.33301 -4 -8.33301 -6 -15 -6l-14 1v-1c0 -8.66699 0.166992 -16.5 0.5 -23.5s0.5 -13.167 0.5 -18.5c0 -3.33301 0.333008 -9.16602 1 -17.499s1.66699 -18.833 3 -31.5
c-1.33301 -0.666992 -8.16602 -1.16699 -20.499 -1.5s-30.5 -1.16602 -54.5 -2.49902c-47.333 -2 -71 0 -71 6c2 4.66699 3 35 3 91c-14.667 0.666992 -28.334 1.16699 -41.001 1.5s-24.667 0.5 -36 0.5h-37c-19.333 0 -29 2 -29 6l-21 69l70 257h2
c46 -18 78 -34.667 96 -50v-3l-47 -178h52v2l11 243c2.66699 2.66699 10.334 4 23.001 4z" />
    <glyph glyph-name="onehalf" unicode="&#xbd;" horiz-adv-x="880" 
d="M619 441l25.001 1.99805c73.333 6 134 -16.333 182 -67c12 -13.333 19 -28.333 21 -45v-7c4 -36 -11 -78.667 -45 -128c-4 -6 -15 -17.333 -33 -34h1c44.667 4 67.667 3 69 -3c-7.33301 -51.333 -8.33301 -98.666 -3 -141.999c0 -6 -8 -8.66699 -24 -8
c-28.667 2.66699 -56.334 3.83398 -83.001 3.50098s-52.667 -1.83301 -78 -4.5l-110 -10c-12.667 -0.666992 -19 1 -19 5c8.66699 60.667 14.667 93 18 97c16 10 31.167 21.333 45.5 34s28.5 26.667 42.5 42c20 21.333 35.167 40.333 45.5 57s14.5 32.334 12.5 47.001
c-2 19.333 -21 29 -57 29h-1c-9.33301 0 -19.833 -2.5 -31.5 -7.5s-24.834 -12.167 -39.501 -21.5c-2.66699 0 -4.66699 -0.666992 -6 -2c-5.33301 0.666992 -8.66602 3 -9.99902 7l4 61c1.33301 21.333 3.33301 43.333 6 66c0 5.33301 2.66699 9.66602 8 12.999
c15.333 8.66699 35.333 14 60 16zM65.001 687.998l152.001 11l5 -6l1 -5c-3.33301 -19.333 -6.33301 -81.333 -9 -186c-2 -105.333 -1 -172.333 3 -201l5 -37c0 -2.66699 -2.33301 -6 -7 -10c-78 -4 -123.667 -7 -137 -9l-6 8c-3.33301 27.333 -2.33301 98 3 212v23.5
c0 12.333 -0.333008 29.166 -1 50.499c-5.33301 0.666992 -11 0.833984 -17 0.500977s-11.667 -0.833008 -17 -1.5h-4c-1.33301 0 -3 1.33301 -5 4c5.33301 84 8.66602 127.333 9.99902 130c1.33301 10 9.33301 15.333 24 16zM590.002 700.998c10 0 14 -4 12 -12
c0 -2.66699 -46 -118 -138 -346c-90.667 -226 -141.667 -339.667 -153 -341l-31 -2c-57.333 3.33301 -90 8 -98 14h-2l266 682c26.667 1.33301 52 2.5 76 3.5s46.667 1.5 68 1.5z" />
    <glyph glyph-name="threequarters" unicode="&#xbe;" horiz-adv-x="928" 
d="M160 698c67.333 0 117.004 -16.665 149.004 -49.998c18.667 -20.667 28 -42.334 28 -65.001c0 -43.333 -23.333 -73.333 -70 -90h-2v-1c18.667 0 40.667 -17 66 -51c7.33301 -14.667 11 -29 11 -43c0 -32.667 -17.333 -69.334 -52 -110.001
c-32.667 -26.667 -61.334 -40 -86.001 -40c-38.667 -0.666992 -72.334 7.33301 -101.001 24s-50.334 36 -65.001 58c-4.66699 4 -7 9.66699 -7 17c0 2 10.667 16.667 32 44c12.667 22.667 21.334 34 26.001 34h2c3.33301 0 13.666 -8.33301 30.999 -25c16 -10 33 -15 51 -15
c14 0 21 10.667 21 32v4c0 16.667 -8.66699 28.667 -26 36c-3.33301 4 -20 8.66699 -50 14l-1 2c6 22.667 9 41.667 9 57c0 0.666992 1.33301 1 4 1c26 0 41.667 3 47 9c6.66699 8.66699 10 17 10 25c0 17.333 -13.667 26 -41 26c-8.66699 0 -28.334 -2 -59.001 -6
c-4 3.33301 -7.66699 24 -11 62v9.5c0 3.66699 -0.333008 8.16699 -1 13.5c28.667 18.667 57 28 85 28zM650.004 701.002c10 0 14 -4 12 -12c0 -2.66699 -46 -118 -138 -346c-90.667 -226 -141.667 -339.667 -153 -341l-31 -2c-57.333 3.33301 -90 8 -98 14h-2l266 682
c26.667 1.33301 52 2.5 76 3.5s46.667 1.5 68 1.5zM767.004 447.002c28.667 0 61.668 -3.00293 99.001 -9.00293c0 -2 0.666992 -3 2 -3l-10 -244h2c20 0 31.667 -3.66699 35 -11c-0.666992 -5.33301 -1.33398 -14.666 -2.00098 -27.999s-1.33398 -31 -2.00098 -53
c-3.33301 -4 -8.33301 -6 -15 -6l-14 1v-1c0 -8.66699 0.166992 -16.5 0.5 -23.5s0.5 -13.167 0.5 -18.5c0 -3.33301 0.333008 -9.16602 1 -17.499s1.66699 -18.833 3 -31.5c-1.33301 -0.666992 -8.16602 -1.16699 -20.499 -1.5s-30.5 -1.16602 -54.5 -2.49902
c-47.333 -2 -71 0 -71 6c2 4.66699 3 35 3 91c-14.667 0.666992 -28.334 1.16699 -41.001 1.5s-24.667 0.5 -36 0.5h-37c-19.333 0 -29 2 -29 6l-21 69l70 257h2c46 -18 78 -34.667 96 -50v-3l-47 -178h52v2l11 243c2.66699 2.66699 10.334 4 23.001 4z" />
    <glyph glyph-name="questiondown" unicode="&#xbf;" horiz-adv-x="490" 
d="M195 0l-25.998 -0.00292969c-69.333 0 -111.333 15.333 -126 46c-8.66699 19.333 -13 49.333 -13 90v20c0 106.667 41 191 123 253c35.333 35.333 62.333 75 81 119c2 2.66699 5.33301 4 10 4c22.667 -4 47.334 -6 74.001 -6h3c5.33301 0 12.166 0.166992 20.499 0.5
s17.833 0.833008 28.5 1.5c5.33301 0 7.66602 -5.33301 6.99902 -16c0 -53.333 -21.333 -100.333 -64 -141c-37.333 -35.333 -64.833 -69.166 -82.5 -101.499s-26.5 -63.166 -26.5 -92.499c4.66699 -22 34 -26.667 88 -14c17.333 7.33301 21.666 36.333 12.999 87v19
c0 13.333 8.66699 20 26 20c12 2 32.667 3 62 3h32c11.333 0 19.666 -6.66699 24.999 -20s8 -32.666 8 -57.999c-1.33301 -97.333 -16.666 -154.666 -45.999 -171.999c-24.667 -14.667 -55 -25.334 -91 -32.001s-78 -10 -126 -10zM315.002 589.997h-59
c-19.333 0 -25.666 30.333 -18.999 91c0 1.33301 0.833008 2.66602 2.5 3.99902s5.16699 2.33301 10.5 3c15.333 2.66699 31.666 4.33398 48.999 5.00098s35.666 1 54.999 1h13c17.333 0 26 -4.33301 26 -13c2.66699 -57.333 -4.66602 -86.666 -21.999 -87.999
c-12.667 -0.666992 -23.5 -1.33398 -32.5 -2.00098s-16.833 -1 -23.5 -1z" />
    <glyph glyph-name="Agrave" unicode="&#xc0;" horiz-adv-x="931" 
d="M80 190l162 -88l154 91l-154 91zM241 325l228 -124l2 -276l-229 -126l-242 143l1 247zM540 177l162 -88l154 92l-154 90zM701 312l227 -123l3 -255v-21l-229 -126l-242 143l1 246zM314 568l161 -88l154 91l-154 91zM702 579l2 -275l-229 -126l-242 142l1 247l240 136z
" />
    <glyph glyph-name="Aacute" unicode="&#xc1;" horiz-adv-x="817" 
d="M133 476l282 -154l269 159l-269 158zM817 487l-4 -485l-391 -215l-422 249l2 430l418 237z" />
    <glyph glyph-name="Acircumflex" unicode="&#xc2;" horiz-adv-x="808" 
d="M631 423h-485v110h485v-110zM634 243h-485v110h485v-110zM333 49h-177v111h177v-111zM808 -213h-808v97h808v-97zM90 -206h-90v909h90v-909zM805 -155h-90v858h90v-858zM808 605h-808v97h808v-97zM806 -209h-90v182h90v-182z" />
    <glyph glyph-name="Atilde" unicode="&#xc3;" horiz-adv-x="962" 
d="M0 -132h760v-81h-760v81zM0 553h75v-760h-75v760zM261 561h406v-92h-406v92zM264 411h405v-93h-405v93zM269 249h148v-93h-148v93zM139 18h675v-81h-675v81zM139 703h75v-760h-75v760zM740 703h76v-193h-76v193zM139 701h675v-81h-675v81zM621 197l98.001 121.494
l72 88.5l60 73c13.333 16 28.166 24.833 44.499 26.5s30.5 -1.16602 42.5 -8.49902s19.833 -18.166 23.5 -32.499s-0.5 -29.5 -12.5 -45.5l-62.5 -81.5l-77 -99l-75.5 -96c-24 -30.333 -43.667 -54.166 -59 -71.499c-13.333 -15.333 -25.833 -24.666 -37.5 -27.999
s-22 -3.83301 -31 -1.5s-16.667 6.16602 -23 11.499s-10.5 9.33301 -12.5 12c-7.33301 6.66699 -13.166 12.334 -17.499 17.001l-17 19c-7 8 -16 19 -27 33l-46.5 60c-14 18 -19 34 -15 48s11.833 24.833 23.5 32.5s25 11.834 40 12.501s26.833 -3.66602 35.5 -12.999
c3.33301 -4 8.66602 -9.66699 15.999 -17l23 -23.5zM738.001 92.9941h75v-153h-75v153z" />
    <glyph glyph-name="Adieresis" unicode="&#xc4;" horiz-adv-x="985" 
d="M631 423h-485v110h485v-110zM634 243h-485v110h485v-110zM333 49h-177v111h177v-111zM808 -213h-808v97h808v-97zM90 -206h-90v909h90v-909zM810 472h-90v231h90v-231zM808 604h-808v96h808v-96zM577 98l117.5 145l86.5 106l72 87c16 20 33.667 31 53 33
s36 -1.66699 50 -11s23.167 -22.666 27.5 -39.999s-0.5 -35.333 -14.5 -54l-47 -61.5l-57 -74.5l-62 -80l-62 -78.5l-56 -69l-44 -52.5c-16 -18 -30.833 -29.167 -44.5 -33.5s-26 -5 -37 -2s-20.167 7.66699 -27.5 14s-12.333 11.166 -15 14.499
c-8.66699 8 -15.667 14.833 -21 20.5s-12 13.167 -20 22.5s-18.667 22.5 -32 39.5l-56 71.5c-16.667 21.333 -22.667 40.333 -18 57s14 29.834 28 39.501s30 14.667 48 15s32 -4.83398 42 -15.501l20 -20c7.33301 -7.33301 16.5 -17 27.5 -29l41.5 -44v0zM806 -209h-90v182
h90v-182z" />
    <glyph glyph-name="Aring" unicode="&#xc5;" horiz-adv-x="808" 
d="M191 -19l4 526l416 -277zM808 -213h-808v97h808v-97zM90 -206h-90v909h90v-909zM805 -155h-90v858h90v-858zM808 605h-808v97h808v-97zM806 -209h-90v182h90v-182z" />
    <glyph glyph-name="AE" unicode="&#xc6;" horiz-adv-x="951" 
d="M713 105c-1.33301 -8.66699 -2.33691 -17.3252 -3.00391 -25.9922s-1.66699 -17 -3 -25c-7.33301 -36.667 -19.5 -69.5 -36.5 -98.5s-42.5 -52.833 -76.5 -71.5c-22 -12 -45.667 -20.333 -71 -25s-50.666 -5.5 -75.999 -2.5s-49.5 9.33301 -72.5 19
s-43.167 22.834 -60.5 39.501c-20 19.333 -35.333 40.666 -46 63.999s-18.667 48.333 -24 75c-1.33301 6.66699 -2.16602 13.167 -2.49902 19.5s-1.16602 12.833 -2.49902 19.5c0 2 -0.166992 4 -0.5 6s-0.5 4 -0.5 6h-3c-1.33301 -4.66699 -2.33301 -9.16699 -3 -13.5
l-2 -13.5c-4.66699 -26.667 -9 -53.167 -13 -79.5s-8.66699 -52.5 -14 -78.5c-3.33301 -14 -7.33301 -27.667 -12 -41l-14 -40c-1.33301 -4.66699 -2.83301 -9.33398 -4.5 -14.001s-3.16699 -9.66699 -4.5 -15c-3.33301 -9.33301 -9 -16 -17 -20s-16.667 -4.33301 -26 -1
s-16 9 -20 17s-4.33301 16.667 -1 26l8 24.5c2.66699 8.33301 5.66699 16.5 9 24.5c8 21.333 14 43 18 65l12 66l9.5 59.5l9.5 59.5c2 12 8.66699 20.667 20 26c7.33301 4 14.833 7.83301 22.5 11.5s15.167 7.5 22.5 11.5c3.33301 2.66699 5.66602 6 6.99902 10
c3.33301 23.333 7.83301 46.666 13.5 69.999s13.5 45.666 23.5 66.999v2c-16 4 -30.333 -0.333008 -43 -13l-52.5 -54.5l-53.5 -52.5c-6 -6 -12.333 -10.333 -19 -13l-30 -15.5l-29 -14.5c-10 -5.33301 -19.333 -6.66602 -28 -3.99902s-15.334 8.33398 -20.001 17.001
s-5.5 17.5 -2.5 26.5s9.5 15.5 19.5 19.5c22.667 9.33301 43.167 21.166 61.5 35.499s35.5 30.166 51.5 47.499l38 38.5l39 38.5c8.66699 8.66699 19 13 31 13h62c1.33301 7.33301 2.5 14.166 3.5 20.499s1.83301 12.833 2.5 19.5
c0.666992 1.33301 0.5 2.66602 -0.5 3.99902s-1.83301 2.66602 -2.5 3.99902c0 0.666992 -1 1 -3 1c-16.667 7.33301 -30.5 17.166 -41.5 29.499s-20.833 26.5 -29.5 42.5c-7.33301 14.667 -15.166 28.834 -23.499 42.501l-25.5 41.5
c-3.33301 4.66699 -7.33301 8.33398 -12 11.001l-24 12l-25 12c-9.33301 5.33301 -15.666 12.166 -18.999 20.499s-2.66602 17.166 2.00098 26.499c4.66699 8.66699 11.334 14.334 20.001 17.001s17.667 1.33398 27 -3.99902l32.5 -15.5c10.333 -5 20.833 -10.5 31.5 -16.5
c3.33301 -1.33301 6.5 -3.66602 9.5 -6.99902s5.83301 -6.66602 8.5 -9.99902l31.5 -52.5l30.5 -52.5c4 -6 7.16699 -11 9.5 -15s5 -7.33301 8 -10s6.5 -5 10.5 -7s9.33301 -4.33301 16 -7l22 19.5l23 19.5c-7.33301 11.333 -11.5 23.333 -12.5 36s1.83301 25.667 8.5 39
c-7.33301 0 -14.166 -0.166992 -20.499 -0.5s-12.5 -0.166016 -18.5 0.500977c-3.33301 0.666992 -6.5 1.5 -9.5 2.5s-5.5 2.5 -7.5 4.5c-5.33301 4.66699 -10.5 9.66699 -15.5 15l-15.5 16c-8.66699 8.66699 -9 17 -1 25c7.33301 7.33301 15.666 6.66602 24.999 -2.00098
l1 -1c8 -12 17.667 -19.833 29 -23.5s23.666 -4.83398 36.999 -3.50098c8 1.33301 15.833 2.33301 23.5 3s15.167 2.66699 22.5 6c32 13.333 64.667 11.666 98 -5.00098c4 -2 8.33301 -3 13 -3c18 -1.33301 36 -1.33301 54 0c4.66699 0 8.66699 1.66699 12 5
c4 3.33301 7.66699 6.83301 11 10.5l10 10.5c10.667 9.33301 19.667 10 27 2c8 -6.66699 7 -15.667 -3 -27c-0.666992 0 -1.33398 -0.333008 -2.00098 -1c-9.33301 -13.333 -20.333 -23.166 -33 -29.499s-27.667 -7.83301 -45 -4.5c-1.33301 0 -3 -0.333008 -5 -1
c12 -26 10.667 -50.667 -4 -74l22 -19.5l23 -19.5c8 4 15.667 8.66699 23 14s13.666 12.666 18.999 21.999l31 53.5l32 52.5c4.66699 9.33301 12.334 16.666 23.001 21.999c10 4.66699 19.833 9.5 29.5 14.5s19.5 9.83301 29.5 14.5c10 5.33301 19.333 6.66602 28 3.99902
s15.334 -8.33398 20.001 -17.001c4.66699 -9.33301 5.33398 -18.166 2.00098 -26.499s-10 -15.166 -20 -20.499l-48 -24c-6 -4 -10 -7.66699 -12 -11l-32.5 -53.5l-30.5 -53.5c-8.66699 -16 -21 -28.333 -37 -37l-15 -6.5c-5.33301 -2.33301 -9 -5.5 -11 -9.5
c-1.33301 -3.33301 -1.33301 -7.66602 0 -12.999s2.33301 -10.666 3 -15.999c0.666992 -2.66699 1 -5.16699 1 -7.5s0.333008 -5.16602 1 -8.49902h61c14 0 25.333 -4.66699 34 -14l117 -117c7.33301 -6.66699 16 -12.667 26 -18
c7.33301 -4.66699 14.833 -8.83398 22.5 -12.501l22.5 -10.5c10 -5.33301 16.667 -12.166 20 -20.499s2.66602 -17.166 -2.00098 -26.499c-4.66699 -8.66699 -11.334 -14.334 -20.001 -17.001s-17.667 -1.66699 -27 3c-11.333 5.33301 -22.333 10.833 -33 16.5l-32 16.5
c-3.33301 1.33301 -7.66602 4.66602 -12.999 9.99902l-55.5 54l-54.5 56c-10 10 -22 14 -36 12c3.33301 -11.333 6.83301 -22.5 10.5 -33.5s7.16699 -22.167 10.5 -33.5c2.66699 -11.333 4.83398 -23 6.50098 -35s3.5 -24 5.5 -36
c1.33301 -6.66699 4.66602 -11.334 9.99902 -14.001l19 -9.5c6 -3 12.667 -6.16699 20 -9.5c13.333 -6.66699 21 -17.667 23 -33l15.5 -96c5 -32 10.833 -64 17.5 -96c3.33301 -14.667 7.5 -29.167 12.5 -43.5l14.5 -42.5c1.33301 -3.33301 2.5 -6.5 3.5 -9.5
s1.83301 -6.16699 2.5 -9.5c2.66699 -8.66699 2 -16.667 -2 -24s-10 -12.666 -18 -15.999c-8.66699 -3.33301 -17.167 -3.33301 -25.5 0s-13.833 9.33301 -16.5 18l-26 75c-8.66699 24.667 -15 50.667 -19 78c-3.33301 23.333 -7 46.166 -11 68.499
s-7.66699 45.166 -11 68.499c-0.666992 1.33301 -1.16699 2.66602 -1.5 3.99902s-0.833008 2.66602 -1.5 3.99902h-2v0z" />
    <glyph glyph-name="Ccedilla" unicode="&#xc7;" 
d="M518 -141c60.667 0 117.834 11.5 171.501 34.5s100.5 54.5 140.5 94.5s71.5 86.667 94.5 140s34.5 110.666 34.5 171.999c0 60.667 -11.5 117.667 -34.5 171s-54.5 100 -94.5 140s-86.833 71.5 -140.5 94.5s-110.834 34.5 -171.501 34.5s-117.834 -11.5 -171.501 -34.5
s-100.5 -54.5 -140.5 -94.5s-71.5 -86.667 -94.5 -140s-34.5 -110.333 -34.5 -171c0 -61.333 11.5 -118.666 34.5 -171.999s54.5 -100 94.5 -140s86.833 -71.5 140.5 -94.5s110.834 -34.5 171.501 -34.5zM518 758c63.333 0 122.833 -12 178.5 -36
s104.167 -56.833 145.5 -98.5s74 -90.334 98 -146.001s36 -114.834 36 -177.501c0 -63.333 -12 -122.833 -36 -178.5s-56.667 -104.167 -98 -145.5s-89.833 -74 -145.5 -98s-115.167 -36 -178.5 -36s-122.666 12 -177.999 36s-103.833 56.667 -145.5 98
s-74.5 89.833 -98.5 145.5s-36 115.167 -36 178.5c0 62.667 12 121.834 36 177.501s56.833 104.334 98.5 146.001s90.167 74.5 145.5 98.5s114.666 36 177.999 36zM339 183c-11.333 16 -25.5068 32.9951 -42.5068 50.9951s-32.833 40.667 -47.5 68
c0.666992 8 3.83398 12.833 9.50098 14.5s12.334 2 20.001 1s15.334 -3 23.001 -6s14.5 -5.5 20.5 -7.5c8 -2.66699 16.667 -8.33398 26 -17.001s18.666 -18.167 27.999 -28.5l27 -29.5c8.66699 -9.33301 16.334 -15.666 23.001 -18.999
c16.667 18.667 32.667 40.167 48 64.5l46 73.5c15.333 24.667 31 48.5 47 71.5s33.667 42.5 53 58.5c13.333 11.333 27 21.833 41 31.5s30 17.167 48 22.5c2.66699 0.666992 4.83398 0.833984 6.50098 0.500977s3.16699 -0.5 4.5 -0.5c6 -1.33301 11.167 -4.5 15.5 -9.5
s4.83301 -11.167 1.5 -18.5c-2 -4 -5.16699 -8.16699 -9.5 -12.5s-8.5 -8.16602 -12.5 -11.499l-69 -69c-41.333 -44 -78.166 -91.667 -110.499 -143s-61.5 -106.333 -87.5 -165c-2 -5.33301 -3.83301 -10.666 -5.5 -15.999s-4.16699 -10.666 -7.5 -15.999
c0 -0.666992 -0.666992 -2.66699 -2 -6s-2.66602 -7 -3.99902 -11s-2.83301 -7.66699 -4.5 -11s-3.5 -5.33301 -5.5 -6c-1.33301 0.666992 -2.66602 3.33398 -3.99902 8.00098l-4 14.5l-4 14.5c-1.33301 4.66699 -2.33301 7.66699 -3 9c-10 18 -20.333 35.167 -31 51.5
s-22 32.5 -34 48.5z" />
    <glyph glyph-name="Egrave" unicode="&#xc8;" 
d="M458 -196c60.667 0 117.834 11.5 171.501 34.5s100.5 54.5 140.5 94.5s71.5 86.833 94.5 140.5s34.5 110.834 34.5 171.501s-11.5 117.834 -34.5 171.501s-54.5 100.5 -94.5 140.5s-86.833 71.5 -140.5 94.5s-110.834 34.5 -171.501 34.5s-117.834 -11.5 -171.501 -34.5
s-100.5 -54.5 -140.5 -94.5s-71.5 -86.833 -94.5 -140.5s-34.5 -110.834 -34.5 -171.501s11.5 -117.834 34.5 -171.501s54.5 -100.5 94.5 -140.5s86.833 -71.5 140.5 -94.5s110.834 -34.5 171.501 -34.5zM458 703c63.333 0 122.833 -12 178.5 -36s104.167 -56.667 145.5 -98
s74 -89.833 98 -145.5s36 -115.167 36 -178.5s-12 -122.833 -36 -178.5s-56.667 -104.167 -98 -145.5s-89.833 -74 -145.5 -98s-115.167 -36 -178.5 -36s-122.833 12 -178.5 36s-104.167 56.667 -145.5 98s-74 89.833 -98 145.5s-36 115.167 -36 178.5s12 122.833 36 178.5
s56.667 104.167 98 145.5s89.833 74 145.5 98s115.167 36 178.5 36zM657 441c5.33301 -5.33301 5.33301 -11 0 -17l-180 -179l180 -179c5.33301 -6 5.33301 -11.667 0 -17c-2.66699 -2.66699 -5.66699 -4 -9 -4s-6.33301 1.33301 -9 4l-179 179l-179 -179
c-2 -2.66699 -5 -4 -9 -4c-3.33301 0 -6 1.33301 -8 4c-6 5.33301 -6 11 0 17l179 179l-179 179c-6 6 -6 11.667 0 17c5.33301 6 11 6 17 0l179 -179l179 179c6 6 12 6 18 0z" />
    <glyph glyph-name="Eacute" unicode="&#xc9;" 
d="M294 253c0 -22.667 4.33301 -43.834 13 -63.501s20.334 -36.834 35.001 -51.501s31.834 -26.334 51.501 -35.001s40.834 -13 63.501 -13s43.834 4.33301 63.501 13s36.834 20.334 51.501 35.001s26.334 31.834 35.001 51.501s13 40.834 13 63.501
s-4.33301 43.834 -13 63.501s-20.334 36.834 -35.001 51.501s-31.834 26.334 -51.501 35.001s-40.834 13 -63.501 13s-43.834 -4.33301 -63.501 -13s-36.834 -20.334 -51.501 -35.001s-26.334 -31.834 -35.001 -51.501s-13 -40.834 -13 -63.501zM458 -196
c60.667 0 117.834 11.5 171.501 34.5s100.5 54.5 140.5 94.5s71.5 86.833 94.5 140.5s34.5 110.834 34.5 171.501s-11.5 117.834 -34.5 171.501s-54.5 100.5 -94.5 140.5s-86.833 71.5 -140.5 94.5s-110.834 34.5 -171.501 34.5s-117.834 -11.5 -171.501 -34.5
s-100.5 -54.5 -140.5 -94.5s-71.5 -86.833 -94.5 -140.5s-34.5 -110.834 -34.5 -171.501s11.5 -117.834 34.5 -171.501s54.5 -100.5 94.5 -140.5s86.833 -71.5 140.5 -94.5s110.834 -34.5 171.501 -34.5zM458 703c63.333 0 122.833 -12 178.5 -36s104.167 -56.667 145.5 -98
s74 -89.833 98 -145.5s36 -115.167 36 -178.5s-12 -122.833 -36 -178.5s-56.667 -104.167 -98 -145.5s-89.833 -74 -145.5 -98s-115.167 -36 -178.5 -36s-122.833 12 -178.5 36s-104.167 56.667 -145.5 98s-74 89.833 -98 145.5s-36 115.167 -36 178.5s12 122.833 36 178.5
s56.667 104.167 98 145.5s89.833 74 145.5 98s115.167 36 178.5 36z" />
    <glyph glyph-name="Ecircumflex" unicode="&#xca;" 
d="M671 275l-321 -198v382zM458 -179c60.667 0 117.834 11.5 171.501 34.5s100.5 54.5 140.5 94.5s71.5 86.833 94.5 140.5s34.5 110.834 34.5 171.501s-11.5 117.834 -34.5 171.501s-54.5 100.5 -94.5 140.5s-86.833 71.5 -140.5 94.5s-110.834 34.5 -171.501 34.5
s-117.834 -11.5 -171.501 -34.5s-100.5 -54.5 -140.5 -94.5s-71.5 -86.833 -94.5 -140.5s-34.5 -110.834 -34.5 -171.501s11.5 -117.834 34.5 -171.501s54.5 -100.5 94.5 -140.5s86.833 -71.5 140.5 -94.5s110.834 -34.5 171.501 -34.5zM458 720
c62.667 0 121.834 -12 177.501 -36s104.334 -56.833 146.001 -98.5s74.5 -90.334 98.5 -146.001s36 -114.834 36 -177.501c0 -63.333 -12 -122.833 -36 -178.5s-56.833 -104.167 -98.5 -145.5s-90.334 -74 -146.001 -98s-114.834 -36 -177.501 -36
c-63.333 0 -122.833 12 -178.5 36s-104.167 56.667 -145.5 98s-74 89.833 -98 145.5s-36 115.167 -36 178.5c0 62.667 12 121.834 36 177.501s56.667 104.334 98 146.001s89.833 74.5 145.5 98.5s115.167 36 178.5 36z" />
    <glyph glyph-name="Edieresis" unicode="&#xcb;" horiz-adv-x="770" 
d="M73 305c0 36 7.66699 69.667 23 101s36 58.666 62 81.999s56.667 41.833 92 55.5s73 20.5 113 20.5s77.667 -6.83301 113 -20.5s66 -32.167 92 -55.5s46.667 -50.666 62 -81.999s23 -65 23 -101s-7.66699 -69.833 -23 -101.5s-36 -59.167 -62 -82.5
s-56.667 -41.833 -92 -55.5s-73 -20.5 -113 -20.5s-77.667 6.83301 -113 20.5s-66 32.167 -92 55.5s-46.667 50.833 -62 82.5s-23 65.5 -23 101.5zM191 272c0 1.33301 4.83398 -2.66992 14.501 -12.0029s23 -20.166 40 -32.499s37 -24 60 -35s48.333 -17.667 76 -20
s56.667 1.83398 87 12.501s61.166 31.334 92.499 62.001zM383.001 337.997c0 17.333 8.16699 32 24.5 44s36.166 18 59.499 18s43 -6 59 -18s24 -26.667 24 -44s-8 -32 -24 -44s-35.667 -18 -59 -18s-43.166 6 -59.499 18s-24.5 26.667 -24.5 44z" />
    <glyph glyph-name="Igrave" unicode="&#xcc;" horiz-adv-x="444" 
d="M336 698l6.99805 -0.00195312c15.333 0 27 -4.66699 35 -14c13.333 -125.333 11.666 -188 -5.00098 -188h-64v-4c1.33301 -5.33301 1.5 -32.5 0.5 -81.5s-2.83301 -120.167 -5.5 -213.5h3c6 0 14.5 0.333008 25.5 1s24.5 1.33398 40.5 2.00098
c10.667 0.666992 19.334 -2.83301 26.001 -10.5s10.334 -19.167 11.001 -34.5l6 -126c0.666992 -20.667 -45.666 -30.667 -138.999 -30c-48 0.666992 -87.333 1 -118 1h-69l-6 -3c-13.333 5.33301 -20.333 10 -21 14l-4 167c12.667 12 38.334 18 77.001 18h10
c-3.33301 28.667 -5.16602 67.834 -5.49902 117.501s0.166992 110.5 1.5 182.5h-57c-12.667 0 -19.334 3.33301 -20.001 10c-0.666992 42.667 -1.66699 79.5 -3 110.5s-3 56.5 -5 76.5c0 4.66699 23.167 6.66699 69.5 6s116.166 -1 209.499 -1zM215.998 955.998
l3.99805 0.000976562c16.667 -39.333 43.334 -76.333 80.001 -111c36 -34 53 -55 51 -63c-24 -31.333 -38.667 -46.333 -44 -45c-73.333 27.333 -124.666 52.666 -153.999 75.999c-28.667 24 -49.667 53.667 -63 89c72 28.667 114 46.667 126 54z" />
    <glyph glyph-name="Iacute" unicode="&#xcd;" horiz-adv-x="444" 
d="M336 698l6.99805 -0.00195312c15.333 0 27 -4.66699 35 -14c13.333 -125.333 11.666 -188 -5.00098 -188h-64v-4c1.33301 -5.33301 1.5 -32.5 0.5 -81.5s-2.83301 -120.167 -5.5 -213.5h3c6 0 14.5 0.333008 25.5 1s24.5 1.33398 40.5 2.00098
c10.667 0.666992 19.334 -2.83301 26.001 -10.5s10.334 -19.167 11.001 -34.5l6 -126c0.666992 -20.667 -45.666 -30.667 -138.999 -30c-48 0.666992 -87.333 1 -118 1h-69l-6 -3c-13.333 5.33301 -20.333 10 -21 14l-4 167c12.667 12 38.334 18 77.001 18h10
c-3.33301 28.667 -5.16602 67.834 -5.49902 117.501s0.166992 110.5 1.5 182.5h-57c-12.667 0 -19.334 3.33301 -20.001 10c-0.666992 42.667 -1.66699 79.5 -3 110.5s-3 56.5 -5 76.5c0 4.66699 23.167 6.66699 69.5 6s116.166 -1 209.499 -1zM227.998 955.998
c12 -7.33301 53.998 -25.334 125.998 -54.001c-13.333 -36 -34.666 -65.667 -63.999 -89c-28 -23.333 -79 -48.666 -153 -75.999c-5.33301 -1.33301 -20 13.667 -44 45c-2 8 15 29 51 63c36.667 34.667 63.334 71.667 80.001 111h4z" />
    <glyph glyph-name="Icircumflex" unicode="&#xce;" horiz-adv-x="444" 
d="M336 698l6.99805 -0.00195312c15.333 0 27 -4.66699 35 -14c13.333 -125.333 11.666 -188 -5.00098 -188h-64v-4c1.33301 -5.33301 1.5 -32.5 0.5 -81.5s-2.83301 -120.167 -5.5 -213.5h3c6 0 14.5 0.333008 25.5 1s24.5 1.33398 40.5 2.00098
c10.667 0.666992 19.334 -2.83301 26.001 -10.5s10.334 -19.167 11.001 -34.5l6 -126c0.666992 -20.667 -45.666 -30.667 -138.999 -30c-48 0.666992 -87.333 1 -118 1h-69l-6 -3c-13.333 5.33301 -20.333 10 -21 14l-4 167c12.667 12 38.334 18 77.001 18h10
c-3.33301 28.667 -5.16602 67.834 -5.49902 117.501s0.166992 110.5 1.5 182.5h-57c-12.667 0 -19.334 3.33301 -20.001 10c-0.666992 42.667 -1.66699 79.5 -3 110.5s-3 56.5 -5 76.5c0 4.66699 23.167 6.66699 69.5 6s116.166 -1 209.499 -1zM168.998 955.998
c17.333 -3.33301 34.998 -4.83301 52.998 -4.5s35.667 1.83301 53 4.5c16.667 -39.333 43.334 -76.333 80.001 -111c36 -34 53 -55 51 -63c-24 -31.333 -38.667 -46.333 -44 -45c-61.333 22.667 -108 44.667 -140 66c-32 -21.333 -78.667 -43.333 -140 -66
c-5.33301 -1.33301 -20 13.667 -44 45c-2 8 15 29 51 63c36.667 34.667 63.334 71.667 80.001 111z" />
    <glyph glyph-name="Idieresis" unicode="&#xcf;" horiz-adv-x="444" 
d="M336 698l6.99805 -0.00195312c15.333 0 27 -4.66699 35 -14c13.333 -125.333 11.666 -188 -5.00098 -188h-64v-4c1.33301 -5.33301 1.5 -32.5 0.5 -81.5s-2.83301 -120.167 -5.5 -213.5h3c6 0 14.5 0.333008 25.5 1s24.5 1.33398 40.5 2.00098
c10.667 0.666992 19.334 -2.83301 26.001 -10.5s10.334 -19.167 11.001 -34.5l6 -126c0.666992 -20.667 -45.666 -30.667 -138.999 -30c-48 0.666992 -87.333 1 -118 1h-69l-6 -3c-13.333 5.33301 -20.333 10 -21 14l-4 167c12.667 12 38.334 18 77.001 18h10
c-3.33301 28.667 -5.16602 67.834 -5.49902 117.501s0.166992 110.5 1.5 182.5h-57c-12.667 0 -19.334 3.33301 -20.001 10c-0.666992 42.667 -1.66699 79.5 -3 110.5s-3 56.5 -5 76.5c0 4.66699 23.167 6.66699 69.5 6s116.166 -1 209.499 -1zM80.998 863.998h78
c18 0 27 -7.33301 27 -22l-1 -80c0 -16.667 -4 -25 -12 -25h-86c-18.667 0 -28 9.66699 -28 29v67c0 20.667 7.33301 31 22 31zM279.998 863.998h78c18 0 27 -7.33301 27 -22l-1 -80c0 -16.667 -4 -25 -12 -25h-86c-18.667 0 -28 9.66699 -28 29v67
c0 20.667 7.33301 31 22 31z" />
    <glyph glyph-name="Eth" unicode="&#xd0;" horiz-adv-x="553" 
d="M242 673c82 -16.667 147.337 -41.668 196.004 -75.001s82.667 -73.666 102 -120.999c9.33301 -24 11.666 -53.333 6.99902 -88c-19.333 -128 -106 -245.333 -260 -352c-91.333 -31.333 -153 -43 -185 -35h-10c-12 3.33301 -17 102.666 -15 297.999h-30.5
c-7.66699 0 -12.834 -0.333008 -15.501 -1l-1 1c1.33301 28 2.5 49.167 3.5 63.5s1.5 22.166 1.5 23.499v3h40c-2.66699 56.667 -3 107.334 -1 152.001s4.66699 83.334 8 116.001l2 18c1.33301 7.33301 15.166 11.333 41.499 12s65.166 -4.33301 116.499 -15z
M248.004 388.999l33 0.000976562c2.66699 -0.666992 4 -2 4 -4c0 -4.66699 0.166992 -13.667 0.5 -27s0.833008 -31.333 1.5 -54h-10h-23c0.666992 -18.667 0 -34.334 -2 -47.001c28.667 11.333 51 24 67 38s25 28.667 27 44l2 14c2 14 -31.667 42 -101 84h-4
c1.33301 -8.66699 2.33301 -17 3 -25z" />
    <glyph glyph-name="Ntilde" unicode="&#xd1;" horiz-adv-x="638" 
d="M97 701h37c10 0 24 -0.5 42 -1.5s40 -2.83301 66 -5.5c4 0 49.667 -104 137 -312h3l12 313c2.66699 0 4 1 4 3c140 4.66699 210 2.66699 210 -6v-3c0 -56.667 -1.33301 -111.167 -4 -163.5s-5.66699 -102.833 -9 -151.5s-6.33301 -95.5 -9 -140.5s-4 -88.167 -4 -129.5
c0 -5.33301 0.333008 -14.666 1 -27.999s1.66699 -31 3 -53c1.33301 -14.667 -11 -22 -37 -22l-182 1l-129 287h-4c3.33301 -76 6 -134.5 8 -175.5s3 -65.167 3 -72.5v-8c0 -16 -5 -27 -15 -33c-133.333 -7.33301 -200 -5.33301 -200 6v18c0 72 3.5 162.167 10.5 270.5
s17.167 236.166 30.5 383.499v8c4 10 12.667 15 26 15zM215 899c17.333 5.33301 32.6689 7.99707 46.002 7.99707c16.667 0 32.334 -3.66699 47.001 -11c11.333 -6 23 -11.667 35 -17s24.333 -11.333 37 -18c6 -2.66699 12.333 -4 19 -4c10 0 16.333 3.5 19 10.5
s5.5 13.833 8.5 20.5s8 10.834 15 12.501s19.5 -2.83301 37.5 -13.5c20 -12 27 -25.333 21 -40c-10 -25.333 -21.5 -46.166 -34.5 -62.499s-27.167 -27.166 -42.5 -32.499h1c-17.333 -6 -34.333 -9 -51 -9c-8.66699 0 -17.334 1 -26.001 3s-16.334 4.66699 -23.001 8
c-5.33301 2.66699 -11.666 6.16699 -18.999 10.5l-22.5 13.5c-7.66699 4.66699 -15.334 8.66699 -23.001 12s-14.5 5 -20.5 5c-13.333 0 -22.333 -9.66699 -27 -29c-3.33301 -8 -10.833 -12 -22.5 -12s-24.167 4 -37.5 12c-10 6 -15.833 12 -17.5 18
s-0.833984 13 2.49902 21c10 25.333 21.5 46 34.5 62s27.5 26.667 43.5 32z" />
    <glyph glyph-name="Ograve" unicode="&#xd2;" horiz-adv-x="692" 
d="M346 696c104 0 189.334 -41.3301 256.001 -123.997c40 -61.333 60 -132 60 -212c0 -164.667 -69.333 -279.334 -208 -344.001c-42.667 -10.667 -81.334 -16 -116.001 -16c-205.333 28 -308 120 -308 276v28c0 168.667 76 292.667 228 372
c19.333 5.33301 36.333 9.66602 51 12.999s27 5.66602 37 6.99902zM224.001 297.003c0 -48.667 37 -80.001 111 -94.001h17c52 0 87.333 48.333 106 145c0 34.667 -24 71.667 -72 111c-21.333 16.667 -40 20.334 -56 11.001c-70.667 -42 -106 -99.667 -106 -173z
M340.001 956.002l3.99805 0.000976562c16.667 -39.333 43.334 -76.333 80.001 -111c36 -34 53 -55 51 -63c-24 -31.333 -38.667 -46.333 -44 -45c-73.333 27.333 -124.666 52.666 -153.999 75.999c-28.667 24 -49.667 53.667 -63 89c72 28.667 114 46.667 126 54z" />
    <glyph glyph-name="Oacute" unicode="&#xd3;" horiz-adv-x="692" 
d="M346 696c104 0 189.334 -41.3301 256.001 -123.997c40 -61.333 60 -132 60 -212c0 -164.667 -69.333 -279.334 -208 -344.001c-42.667 -10.667 -81.334 -16 -116.001 -16c-205.333 28 -308 120 -308 276v28c0 168.667 76 292.667 228 372
c19.333 5.33301 36.333 9.66602 51 12.999s27 5.66602 37 6.99902zM224.001 297.003c0 -48.667 37 -80.001 111 -94.001h17c52 0 87.333 48.333 106 145c0 34.667 -24 71.667 -72 111c-21.333 16.667 -40 20.334 -56 11.001c-70.667 -42 -106 -99.667 -106 -173z
M352.001 956.002c12 -7.33301 53.998 -25.334 125.998 -54.001c-13.333 -36 -34.666 -65.667 -63.999 -89c-28 -23.333 -79 -48.666 -153 -75.999c-5.33301 -1.33301 -20 13.667 -44 45c-2 8 15 29 51 63c36.667 34.667 63.334 71.667 80.001 111h4z" />
    <glyph glyph-name="Ocircumflex" unicode="&#xd4;" horiz-adv-x="692" 
d="M346 696c104 0 189.334 -41.3301 256.001 -123.997c40 -61.333 60 -132 60 -212c0 -164.667 -69.333 -279.334 -208 -344.001c-42.667 -10.667 -81.334 -16 -116.001 -16c-205.333 28 -308 120 -308 276v28c0 168.667 76 292.667 228 372
c19.333 5.33301 36.333 9.66602 51 12.999s27 5.66602 37 6.99902zM224.001 297.003c0 -48.667 37 -80.001 111 -94.001h17c52 0 87.333 48.333 106 145c0 34.667 -24 71.667 -72 111c-21.333 16.667 -40 20.334 -56 11.001c-70.667 -42 -106 -99.667 -106 -173z
M293.001 956.002c17.333 -3.33301 34.998 -4.83301 52.998 -4.5s35.667 1.83301 53 4.5c16.667 -39.333 43.334 -76.333 80.001 -111c36 -34 53 -55 51 -63c-24 -31.333 -38.667 -46.333 -44 -45c-61.333 22.667 -108 44.667 -140 66c-32 -21.333 -78.667 -43.333 -140 -66
c-5.33301 -1.33301 -20 13.667 -44 45c-2 8 15 29 51 63c36.667 34.667 63.334 71.667 80.001 111z" />
    <glyph glyph-name="Otilde" unicode="&#xd5;" horiz-adv-x="692" 
d="M346 696c104 0 189.334 -41.3301 256.001 -123.997c40 -61.333 60 -132 60 -212c0 -164.667 -69.333 -279.334 -208 -344.001c-42.667 -10.667 -81.334 -16 -116.001 -16c-205.333 28 -308 120 -308 276v28c0 168.667 76 292.667 228 372
c19.333 5.33301 36.333 9.66602 51 12.999s27 5.66602 37 6.99902zM224.001 297.003c0 -48.667 37 -80.001 111 -94.001h17c52 0 87.333 48.333 106 145c0 34.667 -24 71.667 -72 111c-21.333 16.667 -40 20.334 -56 11.001c-70.667 -42 -106 -99.667 -106 -173z
M242.001 899.002c17.333 5.33301 32.6689 7.99707 46.002 7.99707c16.667 0 32.334 -3.66699 47.001 -11c11.333 -6 23 -11.667 35 -17s24.333 -11.333 37 -18c6 -2.66699 12.333 -4 19 -4c10 0 16.333 3.5 19 10.5s5.5 13.833 8.5 20.5s8 10.834 15 12.501
s19.5 -2.83301 37.5 -13.5c20 -12 27 -25.333 21 -40c-10 -25.333 -21.5 -46.166 -34.5 -62.499s-27.167 -27.166 -42.5 -32.499h1c-17.333 -6 -34.333 -9 -51 -9c-8.66699 0 -17.334 1 -26.001 3s-16.334 4.66699 -23.001 8c-5.33301 2.66699 -11.666 6.16699 -18.999 10.5
l-22.5 13.5c-7.66699 4.66699 -15.334 8.66699 -23.001 12s-14.5 5 -20.5 5c-13.333 0 -22.333 -9.66699 -27 -29c-3.33301 -8 -10.833 -12 -22.5 -12s-24.167 4 -37.5 12c-10 6 -15.833 12 -17.5 18s-0.833984 13 2.49902 21c10 25.333 21.5 46 34.5 62
s27.5 26.667 43.5 32z" />
    <glyph glyph-name="Odieresis" unicode="&#xd6;" horiz-adv-x="692" 
d="M346 696c104 0 189.334 -41.3301 256.001 -123.997c40 -61.333 60 -132 60 -212c0 -164.667 -69.333 -279.334 -208 -344.001c-42.667 -10.667 -81.334 -16 -116.001 -16c-205.333 28 -308 120 -308 276v28c0 168.667 76 292.667 228 372
c19.333 5.33301 36.333 9.66602 51 12.999s27 5.66602 37 6.99902zM224.001 297.003c0 -48.667 37 -80.001 111 -94.001h17c52 0 87.333 48.333 106 145c0 34.667 -24 71.667 -72 111c-21.333 16.667 -40 20.334 -56 11.001c-70.667 -42 -106 -99.667 -106 -173z
M205.001 864.002h78c18 0 27 -7.33301 27 -22l-1 -80c0 -16.667 -4 -25 -12 -25h-86c-18.667 0 -28 9.66699 -28 29v67c0 20.667 7.33301 31 22 31zM404.001 864.002h78c18 0 27 -7.33301 27 -22l-1 -80c0 -16.667 -4 -25 -12 -25h-86c-18.667 0 -28 9.66699 -28 29v67
c0 20.667 7.33301 31 22 31z" />
    <glyph glyph-name="multiply" unicode="&#xd7;" horiz-adv-x="533" 
d="M496 488c0.666992 -6 0.666016 -10.002 -0.000976562 -12.002l-1 -1l-88 -86l-18 -16l107 -102c0 -4 -1 -7 -3 -9l-111 -119l-8 7l-104 95l-44.5 -44l-65.5 -63c-5.33301 0.666992 -8.66602 2 -9.99902 4c-22 15.333 -46 36 -72 62c-25.333 26 -35.666 40.667 -30.999 44
l48 54l19 19l37 37l-78.5 70c-19.667 16.667 -33.167 27.334 -40.5 32.001c0.666992 0.666992 1 1.33398 1 2.00098l126 124l4 5c2 2 37.667 -31.667 107 -101l62.5 61c16.333 16 28.166 28 35.499 36c5.33301 5.33301 16.333 1 33 -13l36.5 -32.5z" />
    </font>
</defs>
</svg>
